<?xml version="1.0" encoding="utf-8"?>
<!-- Generator: Adobe Illustrator 19.0.0, SVG Export Plug-In . SVG Version: 6.00 Build 0)  -->
<svg version="1.1" id="Layer_1" xmlns="http://www.w3.org/2000/svg" xmlns:xlink="http://www.w3.org/1999/xlink" x="0px" y="0px"
	 viewBox="0 0 144 144" style="enable-background:new 0 0 144 144;" xml:space="preserve">
<style type="text/css">
	.st0{display:none;}
	.st1{display:inline;fill:#3C2415;}
	.st2{display:inline;fill:#53C7DE;}
	.st3{display:inline;fill:#54C7DE;}
	.st4{display:inline;fill:#F4FAFB;}
	.st5{display:inline;fill:#FAFDFD;}
	.st6{display:inline;fill:#FBFEFF;}
	.st7{display:inline;fill:#51C6DD;}
	.st8{display:inline;fill:#7D898C;}
	.st9{display:inline;}
	.st10{fill:#FFFFFF;}
</style>
<g id="Layer_4" class="st0">
	<rect y="0" class="st1" width="144" height="144"/>
</g>
<g id="Layer_1_1_" class="st0">
	<path class="st2" d="M0,22c1.6-2.8,3-5.8,5-8.4C11.7,4.5,22.8,1,33.1,4.5c10.5,3.5,17.4,12.8,17.4,24c0.1,16.4,0,32.8,0.1,49.2
		c0,4.5-1.7,6.2-6.2,6.2c-12.9-0.2-25.8,0-38.7-0.1c-1.9,0-3.8-0.7-5.7-1.1C0,62.4,0,42.2,0,22z M42.7,45.3c-11.9,0-23.2,0-34.6,0
		c0,10.4,0,20.4,0,31.1c10.8,0,21.3,0.1,31.9-0.1c0.9,0,2.6-2,2.6-3.1C42.8,64,42.7,55,42.7,45.3z M24.8,37.1
		c4.8,0,9.6,0.2,14.4-0.1c1.2-0.1,3.2-1.4,3.3-2.3c1-7.7-1.1-14.4-7.8-19C29,11.7,21,12,15.1,16.1c-5.9,4-8.9,11.7-7.1,18.8
		c0.3,1,2.2,2.1,3.5,2.2C15.9,37.3,20.4,37.1,24.8,37.1z"/>
	<path class="st3" d="M70.5,82.2c-11.4-18.5-10.3-31.9,3.3-43.9c11.7-10.4,30-10.6,42.4-0.5c13.5,11,14.8,24.9,4,44.2
		c3.4,2.5,7.1,4.7,10.2,7.6c7.6,7.3,11.8,16.2,11.8,26.9c0,6.3-0.1,12.6,0,18.9c0.1,3.9-1.6,5.8-5.6,5.7c-27.8-0.1-55.6,0-83.4,0
		c-3.7,0-5.5-1.6-5.4-5.4c0.1-7.4-0.4-14.9,0.2-22.3c1.1-12.7,7.5-22.3,18.4-29C67.6,83.7,68.9,83,70.5,82.2z M94.7,133.1
		c11.6,0,23.2-0.1,34.7,0.1c3.7,0.1,5-1.1,4.8-4.8c-0.3-4.3,0.1-8.6-0.2-12.9c-0.9-12.2-7-20.8-18.1-25.6c-2.1-0.9-5.2-0.6-7.4,0.3
		c-8.5,3.5-17.2,4.3-25.5,0.5c-5.4-2.5-9.4-1.4-13.7,1.4c-5.9,3.9-10.6,8.9-11.9,15.8c-1.3,6.9-1.2,14.1-1.7,21.1
		c-0.3,3.3,1.2,4.3,4.3,4.2C71.6,133,83.2,133.1,94.7,133.1z M69.7,60c-0.2,13.6,11.6,25.5,25.2,25.5c13.5-0.1,24.9-11.4,25.1-25
		C120.2,46.9,109,35.3,95.4,35C81.6,34.8,69.9,46.2,69.7,60z"/>
	<path class="st4" d="M42.7,45.3c0,9.6,0.1,18.7-0.1,27.8c0,1.1-1.7,3.1-2.6,3.1c-10.5,0.2-21.1,0.1-31.9,0.1c0-10.6,0-20.7,0-31.1
		C19.5,45.3,30.8,45.3,42.7,45.3z M28.9,61.3c0-2.3,0.4-4.7-0.1-6.9c-0.4-1.4-2.4-3.5-3.2-3.3c-1.5,0.3-3.5,2.1-3.7,3.4
		c-0.5,4.2-0.5,8.6,0,12.8c0.1,1.3,2.3,2.5,3.5,3.7c1.2-1.3,3-2.3,3.5-3.8C29.4,65.4,28.9,63.3,28.9,61.3z"/>
	<path class="st5" d="M24.8,37.1c-4.5,0-8.9,0.2-13.4-0.1c-1.2-0.1-3.2-1.2-3.5-2.2c-1.8-7,1.2-14.7,7.1-18.8
		C21,12,29,11.7,34.7,15.6c6.7,4.6,8.8,11.3,7.8,19c-0.1,0.9-2.1,2.3-3.3,2.3C34.4,37.3,29.6,37.1,24.8,37.1z"/>
	<path class="st6" d="M94.7,133.1c-11.6,0-23.2-0.1-34.7,0.1c-3.2,0-4.6-0.9-4.3-4.2c0.6-7,0.5-14.2,1.7-21.1
		c1.3-6.9,6-12,11.9-15.8c4.3-2.8,8.3-3.9,13.7-1.4c8.3,3.8,17,3,25.5-0.5c2.2-0.9,5.3-1.2,7.4-0.3c11.1,4.8,17.3,13.5,18.1,25.6
		c0.3,4.3-0.1,8.6,0.2,12.9c0.2,3.7-1.1,4.9-4.8,4.8C117.9,133,106.3,133.1,94.7,133.1z"/>
	<path class="st6" d="M69.7,60c0.2-13.8,11.9-25.3,25.6-25c13.6,0.3,24.9,11.9,24.7,25.4c-0.2,13.6-11.6,25-25.1,25
		C81.3,85.5,69.6,73.7,69.7,60z"/>
	<path class="st7" d="M28.9,61.3c0,2,0.5,4.1-0.1,5.9c-0.5,1.5-2.3,2.6-3.5,3.8c-1.2-1.2-3.3-2.4-3.5-3.7c-0.4-4.2-0.5-8.6,0-12.8
		c0.2-1.3,2.2-3.1,3.7-3.4c0.8-0.2,2.9,1.9,3.2,3.3C29.3,56.6,28.9,59,28.9,61.3z"/>
</g>
<g id="Layer_2" class="st0">
	<path class="st8" d="M80.9,112.7C80.8,95,94.3,81.1,111.8,80.9c17.9-0.2,32.1,13.6,32.2,31c0.1,17.7-13.8,32-31.2,32.1
		C95,144.1,81,130.4,80.9,112.7z M85,112.3c0,15.2,12.4,27.7,27.6,27.7c14.8,0,27.4-12.6,27.4-27.4c0.1-15.1-12.5-27.6-27.7-27.6
		C97.3,85,85,97.3,85,112.3z"/>
	<path class="st8" d="M80.9,31.7C80.8,14,94.3,0.1,111.8,0c17.9-0.1,32.1,13.6,32.2,31c0.1,17.7-13.8,32-31.2,32.1
		C95,63.2,81,49.5,80.9,31.7z M85,31.4c0,15.2,12.4,27.7,27.6,27.7c14.8,0,27.4-12.6,27.4-27.4C140,16.5,127.5,4,112.3,4
		C97.3,4.1,85,16.4,85,31.4z"/>
	<path class="st8" d="M0.2,31.8C0.1,14.1,13.6,0.2,31,0c17.9-0.1,32.1,13.6,32.2,31c0.1,17.7-13.8,32-31.2,32.1
		C14.2,63.2,0.3,49.5,0.2,31.8z M4.2,31.4c0,15.2,12.4,27.7,27.6,27.7c14.8,0,27.4-12.6,27.4-27.4C59.3,16.5,46.7,4,31.6,4.1
		C16.5,4.1,4.2,16.4,4.2,31.4z"/>
	<path class="st8" d="M0,112.5c-0.1-17.7,13.4-31.6,30.8-31.7c17.9-0.1,32.1,13.6,32.2,31c0.1,17.7-13.8,32-31.2,32.1
		C14,143.9,0.1,130.2,0,112.5z M4,112.2c0,15.3,12.4,27.7,27.6,27.7c14.8,0,27.4-12.6,27.4-27.4c0.1-15.1-12.5-27.6-27.7-27.6
		C16.3,84.9,4,97.2,4,112.2z"/>
</g>
<g id="Layer_3" class="st0">
	<g class="st9">
		<path class="st10" d="M92.8,70.8C75,88.4,58.1,105.2,41.2,122c-2.2,2.2-4.5,4.2-6.4,6.6c-3.8,4.6-0.4,14.5,5.3,15.4
			c1.6,0.3,3.9-0.9,5.1-2.1c21.1-21.6,42.1-43.2,63-64.9c4-4.2,3.9-8.2-0.3-12.4C87.2,43.8,66.2,23.1,45.4,2.3
			c-2.6-2.6-5-3.4-7.9-0.6c-4.6,4.4-6,9.7-3.1,13.4c1.1,1.4,2.5,2.6,3.8,3.9c16.4,15.8,32.8,31.5,49.3,47.2
			C88.8,67.6,90.4,68.8,92.8,70.8z"/>
	</g>
</g>
<g id="Layer_5">
	<g>
		<rect x="30.7" class="st10" width="79.9" height="3.4"/>
		<rect y="77.9" class="st10" width="144.3" height="3.4"/>
		<rect y="140.6" class="st10" width="144.3" height="3.4"/>
		<rect x="30.7" class="st10" width="3.4" height="79.6"/>
		<rect x="70.3" class="st10" width="3.4" height="75.8"/>
		<rect x="61.6" y="11" class="st10" width="2.6" height="61.9"/>
		<g>
			<rect x="3.3" y="86.3" class="st10" width="2.6" height="48.4"/>
			<rect x="12.7" y="86.3" class="st10" width="2.6" height="48.4"/>
			<rect x="22.2" y="86.3" class="st10" width="2.6" height="48.4"/>
			<rect x="31.7" y="86.3" class="st10" width="2.6" height="48.4"/>
			<rect x="41.1" y="86.3" class="st10" width="2.6" height="48.4"/>
			<rect x="50.6" y="86.3" class="st10" width="2.6" height="48.4"/>
			<rect x="60" y="86.3" class="st10" width="2.6" height="48.4"/>
			<rect x="69.5" y="86.3" class="st10" width="2.6" height="48.4"/>
		</g>
		<rect x="79" y="86.3" class="st10" width="2.6" height="48.4"/>
		<rect x="88.4" y="86.3" class="st10" width="2.6" height="48.4"/>
		<rect x="97.9" y="86.3" class="st10" width="2.6" height="48.4"/>
		<rect x="107.4" y="86.3" class="st10" width="2.6" height="48.4"/>
		<rect x="116.8" y="86.3" class="st10" width="2.6" height="48.4"/>
		<rect x="126.3" y="86.3" class="st10" width="2.6" height="48.4"/>
		<rect x="135.7" y="86.3" class="st10" width="2.6" height="48.4"/>
		<rect x="41.8" y="11" class="st10" width="22.4" height="2.6"/>
		<rect x="41.8" y="70.3" class="st10" width="22.4" height="2.6"/>
		<rect x="41.8" y="11" class="st10" width="2.6" height="61.9"/>
		<g>
			<rect x="98.1" y="11" class="st10" width="2.6" height="61.9"/>
			<rect x="78.3" y="11" class="st10" width="22.4" height="2.6"/>
			<rect x="78.3" y="70.3" class="st10" width="22.4" height="2.6"/>
			<rect x="78.3" y="11" class="st10" width="2.6" height="61.9"/>
		</g>
		<rect x="107.2" class="st10" width="3.4" height="79.6"/>
	</g>
</g>
</svg>
