<svg enable-background="new -473 286 77 31" viewBox="-473 286 77 31" xmlns="http://www.w3.org/2000/svg"><switch><g><path d="m-473 317h77v-31h-77z" fill="#eb1701"/><g fill="#fffffe"><path d="m-432.5 294.6h-2l1-3.9h-1.4l.3-1.3h4.8l-.4 1.3h-1.3z"/><path d="m-425.2 294.6h-2l.5-2h-1.5l-.5 2h-2l1.3-5.2h2l-.5 1.9h1.5l.5-1.9h2z"/><path d="m-419.2 294.6h-4.7l1.2-5.2h4.7l-.3 1.2h-2.8l-.2.8h2.3l-.3 1.1h-2.3l-.1.9h2.8z"/><path d="m-452 297.4c-.6-1.6-2.6-2.2-4.6-2.2-1.3 0-2.9.3-2.9 1.5 0 .7.7 1 1.4 1.3 1 .3 2 .6 3.1.8 1.1.3 2.3.6 3.4.9 3.4.9 6.1 3.1 6 5.9-.1 5.4-6.9 7.9-13.3 7.9s-11.7-1.6-14.1-6.3l8.7-1.3c1 2 3.1 2.4 5.7 2.4 1.4 0 3.3-.4 3.4-1.7 0-1.2-2.3-1.6-3.4-1.9-4.9-1.4-10.6-2.4-10.5-7.2.1-5.3 6.1-7.4 12.5-7.4 5.5 0 10.6 1.5 12.5 5.6z"/><path d="m-423.7 313.1h-8l.8-3.1c-1.9 2.3-3.9 3.6-7.5 3.6-3 0-5.9-1.5-5.8-3.9 0-1 .3-1.9.5-2.9l2.5-10.5h8.5l-2.3 9.6c-.1.5-.3 1.1-.3 1.6 0 .7.5 1.3 1.5 1.3 2.6 0 3.5-2.7 3.8-4.2l2-8.3h8.4z"/><path d="m-397.1 302.1-2.7 11.4h-8.4l2.4-10c.1-.4.2-.9.2-1.4 0-1-.9-1.3-2-1.3-2 0-2.8 1.4-3.2 2.7l-2.4 10h-8.2l4-16.7h7.7l-.7 2.7c1.4-2.3 4.1-3.2 7.3-3.2 3.3 0 6.3 1.4 6.2 4.1 0 .6-.1 1.2-.2 1.7"/></g></g></switch></svg>