<?xml version="1.0" encoding="UTF-8"?>
<svg width="77px" height="31px" viewBox="0 0 77 31" version="1.1" xmlns="http://www.w3.org/2000/svg" xmlns:xlink="http://www.w3.org/1999/xlink">
    <!-- Generator: Sketch 52.6 (67491) - http://www.bohemiancoding.com/sketch -->
    <title>The-Sun-01</title>
    <desc>Created with Sketch.</desc>
    <g id="Avasa-1200" stroke="none" stroke-width="1" fill="none" fill-rule="evenodd" opacity="0.36735026">
        <g id="Extra-large-≥1200px" transform="translate(-977.000000, -754.000000)">
            <g id="Group-25-Copy" transform="translate(88.000000, 705.000000)">
                <g id="The-Sun-01" transform="translate(889.000000, 49.000000)">
                    <polygon id="Fill-1" fill="#000000" points="0 31 77 31 77 0 0 0"></polygon>
                    <polyline id="Fill-2" fill="#FFFFFE" points="40.4603245 8.61111111 38.4967443 8.61111111 39.4906743 4.68737232 38.0769231 4.68737232 38.3918993 3.44444444 43.1538462 3.44444444 42.8397528 4.68737232 41.4542545 4.68737232 40.4603245 8.61111111"></polyline>
                    <polyline id="Fill-3" fill="#FFFFFE" points="47.8155625 8.61111111 45.8275902 8.61111111 46.3189465 6.60044371 44.7859574 6.60044371 44.2946011 8.61111111 42.3076923 8.61111111 43.5688402 3.44444444 45.5559616 3.44444444 45.0909812 5.34946179 46.6239703 5.34946179 47.0889508 3.44444444 49.0769231 3.44444444 47.8155625 8.61111111"></polyline>
                    <polyline id="Fill-4" fill="#FFFFFE" points="53.7824033 8.61111111 49.0769231 8.61111111 50.2947251 3.44444444 55 3.44444444 54.719885 4.63478418 51.8967611 4.63478418 51.7185061 5.38760004 54.0033738 5.38760004 53.7320894 6.53980153 51.4472217 6.53980153 51.2500733 7.3757635 54.0738133 7.3757635 53.7824033 8.61111111"></polyline>
                    <path d="M20.9811688,11.4021587 C20.4229599,9.81360701 18.4037622,9.20603168 16.3737768,9.20603168 C15.1103505,9.20603168 13.4799319,9.54352457 13.4583566,10.6923662 C13.4460882,11.4021587 14.1168274,11.7068276 14.8793675,11.97691 C15.8659103,12.3146232 16.8994112,12.5510004 17.9322776,12.8217437 C19.0544066,13.1257517 20.2224361,13.4295394 21.3445652,13.7342082 C24.7124329,14.6120863 27.423099,16.8767253 27.372122,19.6813088 C27.2733408,25.0884649 20.5056653,27.5555556 14.0984249,27.5555556 C7.69097295,27.5555556 2.39591998,25.9670038 0,21.2698606 L8.68597671,20.019022 C9.6877492,21.9789922 11.7564432,22.384997 14.3731931,22.384997 C15.7269398,22.384997 17.7190625,21.9789922 17.74233,20.7288145 C17.7647515,19.5125624 15.4250966,19.1404831 14.302756,18.8364751 C9.40917353,17.4851818 3.69720892,16.4707204 3.78520245,11.6722412 C3.88250298,6.33293617 9.92084745,4.30555556 16.2379791,4.30555556 C21.6973854,4.30555556 26.8589674,5.7927713 28.7692308,9.91494299 L20.9811688,11.4021587" id="Fill-5" fill="#FFFFFE"></path>
                    <path d="M49.3362371,27.1126914 L41.3713003,27.1126914 L42.1436908,23.9818019 C40.2674656,26.2957447 38.2764936,27.5555556 34.6066945,27.5555556 C31.6534858,27.5555556 28.7260794,26.091619 28.7697125,23.6749476 C28.7873336,22.721991 29.0285746,21.7348656 29.2689764,20.8160778 L31.739913,10.3333333 L40.2406145,10.3333333 L37.921345,19.9310152 C37.7766005,20.4759422 37.6335341,21.0199817 37.6234649,21.5649087 C37.6096198,22.3137396 38.092731,22.8247195 39.1214663,22.8247195 C41.7165895,22.8247195 42.6152644,20.1358066 42.9559386,18.637923 L44.9393587,10.3333333 L53.3076923,10.3333333 L49.3362371,27.1126914" id="Fill-6" fill="#FFFFFE"></path>
                    <path d="M75.8991846,16.1305061 L73.1861125,27.5555556 L64.8175898,27.5555556 L67.192472,17.5208993 C67.288768,17.0797572 67.4320582,16.6054632 67.4396108,16.1643211 C67.4580728,15.181255 66.5691703,14.8424419 65.4054361,14.8424419 C63.3914017,14.8424419 62.5614517,16.1983571 62.2245205,17.5208993 L59.8053715,27.5555556 L51.6153846,27.5555556 L55.6323342,10.8414424 L63.3293023,10.8414424 L62.6539714,13.5537147 C64.0373613,11.2825845 66.7399437,10.3333333 69.9170829,10.3333333 C73.2289107,10.3333333 76.2023388,11.7230635 76.1532467,14.4353359 C76.1425471,15.0119589 76.0431042,15.553883 75.8991846,16.1305061" id="Fill-7" fill="#FFFFFE"></path>
                </g>
            </g>
        </g>
    </g>
</svg>