<svg height="31" viewBox="0 0 77 31" width="77" xmlns="http://www.w3.org/2000/svg"><g fill="none" fill-rule="evenodd" opacity=".36735"><path d="m0 31h77v-31h-77z" fill="#000"/><g fill="#fffffe"><path d="m40.4603245 8.61111111h-1.9635802l.99393-3.92373879h-1.4137512l.3149762-1.24292788h4.7619469l-.3140934 1.24292788h-1.3854983z"/><path d="m47.8155625 8.61111111h-1.9879723l.4913563-2.0106674h-1.5329891l-.4913563 2.0106674h-1.9869088l1.2611479-5.16666667h1.9871214l-.4649804 1.90501735h1.5329891l.4649805-1.90501735h1.9879723z"/><path d="m53.7824033 8.61111111h-4.7054802l1.217802-5.16666667h4.7052749l-.280115 1.19033974h-2.8231239l-.178255.75281586h2.2848677l-.2712844 1.15220149h-2.2848677l-.1971484.83596197h2.82374z"/><path d="m20.9811688 11.4021587c-.5582089-1.58855169-2.5774066-2.19612702-4.607392-2.19612702-1.2634263 0-2.8938449.33749289-2.9154202 1.48633452-.0122684.7097925.6584708 1.0144614 1.4210109 1.2845438.9865428.3377132 2.0200437.5740904 3.0529101.8448337 1.122129.304008 2.2901585.6077957 3.4122876.9124645 3.3678677.8778781 6.0785338 3.1425171 6.0275568 5.9471006-.0987812 5.4071561-6.8664567 7.8742468-13.2736971 7.8742468-6.40745195 0-11.70250492-1.5885518-14.0984249-6.285695l8.68597671-1.2508386c1.00177249 1.9599702 3.07046649 2.365975 5.68721639 2.365975 1.3537467 0 3.3458694-.4060048 3.3691369-1.6561825.0224215-1.2162521-2.3172334-1.5883314-3.439574-1.8923394-4.89358247-1.3512933-10.60554708-2.3657547-10.51755355-7.1642339.09730053-5.33930503 6.135645-7.36668564 12.45277665-7.36668564 5.4594063 0 10.6209883 1.48721574 12.5312517 5.60938743z"/><path d="m49.3362371 27.1126914h-7.9649368l.7723905-3.1308895c-1.8762252 2.3139428-3.8671972 3.5737537-7.5369963 3.5737537-2.9532087 0-5.8806151-1.4639366-5.836982-3.880608.0176211-.9529566.2588621-1.940082.4992639-2.8588698l2.4709366-10.4827445h8.5007015l-2.3192695 9.5976819c-.1447445.544927-.2878109 1.0889665-.2978801 1.6338935-.0138451.7488309.4692661 1.2598108 1.4980014 1.2598108 2.5951232 0 3.4937981-2.6889129 3.8344723-4.1867965l1.9834201-8.3045897h8.3683336z"/><path d="m75.8991846 16.1305061-2.7130721 11.4250495h-8.3685227l2.3748822-10.0346563c.096296-.4411421.2395862-.9154361.2471388-1.3565782.018462-.9830661-.8704405-1.3218792-2.0341747-1.3218792-2.0140344 0-2.8439844 1.3559152-3.1809156 2.6784574l-2.419149 10.0346563h-8.1899869l4.0169496-16.7141132h7.6969681l-.6753309 2.7122723c1.3833899-2.2711302 4.0859723-3.2203814 7.2631115-3.2203814 3.3118278 0 6.2852559 1.3897302 6.2361638 4.1020026-.0106996.576623-.1101425 1.1185471-.2540621 1.6951702"/></g></g></svg>