<?xml version="1.0" encoding="utf-8"?>
<!-- Generator: Adobe Illustrator 19.0.0, SVG Export Plug-In . SVG Version: 6.00 Build 0)  -->
<svg version="1.1" id="Layer_1" xmlns="http://www.w3.org/2000/svg" xmlns:xlink="http://www.w3.org/1999/xlink" x="0px" y="0px"
	 viewBox="0 0 144 144" style="enable-background:new 0 0 144 144;" xml:space="preserve">
<style type="text/css">
	.st0{display:none;}
	.st1{display:inline;fill:#3C2415;}
	.st2{display:inline;fill:#53C7DE;}
	.st3{display:inline;fill:#54C7DE;}
	.st4{display:inline;fill:#F4FAFB;}
	.st5{display:inline;fill:#FAFDFD;}
	.st6{display:inline;fill:#FBFEFF;}
	.st7{display:inline;fill:#51C6DD;}
	.st8{display:inline;fill:#7D898C;}
	.st9{display:inline;}
	.st10{fill:#FFFFFF;}
	.st11{fill:#7D898C;}
	.st12{display:inline;fill:#4CC6DD;}
	.st13{display:inline;fill:#4AC5DD;}
	.st14{fill:#4AC5DD;}
	.st15{fill:#004D87;}
	.st16{fill:none;}
</style>
<g id="Layer_4" class="st0">
	<rect class="st1" width="144" height="144"/>
</g>
<g id="Layer_1_1_" class="st0">
	<path class="st2" d="M0,22c1.6-2.8,3-5.8,5-8.4C11.7,4.5,22.8,1,33.1,4.5c10.5,3.5,17.4,12.8,17.4,24c0.1,16.4,0,32.8,0.1,49.2
		c0,4.5-1.7,6.2-6.2,6.2c-12.9-0.2-25.8,0-38.7-0.1c-1.9,0-3.8-0.7-5.7-1.1C0,62.4,0,42.2,0,22z M42.7,45.3c-11.9,0-23.2,0-34.6,0
		c0,10.4,0,20.4,0,31.1c10.8,0,21.3,0.1,31.9-0.1c0.9,0,2.6-2,2.6-3.1C42.8,64,42.7,55,42.7,45.3z M24.8,37.1
		c4.8,0,9.6,0.2,14.4-0.1c1.2-0.1,3.2-1.4,3.3-2.3c1-7.7-1.1-14.4-7.8-19C29,11.7,21,12,15.1,16.1c-5.9,4-8.9,11.7-7.1,18.8
		c0.3,1,2.2,2.1,3.5,2.2C15.9,37.3,20.4,37.1,24.8,37.1z"/>
	<path class="st3" d="M70.5,82.2c-11.4-18.5-10.3-31.9,3.3-43.9c11.7-10.4,30-10.6,42.4-0.5c13.5,11,14.8,24.9,4,44.2
		c3.4,2.5,7.1,4.7,10.2,7.6c7.6,7.3,11.8,16.2,11.8,26.9c0,6.3-0.1,12.6,0,18.9c0.1,3.9-1.6,5.8-5.6,5.7c-27.8-0.1-55.6,0-83.4,0
		c-3.7,0-5.5-1.6-5.4-5.4c0.1-7.4-0.4-14.9,0.2-22.3c1.1-12.7,7.5-22.3,18.4-29C67.6,83.7,68.9,83,70.5,82.2z M94.7,133.1
		c11.6,0,23.2-0.1,34.7,0.1c3.7,0.1,5-1.1,4.8-4.8c-0.3-4.3,0.1-8.6-0.2-12.9c-0.9-12.2-7-20.8-18.1-25.6c-2.1-0.9-5.2-0.6-7.4,0.3
		c-8.5,3.5-17.2,4.3-25.5,0.5c-5.4-2.5-9.4-1.4-13.7,1.4c-5.9,3.9-10.6,8.9-11.9,15.8c-1.3,6.9-1.2,14.1-1.7,21.1
		c-0.3,3.3,1.2,4.3,4.3,4.2C71.6,133,83.2,133.1,94.7,133.1z M69.7,60c-0.2,13.6,11.6,25.5,25.2,25.5c13.5-0.1,24.9-11.4,25.1-25
		C120.2,46.9,109,35.3,95.4,35C81.6,34.8,69.9,46.2,69.7,60z"/>
	<path class="st4" d="M42.7,45.3c0,9.6,0.1,18.7-0.1,27.8c0,1.1-1.7,3.1-2.6,3.1c-10.5,0.2-21.1,0.1-31.9,0.1c0-10.6,0-20.7,0-31.1
		C19.5,45.3,30.8,45.3,42.7,45.3z M28.9,61.3c0-2.3,0.4-4.7-0.1-6.9c-0.4-1.4-2.4-3.5-3.2-3.3c-1.5,0.3-3.5,2.1-3.7,3.4
		c-0.5,4.2-0.5,8.6,0,12.8c0.1,1.3,2.3,2.5,3.5,3.7c1.2-1.3,3-2.3,3.5-3.8C29.4,65.4,28.9,63.3,28.9,61.3z"/>
	<path class="st5" d="M24.8,37.1c-4.5,0-8.9,0.2-13.4-0.1c-1.2-0.1-3.2-1.2-3.5-2.2c-1.8-7,1.2-14.7,7.1-18.8
		C21,12,29,11.7,34.7,15.6c6.7,4.6,8.8,11.3,7.8,19c-0.1,0.9-2.1,2.3-3.3,2.3C34.4,37.3,29.6,37.1,24.8,37.1z"/>
	<path class="st6" d="M94.7,133.1c-11.6,0-23.2-0.1-34.7,0.1c-3.2,0-4.6-0.9-4.3-4.2c0.6-7,0.5-14.2,1.7-21.1
		c1.3-6.9,6-12,11.9-15.8c4.3-2.8,8.3-3.9,13.7-1.4c8.3,3.8,17,3,25.5-0.5c2.2-0.9,5.3-1.2,7.4-0.3c11.1,4.8,17.3,13.5,18.1,25.6
		c0.3,4.3-0.1,8.6,0.2,12.9c0.2,3.7-1.1,4.9-4.8,4.8C117.9,133,106.3,133.1,94.7,133.1z"/>
	<path class="st6" d="M69.7,60c0.2-13.8,11.9-25.3,25.6-25c13.6,0.3,24.9,11.9,24.7,25.4c-0.2,13.6-11.6,25-25.1,25
		C81.3,85.5,69.6,73.7,69.7,60z"/>
	<path class="st7" d="M28.9,61.3c0,2,0.5,4.1-0.1,5.9c-0.5,1.5-2.3,2.6-3.5,3.8c-1.2-1.2-3.3-2.4-3.5-3.7c-0.4-4.2-0.5-8.6,0-12.8
		c0.2-1.3,2.2-3.1,3.7-3.4c0.8-0.2,2.9,1.9,3.2,3.3C29.3,56.6,28.9,59,28.9,61.3z"/>
</g>
<g id="Layer_2" class="st0">
	<path class="st8" d="M80.9,112.7C80.8,95,94.3,81.1,111.8,80.9c17.9-0.2,32.1,13.6,32.2,31c0.1,17.7-13.8,32-31.2,32.1
		C95,144.1,81,130.4,80.9,112.7z M85,112.3c0,15.2,12.4,27.7,27.6,27.7c14.8,0,27.4-12.6,27.4-27.4c0.1-15.1-12.5-27.6-27.7-27.6
		C97.3,85,85,97.3,85,112.3z"/>
	<path class="st8" d="M80.9,31.7C80.8,14,94.3,0.1,111.8,0c17.9-0.1,32.1,13.6,32.2,31c0.1,17.7-13.8,32-31.2,32.1
		C95,63.2,81,49.5,80.9,31.7z M85,31.4c0,15.2,12.4,27.7,27.6,27.7c14.8,0,27.4-12.6,27.4-27.4C140,16.5,127.5,4,112.3,4
		C97.3,4.1,85,16.4,85,31.4z"/>
	<path class="st8" d="M0.2,31.8C0.1,14.1,13.6,0.2,31,0c17.9-0.1,32.1,13.6,32.2,31c0.1,17.7-13.8,32-31.2,32.1
		C14.2,63.2,0.3,49.5,0.2,31.8z M4.2,31.4c0,15.2,12.4,27.7,27.6,27.7c14.8,0,27.4-12.6,27.4-27.4C59.3,16.5,46.7,4,31.6,4.1
		C16.5,4.1,4.2,16.4,4.2,31.4z"/>
	<path class="st8" d="M0,112.5c-0.1-17.7,13.4-31.6,30.8-31.7c17.9-0.1,32.1,13.6,32.2,31c0.1,17.7-13.8,32-31.2,32.1
		C14,143.9,0.1,130.2,0,112.5z M4,112.2c0,15.3,12.4,27.7,27.6,27.7c14.8,0,27.4-12.6,27.4-27.4c0.1-15.1-12.5-27.6-27.7-27.6
		C16.3,84.9,4,97.2,4,112.2z"/>
</g>
<g id="Layer_3" class="st0">
	<g class="st9">
		<path class="st10" d="M92.8,70.8C75,88.4,58.1,105.2,41.2,122c-2.2,2.2-4.5,4.2-6.4,6.6c-3.8,4.6-0.4,14.5,5.3,15.4
			c1.6,0.3,3.9-0.9,5.1-2.1c21.1-21.6,42.1-43.2,63-64.9c4-4.2,3.9-8.2-0.3-12.4C87.2,43.8,66.2,23.1,45.4,2.3
			c-2.6-2.6-5-3.4-7.9-0.6c-4.6,4.4-6,9.7-3.1,13.4c1.1,1.4,2.5,2.6,3.8,3.9c16.4,15.8,32.8,31.5,49.3,47.2
			C88.8,67.6,90.4,68.8,92.8,70.8z"/>
	</g>
</g>
<g id="Layer_5" class="st0">
	<rect x="30.7" class="st8" width="79.9" height="3.4"/>
	<rect y="77.9" class="st8" width="144.3" height="3.4"/>
	<rect y="140.6" class="st8" width="144.3" height="3.4"/>
	<rect x="30.7" class="st8" width="3.4" height="79.6"/>
	<rect x="70.3" class="st8" width="3.4" height="75.8"/>
	<rect x="61.6" y="11" class="st8" width="2.6" height="61.9"/>
	<g class="st9">
		<rect x="3.3" y="86.3" class="st11" width="2.6" height="48.4"/>
		<rect x="12.7" y="86.3" class="st11" width="2.6" height="48.4"/>
		<rect x="22.2" y="86.3" class="st11" width="2.6" height="48.4"/>
		<rect x="31.7" y="86.3" class="st11" width="2.6" height="48.4"/>
		<rect x="41.1" y="86.3" class="st11" width="2.6" height="48.4"/>
		<rect x="50.6" y="86.3" class="st11" width="2.6" height="48.4"/>
		<rect x="60" y="86.3" class="st11" width="2.6" height="48.4"/>
		<rect x="69.5" y="86.3" class="st11" width="2.6" height="48.4"/>
	</g>
	<rect x="79" y="86.3" class="st8" width="2.6" height="48.4"/>
	<rect x="88.4" y="86.3" class="st8" width="2.6" height="48.4"/>
	<rect x="97.9" y="86.3" class="st8" width="2.6" height="48.4"/>
	<rect x="107.4" y="86.3" class="st8" width="2.6" height="48.4"/>
	<rect x="116.8" y="86.3" class="st8" width="2.6" height="48.4"/>
	<rect x="126.3" y="86.3" class="st8" width="2.6" height="48.4"/>
	<rect x="135.7" y="86.3" class="st8" width="2.6" height="48.4"/>
	<rect x="41.8" y="11" class="st8" width="22.4" height="2.6"/>
	<rect x="41.8" y="70.3" class="st8" width="22.4" height="2.6"/>
	<rect x="41.8" y="11" class="st8" width="2.6" height="61.9"/>
	<g class="st9">
		<rect x="98.1" y="11" class="st11" width="2.6" height="61.9"/>
		<rect x="78.3" y="11" class="st11" width="22.4" height="2.6"/>
		<rect x="78.3" y="70.3" class="st11" width="22.4" height="2.6"/>
		<rect x="78.3" y="11" class="st11" width="2.6" height="61.9"/>
	</g>
	<rect x="107.2" class="st8" width="3.4" height="79.6"/>
</g>
<g id="Layer_6" class="st0">
	<path class="st12" d="M1,72.5c-0.6-3.2-0.9-6.4-0.8-10c0.1-8.2,0.9-16.4,4.2-23.9c3.6-8.5,9.3-16.7,16.9-22
		c4.2-2.9,9.5-5.5,14.4-6.9c23.2-6.5,47.4-6.8,70.6-0.4c27.1,7.4,42,35.7,36.5,63.3c-5.3,26.8-30,42.5-54.1,44.2
		c-3.8,0.3-8.1,1.8-11.1,4.1c-7.3,5.6-13.6,12.5-21,17.8c-2.6,1.8-8.1,1.8-10.9,0.2c-1.9-1.1-2.5-6.5-2-9.7
		c1.8-10.7,0.9-12.9-8.8-17c-2.5-1.1-4.9-2.3-7.4-3.6c-7-3.6-12.9-9-17.4-15.5C8.1,89.9,6.2,86.5,4.5,83C2.8,79.4,1.7,76,1,72.5z"/>
</g>
<g id="Layer_7" class="st0">
	<path class="st13" d="M78.1,6.2v116.5l45.3-45.5c2.4-2.4,6.3-2.4,8.7,0c2.4,2.4,2.4,6.4,0,8.8l-55.8,56.2c-2.4,2.4-6.3,2.4-8.7,0
		L11.7,86c-1.2-1.2-1.8-2.8-1.8-4.4c0-1.6,0.6-3.2,1.8-4.4c2.4-2.4,6.3-2.4,8.7,0l45.3,45.5V6.2c0-3.4,2.8-6.2,6.2-6.2
		C75.3,0,78.1,2.8,78.1,6.2z"/>
</g>
<g id="Layer_8" class="st0">
	<g class="st9">
		<path class="st14" d="M28.3,124c-2.7-0.5-4.9-2-6.9-3.9c-2.1-2-3.4-4.4-3.8-7.3c-0.3-1.9-0.3-4-0.1-5.9c-5.5-2.5-6.9-7-6.6-12.8
			c0.3-6.6,0.1-13.3,0.1-19.9c0-4.6,2.1-7.4,6.1-9.9c2.7-1.6,4.7-4.7,6.3-7.5c1.9-3.3,4.2-4.5,8.1-4.5c26.9,0.2,53.8,0.2,80.7,0
			c3.5,0,5.5,0.9,6.8,4.3c1.4,3.8,3,7.3,7.1,9.6c1.9,1.1,3.2,4.8,3.4,7.4c0.4,7.9,0.9,15.8-0.1,23.6c-0.7,5.6-1.9,11.2-2.8,16.8
			c-1,5.8-7.3,9.4-13.6,8.8c-6.3-0.6-11-5.5-11.6-12.2c-0.1-1,0-2,0-3.3c-19.3,0-38.3,0-57.6,0c-0.1,0.4-0.3,0.8-0.3,1.3
			c0.3,4.9-1.3,10.5-5.7,13.2c-2.3,1.4-5,2.6-7.7,2.5C29.3,124.2,28.8,124.1,28.3,124z M70.3,68.7c-16.6,0-33.2,0-49.9,0
			c-4.8,0-5.6,0.8-5.6,5.7c0,6.9,0,13.7,0,20.6c0,6.6,1.5,8.1,8.2,8.1c22.1,0,44.2,0,66.4,0c9.9,0,19.7,0,29.6,0
			c4.5,0,6.6-1.9,6.7-6.3c0.1-7.7,0.1-15.5,0-23.2c-0.1-3.1-1.5-4.9-5.1-4.9C103.8,68.8,87,68.7,70.3,68.7z M117.3,64
			c-1.6-7.1-2.5-7.8-8.8-7.8c-24.9,0-49.8,0-74.6,0c-5.9,0-8.1,1.8-9.7,7.8C55.1,64,86.1,64,117.3,64z M30.1,109.4
			c-2.4,0-4.7-0.2-7.1,0.1c-0.8,0.1-2,1.5-2,2.2c0.2,3.9,4.2,7.7,8,8.1c4.6,0.4,8.4-2.1,9.8-6.3c0.9-2.8,0.5-4.4-2.9-4.2
			C34.1,109.5,32.1,109.4,30.1,109.4z M105.3,108.6c-0.6,5.6,2.7,9.7,8,10.4c4.5,0.6,9.3-3.2,9.8-7.8c0.1-0.8-1.2-2.5-1.9-2.5
			C115.9,108.5,110.6,108.6,105.3,108.6z"/>
		<path class="st14" d="M108.5,20c1.9,0.3,3.6,0.9,5.1,2c2.4,1.9,3.6,5,4.1,8c0.3,1.7,0.5,3.6,0.4,5.3c-0.2,4-0.3,7.3-0.3,9.4
			c0,2.6-1.1,3.2-1.8,4.2c-0.7-1-1.9-2-1.9-3.1c-0.2-4.5,0-9-0.1-13.5c-0.1-6.4-2.6-8.8-9-8.8c-22.3,0-44.5,0-66.8,0
			c-6.2,0-7.1,0.8-7.4,7.1c-0.2,4.9,0,9.8-0.2,14.6c0,1-1,1.9-1.6,2.9c-0.7-0.9-1.9-1.8-1.9-2.7c0-6.2,0-12.5,0.4-18.7
			c0.2-4,2.7-6.3,6.7-6.8c2.3-0.3,4.9,0,7.3,0c2.5,0,5,0,7.5,0c5.1,0,10.1,0,15.2,0c10.1,0,20.2,0,30.3,0c2.9,0,5.8,0,8.7-0.1
			C104.9,19.8,106.8,19.8,108.5,20z"/>
		<path class="st14" d="M0.6,45.6c0.2-0.5,0.5-1,0.7-1.4c2-2.9,5.8-3.6,9.1-3.2c1.6,0.2,3.2,0,4.9,0c6.7,0,10,4.7,7.1,10.7
			c-0.8,1.7-3.2,3.2-5.1,3.5c-3.4,0.6-7.1,0.6-10.4,0C2.3,54.3-1.2,50.2,0.6,45.6z M11.8,51.5c1.5,0,3-0.1,4.5,0
			c2.4,0.1,2.9-1.3,2.9-3.3c0-1.9-0.3-3.5-2.7-3.5c-2.9,0-5.7,0-8.6,0c-2.7,0-2.8,1.7-2.9,3.7c0,2.2,0.8,3.2,3.1,3.1
			C9.4,51.5,10.6,51.5,11.8,51.5z"/>
		<path class="st14" d="M142.9,51.4c-0.6,1.4-1.7,2.5-3.2,3.2c-1.6,0.7-3.8,1-5.6,0.8c-2.6-0.3-5.2,0.1-7.9-0.1
			c-3.6-0.2-5-2.3-5-6.9c0-5,1.2-7.1,4.9-7.3c3.9-0.2,7.8-0.5,11.6,0.2c2.7,0.5,5.1,3.4,5.6,5.9C143.6,48.6,143.5,50.1,142.9,51.4z
			 M132,51.5c1,0,2-0.1,3,0c2.4,0.2,4.2-0.3,4.1-3.3c0-2.8-1.5-3.7-4-3.6c-2.2,0.1-4.5,0.1-6.7,0c-2.7-0.1-3.4,1.1-3.4,3.6
			c0,2.4,0.9,3.4,3.3,3.3C129.5,51.5,130.8,51.5,132,51.5z"/>
		<path class="st14" d="M70.3,92.8c-7.6,0-15.2-0.1-22.9,0.1c-3,0.1-4.1-1.2-4-4c0-4.1,0-8.2,0-12.4c0-2.6,1.2-3.4,3.7-3.4
			c15.5,0.1,31,0.1,46.5,0c2.7,0,3.8,1,3.7,3.8c-0.2,4-0.1,8,0,12c0.1,2.9-1.2,4-4.1,3.9C85.5,92.7,77.9,92.8,70.3,92.8z M47.2,89
			c12.9,0,25.1,0,37.3,0c9.8,0,10.1-0.3,8.8-10.2c-0.1-0.9-1.6-2.2-2.5-2.2c-13.7-0.1-27.4-0.1-41.1,0c-0.8,0-2.3,1.2-2.3,2
			C47,81.8,47.2,85.2,47.2,89z"/>
		<path class="st14" d="M29.2,92.8c-5.8-0.1-10.7-5.1-10.6-10.9c0-6,5.1-11,11.1-10.8c5.9,0.2,10.6,5.2,10.5,11.1
			C40,87.9,34.9,92.8,29.2,92.8z M22.8,82c0.1,4,3,7,6.8,6.9c3.6-0.1,6.9-3.7,6.8-7.2c-0.1-3.6-3.5-6.9-7.1-6.8
			C25.3,75,22.7,77.8,22.8,82z"/>
		<path class="st14" d="M102.5,80.9c0-5.9,4.8-10.6,10.8-10.6c6,0,10.8,4.8,10.8,10.7c0,5.8-5.1,10.9-10.7,11
			C107.5,92,102.5,86.9,102.5,80.9z M113.4,88.1c3.4-0.1,7-3.7,6.9-7.1c-0.1-3.7-3.3-6.9-7-6.9c-4,0-7.1,3.1-7,7.1
			C106.5,84.8,109.9,88.1,113.4,88.1z"/>
	</g>
</g>
<g id="Layer_9" class="st0">
	<g class="st9">
		<rect x="30.7" y="14.2" class="st14" width="3.4" height="126.4"/>
		<rect x="53.9" y="109.6" class="st14" width="3.4" height="31"/>
		<g>
			<rect x="43" y="89.4" class="st14" width="3.4" height="13.1"/>
			<rect x="52.2" y="89.4" class="st14" width="3.4" height="13.1"/>
			<rect x="43" y="89.4" class="st14" width="12.6" height="3.4"/>
			<rect x="43" y="99.1" class="st14" width="12.6" height="3.4"/>
		</g>
		<g>
			<rect x="66.8" y="89.4" class="st14" width="3.4" height="13.1"/>
			<rect x="75.9" y="89.4" class="st14" width="3.4" height="13.1"/>
			<rect x="66.8" y="89.4" class="st14" width="12.6" height="3.4"/>
			<rect x="66.8" y="99.1" class="st14" width="12.6" height="3.4"/>
		</g>
		<g>
			<rect x="89.5" y="89.4" class="st14" width="3.4" height="13.1"/>
			<rect x="98.7" y="89.4" class="st14" width="3.4" height="13.1"/>
			<rect x="89.5" y="89.4" class="st14" width="12.6" height="3.4"/>
			<rect x="89.5" y="99.1" class="st14" width="12.6" height="3.4"/>
		</g>
		<g>
			<rect x="43" y="68.1" class="st14" width="3.4" height="13.1"/>
			<rect x="52.2" y="68.1" class="st14" width="3.4" height="13.1"/>
			<rect x="43" y="68.1" class="st14" width="12.6" height="3.4"/>
			<rect x="43" y="77.8" class="st14" width="12.6" height="3.4"/>
		</g>
		<g>
			<rect x="66.8" y="68.1" class="st14" width="3.4" height="13.1"/>
			<rect x="75.9" y="68.1" class="st14" width="3.4" height="13.1"/>
			<rect x="66.8" y="68.1" class="st14" width="12.6" height="3.4"/>
			<rect x="66.8" y="77.8" class="st14" width="12.6" height="3.4"/>
		</g>
		<g>
			<rect x="89.5" y="68.1" class="st14" width="3.4" height="13.1"/>
			<rect x="98.7" y="68.1" class="st14" width="3.4" height="13.1"/>
			<rect x="89.5" y="68.1" class="st14" width="12.6" height="3.4"/>
			<rect x="89.5" y="77.8" class="st14" width="12.6" height="3.4"/>
		</g>
		<g>
			<rect x="43" y="46.8" class="st14" width="3.4" height="13.1"/>
			<rect x="52.2" y="46.8" class="st14" width="3.4" height="13.1"/>
			<rect x="43" y="46.8" class="st14" width="12.6" height="3.4"/>
			<rect x="43" y="56.5" class="st14" width="12.6" height="3.4"/>
		</g>
		<g>
			<rect x="66.8" y="46.8" class="st14" width="3.4" height="13.1"/>
			<rect x="75.9" y="46.8" class="st14" width="3.4" height="13.1"/>
			<rect x="66.8" y="46.8" class="st14" width="12.6" height="3.4"/>
			<rect x="66.8" y="56.5" class="st14" width="12.6" height="3.4"/>
		</g>
		<g>
			<rect x="89.5" y="46.8" class="st14" width="3.4" height="13.1"/>
			<rect x="98.7" y="46.8" class="st14" width="3.4" height="13.1"/>
			<rect x="89.5" y="46.8" class="st14" width="12.6" height="3.4"/>
			<rect x="89.5" y="56.5" class="st14" width="12.6" height="3.4"/>
		</g>
		<g>
			<rect x="43" y="25.5" class="st14" width="3.4" height="13.1"/>
			<rect x="52.2" y="25.5" class="st14" width="3.4" height="13.1"/>
			<rect x="43" y="25.5" class="st14" width="12.6" height="3.4"/>
			<rect x="43" y="35.2" class="st14" width="12.6" height="3.4"/>
		</g>
		<g>
			<rect x="66.8" y="25.5" class="st14" width="3.4" height="13.1"/>
			<rect x="75.9" y="25.5" class="st14" width="3.4" height="13.1"/>
			<rect x="66.8" y="25.5" class="st14" width="12.6" height="3.4"/>
			<rect x="66.8" y="35.2" class="st14" width="12.6" height="3.4"/>
		</g>
		<g>
			<rect x="89.5" y="25.5" class="st14" width="3.4" height="13.1"/>
			<rect x="98.7" y="25.5" class="st14" width="3.4" height="13.1"/>
			<rect x="89.5" y="25.5" class="st14" width="12.6" height="3.4"/>
			<rect x="89.5" y="35.2" class="st14" width="12.6" height="3.4"/>
		</g>
		<rect x="70.3" y="109.6" class="st14" width="3.4" height="31"/>
		<rect x="86.8" y="109.6" class="st14" width="3.4" height="31"/>
		<rect x="30.7" y="14.2" class="st14" width="82.5" height="3.4"/>
		<rect x="9.1" y="140.6" class="st14" width="125.7" height="3.4"/>
		<rect x="53.9" y="109.6" class="st14" width="36.4" height="3.4"/>
		<rect x="42.6" class="st14" width="59.8" height="3.4"/>
		<rect x="109.8" y="14.2" class="st14" width="3.4" height="126.4"/>
		<rect x="99" class="st14" width="3.4" height="14.2"/>
		<rect x="42.6" class="st14" width="3.4" height="14.2"/>
	</g>
</g>
<path class="st15" d="M0.7,104.5c-0.4-0.8,0-3.1,0-4c0-1.4,0-2.8,0-4.1c0-4.1,0-8.1-0.1-12.2c0-3.7-1.4-9,2.1-11.6
	c1.6-1.2,3.6,0,4.9-1.7c1-1.3,0.8-3.6,1-5.1c0.2-2.2,0.4-4.6,0.3-6.8c-0.2-3.7,0-7.5,0-11.2c0-8.6,0-17.1-0.1-25.7
	c0-3.9,1.5-5.4,5.3-5.4c37.8,0.1,75.6,0.1,113.4,0c4,0,5.5,1.5,5.5,5.6c-0.2,14.5,0,29-0.1,43.5c0,3.7,0.3,6,5,5.8
	c3.7-0.2,5.8,2.3,5.8,6c0.1,8,0.1,16,0,24c0,5-3.4,6.5-7.6,6.7c-4.1,0.2-8.3,0-13.3,0c0,5.1-0.1,9.8,0,14.6c0.1,3.2-1.1,4.6-4.4,4.5
	c-4.3-0.1-8.7-0.1-13,0c-3.1,0-4.6-1.5-4.5-4.6c0-4.5,0-9,0-14.1c-1.8-0.1-3.4-0.4-5-0.4c-16.5,0-33,0.1-49.5-0.1
	c-4-0.1-5,1.2-5,5.1c0.1,13.2-0.1,13.2-13.1,13.3c-2.3,0-5.1,0.1-7.1-1.2c-2.9-1.9-2.2-5.2-2.2-8.3c0-0.7,0.5-8.5-0.4-8.4
	c-2.7,0.2-5.6-0.3-8.3-0.3C6.6,108.3,2.8,108.5,0.7,104.5z M138.8,103.4c0-8.7,0-16.7,0-24.7c0-3-1.8-2.7-4-2.7
	c-42,0.1-83.9,0.2-125.9,0c-3.5,0-4.4,0.9-4.3,4c0.1,6,0.3,12-0.1,18c-0.3,4.6,1.4,5.5,5.7,5.5c41-0.2,81.9-0.1,122.9-0.1
	C134.7,103.4,136.3,103.4,138.8,103.4z M128.4,21.9c-38.5,0-76.5,0-114.4,0c0,13.6,0,26.7,0,40.2c3.6-2.3,6.7-4.4,9.9-6.5
	c-0.3-0.9-0.5-1.5-0.7-2.1c-3-9,0.7-14.1,10.3-14.1c8.3,0,16.6,0.1,25,0c4.3-0.1,7.2,1.7,9.2,5.6c0.7,1.3,2.8,2.6,4.3,2.5
	c1.5,0,3.6-1.3,4.2-2.6c1.9-3.7,4.6-5.5,8.7-5.5c9.2,0.1,18.3-0.1,27.5,0c6.9,0.1,10.8,5.5,8.8,12.2c-0.5,1.7-1.4,3.2-2.2,5.1
	c3.1,1.9,6.1,3.8,9.5,5.8C128.4,48.7,128.4,35.6,128.4,21.9z M13.6,70.1c38.5,0,76,0,114.7,0c-6.3-7.2-13.1-11.1-21.6-11.6
	c-7-0.4-14,0.2-20.9-0.2c-2.6-0.1-5.6-1.3-7.5-3c-4.4-3.8-8.3-3.8-12.8-0.1c-2,1.7-4.9,2.9-7.5,3.1c-7,0.4-14,0.4-20.9,0.1
	C27.2,57.8,20.3,62.6,13.6,70.1z M45.3,53.5c4.2,0,8.3-0.1,12.5,0c3.5,0.1,5.4-1.3,5.7-4.7c0.2-3.8-2.3-5-5.4-5.1
	c-8.8-0.1-17.6-0.1-26.5,0c-3.1,0-4.9,1.9-4.9,5.1c0,3.3,1.9,4.7,5.1,4.7C36.4,53.5,40.8,53.5,45.3,53.5z M98.5,53.5
	c4.7,0,9.4,0.4,14-0.2c1.6-0.2,3.9-2.7,4-4.3c0.1-1.6-2.1-4.8-3.3-4.9c-9.6-0.4-19.3-0.4-28.9-0.1c-3.1,0.1-3.8,2.6-3.7,5.4
	c0.2,2.9,1.7,4.1,4.5,4.1C89.5,53.5,94,53.5,98.5,53.5z M106,122.2c4.4,0,8.2,0,12.2,0c0-4.7,0-9,0-13.4c-4.3,0-8.2,0-12.2,0
	C106,113.4,106,117.7,106,122.2z M36.7,108.7c-4.6,0-8.4,0-12.9,0c0,2.3,0,13.4,0,13.4l12.9,0C36.7,121.1,36.7,111.8,36.7,108.7z"/>
<path class="st16" d="M-145.1-3c-4.5,0-9,0-13.5,0c-3.2,0-5.1-1.4-5.1-4.7c0-3.2,1.7-5.1,4.9-5.1c8.8-0.1,17.6-0.1,26.5,0
	c3.1,0.1,5.6,1.3,5.4,5.1c-0.2,3.5-2.2,4.9-5.7,4.7C-136.8-3.1-141-3-145.1-3z"/>
</svg>
