<?xml version="1.0" encoding="utf-8"?>
<!-- Generator: Adobe Illustrator 16.0.0, SVG Export Plug-In . SVG Version: 6.00 Build 0)  -->
<!DOCTYPE svg PUBLIC "-//W3C//DTD SVG 1.1//EN" "http://www.w3.org/Graphics/SVG/1.1/DTD/svg11.dtd">
<svg version="1.1" id="Layer_1" xmlns="http://www.w3.org/2000/svg" xmlns:xlink="http://www.w3.org/1999/xlink" x="0px" y="0px"
	 width="7px" height="10px" viewBox="1.5 -1.5 7 10" enable-background="new 1.5 -1.5 7 10" xml:space="preserve">
<title>bullseye copy 2</title>
<desc>Created with Sketch.</desc>
<g id="Symbols">
	<g id="Search" transform="translate(-284.000000, -20.000000)">
		<g id="Group-38">
			<g id="Group-34">
				<g id="angle-down" transform="translate(281.000000, 15.000000)">
					<defs>
						<filter id="Adobe_OpacityMaskFilter" filterUnits="userSpaceOnUse" x="-0.51" y="0.51" width="17.34" height="16.32">
							<feColorMatrix  type="matrix" values="1 0 0 0 0  0 1 0 0 0  0 0 1 0 0  0 0 0 1 0"/>
						</filter>
					</defs>
					<mask maskUnits="userSpaceOnUse" x="-0.51" y="0.51" width="17.34" height="16.32" id="mask-2">
						<g filter="url(#Adobe_OpacityMaskFilter)">
							<path id="path-1" fill="#FFFFFF" d="M10.878,9.108L7.04,12.721c-0.266,0.25-0.694,0.25-0.957,0l-0.638-0.6
								c-0.266-0.25-0.266-0.653,0-0.9L8.166,8.66L5.445,6.099c-0.266-0.249-0.266-0.653,0-0.9l0.638-0.601
								c0.265-0.25,0.694-0.25,0.957,0l3.838,3.613C11.144,8.455,11.144,8.859,10.878,9.108z"/>
						</g>
					</mask>
					<g id="_xD83C__xDFA8_-color" mask="url(#mask-2)">
						<rect id="_xD83C__xDFA8_-Color" x="-0.51" y="0.51" fill="#49C6DE" width="17.34" height="16.32"/>
					</g>
				</g>
			</g>
		</g>
	</g>
</g>
</svg>
