<svg height="18" viewBox="0 0 16 18" width="16" xmlns="http://www.w3.org/2000/svg" xmlns:xlink="http://www.w3.org/1999/xlink"><filter id="a" height="134.2%" width="103.1%" x="-1.6%" y="-17.1%"><feOffset dx="0" dy="1" in="SourceAlpha" result="shadowOffsetOuter1"/><feGaussianBlur in="shadowOffsetOuter1" result="shadowBlurOuter1" stdDeviation="1"/><feColorMatrix in="shadowBlurOuter1" result="shadowMatrixOuter1" type="matrix" values="0 0 0 0 0 0 0 0 0 0 0 0 0 0 0 0 0 0 0.5 0"/><feMerge><feMergeNode in="shadowMatrixOuter1"/><feMergeNode in="SourceGraphic"/></feMerge></filter><mask id="b" fill="#fff"><path d="m12.6972656 9.37207031c-.0058593-1.07519531.4804688-1.88671876 1.4648438-2.48437501-.5507813-.78808594-1.3828125-1.22167969-2.4814453-1.30664063-1.0400391-.08203125-2.17675785.60644532-2.59277347.60644532-.43945313 0-1.44726564-.57714844-2.23828127-.57714844-1.63476563.02636718-3.37207033 1.30371094-3.37207033 3.90234377 0 .76757808.14062501 1.56152348.42187501 2.37890628.375 1.0751953 1.72851563 3.7119141 3.14062501 3.6679687.73828126-.0175781 1.25976563-.524414 2.22070314-.524414.93164061 0 1.41503911.524414 2.23828121.524414 1.4238282-.0205078 2.6484376-2.4169922 3.0058594-3.4951172-1.9101562-.899414-1.8076172-2.63671872-1.8076172-2.69238279zm-1.6582031-4.81054689c.7998047-.94921876.7265625-1.81347658.703125-2.12402345-.7060547.04101562-1.5234375.48046875-1.98925781 1.02246094-.51269531.58007813-.81445313 1.29785157-.75 2.10644532.76464844.05859375 1.46191411-.33398437 2.03613281-1.00488281z" fill="#fff" fill-rule="evenodd"/></mask><g fill="none" fill-rule="evenodd" filter="url(#a)" transform="translate(-369 -11)"><g fill="#49c6de" fill-rule="evenodd" mask="url(#b)" transform="translate(368 10)"><path d="m0 0h18v18h-18z" fill-rule="nonzero"/></g></g></svg>