<svg height="39" viewBox="0 0 66 39" width="66" xmlns="http://www.w3.org/2000/svg"><g fill="none" fill-rule="evenodd" stroke-linecap="round" stroke-linejoin="round" stroke-width="2.6" transform="translate(2 2)"><path d="m15.5 35h31v-35h-31z" stroke="#004d88"/><g stroke="#49c6de"><path d="m33.5833333 12.962963h1.2916667"/><path d="m40.0416667 12.962963h1.2916666"/><path d="m20.6666667 12.962963h1.2916666"/><path d="m27.125 12.962963h1.2916667"/><path d="m33.5833333 7.77777778h1.2916667"/><path d="m40.0416667 7.77777778h1.2916666"/><path d="m20.6666667 7.77777778h1.2916666"/><path d="m27.125 7.77777778h1.2916667"/><path d="m33.5833333 18.1481481h1.2916667"/><path d="m40.0416667 18.1481481h1.2916666"/><path d="m20.6666667 18.1481481h1.2916666"/><path d="m27.125 18.1481481h1.2916667"/><path d="m33.5833333 23.3333333h1.2916667"/><path d="m40.0416667 23.3333333h1.2916666"/><path d="m20.6666667 23.3333333h1.2916666"/><path d="m27.125 23.3333333h1.2916667"/><path d="m33.5833333 28.5185185h1.2916667"/><path d="m40.0416667 28.5185185h1.2916666"/><path d="m20.6666667 28.5185185h1.2916666"/><path d="m27.125 28.5185185h1.2916667"/><path d="m40.0416667 23.3333333h1.2916666"/><path d="m20.6666667 23.3333333h1.2916666"/><path d="m40.0416667 28.5185185h1.2916666"/><path d="m20.6666667 28.5185185h1.2916666"/></g><path d="m0 35h15.5v-29.81481481h-15.5z" stroke="#004d88"/><path d="m3.875 12.962963h1.29166667" stroke="#49c6de"/><path d="m10.3333333 12.962963h1.2916667" stroke="#49c6de"/><path d="m3.875 18.1481481h1.29166667" stroke="#49c6de"/><path d="m10.3333333 18.1481481h1.2916667" stroke="#49c6de"/><path d="m3.875 23.3333333h1.29166667" stroke="#49c6de"/><path d="m10.3333333 23.3333333h1.2916667" stroke="#49c6de"/><path d="m3.875 28.5185185h1.29166667" stroke="#49c6de"/><path d="m10.3333333 28.5185185h1.2916667" stroke="#49c6de"/><path d="m46.5 35h15.5v-29.81481481h-15.5z" stroke="#004d88"/><path d="m50.375 12.962963h1.2916667" stroke="#49c6de"/><path d="m56.8333333 12.962963h1.2916667" stroke="#49c6de"/><path d="m50.375 18.1481481h1.2916667" stroke="#49c6de"/><path d="m56.8333333 18.1481481h1.2916667" stroke="#49c6de"/><path d="m50.375 23.3333333h1.2916667" stroke="#49c6de"/><path d="m56.8333333 23.3333333h1.2916667" stroke="#49c6de"/><path d="m50.375 28.5185185h1.2916667" stroke="#49c6de"/><path d="m56.8333333 28.5185185h1.2916667" stroke="#49c6de"/></g></svg>