<svg height="44" viewBox="0 0 56 44" width="56" xmlns="http://www.w3.org/2000/svg"><g fill="none" fill-rule="evenodd" transform="translate(2 1)"><path d="m27 8 17-7.39257812v31.39257812l-17 6.4863281z" fill="#49c6de" fill-rule="nonzero"/><g stroke="#004d88" stroke-linecap="round" stroke-linejoin="round" stroke-width="2.2" transform="translate(0 1)"><path d="m48.6714458 6.26103243h2.6720834c.6106041 0 1.1041666.49643243 1.1041666 1.10810811v31.62208106c0 .6116757-.4935625 1.1081081-1.1041666 1.1081081h-50.23958337c-.6095 0-1.10416666-.4964324-1.10416666-1.1081081v-31.62208106c0-.61167568.49466666-1.10810811 1.10416666-1.10810811h2.29666667"/><path d="m25.7642938 38.7413432c-9.1955001-9.0033783-22.36379172-1.1081081-22.36379172-1.1081081v-31.02702699s13.32066672-8.87594595 22.38587502 0z"/><path d="m26.1611313 6.60620811-.1026875 32.13513509"/><path d="m37.0852042 34.4318c6.2495833.0609459 11.5860208 3.2013243 11.5860208 3.2013243v-31.027027s-1.6982083-1.12140541-4.2941042-2.16745946"/><path d="m26.2150146 6.72311351 18.039875-6.72289189v31.20986488l-18.6107292 7.5318108"/><path d="m8.18496667 12.1700189s8.28125003-3.91827025 13.43439583-.870973"/><path d="m8.18496667 17.7105595s8.28125003-3.9182703 13.43439583-.870973"/><path d="m8.18496667 23.2511s8.28125003-3.9182703 13.43439583-.870973"/><path d="m8.18496667 28.7916405s8.28125003-3.9182702 13.43439583-.8709729"/><path d="m30.4526958 11.1544378 8.8333334-3.03067564"/></g></g></svg>