<?xml version="1.0" encoding="UTF-8"?>
<svg width="66px" height="39px" viewBox="0 0 66 39" version="1.1" xmlns="http://www.w3.org/2000/svg" xmlns:xlink="http://www.w3.org/1999/xlink">
    <!-- Generator: Sketch 52.6 (67491) - http://www.bohemiancoding.com/sketch -->
    <title>Group 2</title>
    <desc>Created with Sketch.</desc>
    <g id="Avasa-1024" stroke="none" stroke-width="1" fill="none" fill-rule="evenodd" stroke-linecap="round" stroke-linejoin="round">
        <g id="Home-Sherpa-Pop-Up" transform="translate(-482.000000, -832.000000)" stroke-width="2.6">
            <g id="Group-4" transform="translate(49.000000, 780.000000)">
                <g id="Group-2" transform="translate(435.000000, 54.000000)">
                    <g id="Group-47">
                        <polygon id="Stroke-1" stroke="#004D88" points="15.5 35 46.5 35 46.5 0 15.5 0"></polygon>
                        <path d="M33.5833333,12.962963 L34.875,12.962963" id="Stroke-3" stroke="#49C6DE"></path>
                        <path d="M40.0416667,12.962963 L41.3333333,12.962963" id="Stroke-4" stroke="#49C6DE"></path>
                        <path d="M20.6666667,12.962963 L21.9583333,12.962963" id="Stroke-5" stroke="#49C6DE"></path>
                        <path d="M27.125,12.962963 L28.4166667,12.962963" id="Stroke-6" stroke="#49C6DE"></path>
                        <path d="M33.5833333,7.77777778 L34.875,7.77777778" id="Stroke-7" stroke="#49C6DE"></path>
                        <path d="M40.0416667,7.77777778 L41.3333333,7.77777778" id="Stroke-8" stroke="#49C6DE"></path>
                        <path d="M20.6666667,7.77777778 L21.9583333,7.77777778" id="Stroke-9" stroke="#49C6DE"></path>
                        <path d="M27.125,7.77777778 L28.4166667,7.77777778" id="Stroke-10" stroke="#49C6DE"></path>
                        <path d="M33.5833333,18.1481481 L34.875,18.1481481" id="Stroke-11" stroke="#49C6DE"></path>
                        <path d="M40.0416667,18.1481481 L41.3333333,18.1481481" id="Stroke-12" stroke="#49C6DE"></path>
                        <path d="M20.6666667,18.1481481 L21.9583333,18.1481481" id="Stroke-13" stroke="#49C6DE"></path>
                        <path d="M27.125,18.1481481 L28.4166667,18.1481481" id="Stroke-14" stroke="#49C6DE"></path>
                        <path d="M33.5833333,23.3333333 L34.875,23.3333333" id="Stroke-15" stroke="#49C6DE"></path>
                        <path d="M40.0416667,23.3333333 L41.3333333,23.3333333" id="Stroke-16" stroke="#49C6DE"></path>
                        <path d="M20.6666667,23.3333333 L21.9583333,23.3333333" id="Stroke-17" stroke="#49C6DE"></path>
                        <path d="M27.125,23.3333333 L28.4166667,23.3333333" id="Stroke-18" stroke="#49C6DE"></path>
                        <path d="M33.5833333,28.5185185 L34.875,28.5185185" id="Stroke-19" stroke="#49C6DE"></path>
                        <path d="M40.0416667,28.5185185 L41.3333333,28.5185185" id="Stroke-20" stroke="#49C6DE"></path>
                        <path d="M20.6666667,28.5185185 L21.9583333,28.5185185" id="Stroke-21" stroke="#49C6DE"></path>
                        <path d="M27.125,28.5185185 L28.4166667,28.5185185" id="Stroke-22" stroke="#49C6DE"></path>
                        <path d="M40.0416667,23.3333333 L41.3333333,23.3333333" id="Stroke-23" stroke="#49C6DE"></path>
                        <path d="M20.6666667,23.3333333 L21.9583333,23.3333333" id="Stroke-24" stroke="#49C6DE"></path>
                        <path d="M40.0416667,28.5185185 L41.3333333,28.5185185" id="Stroke-25" stroke="#49C6DE"></path>
                        <path d="M20.6666667,28.5185185 L21.9583333,28.5185185" id="Stroke-26" stroke="#49C6DE"></path>
                        <polygon id="Stroke-27" stroke="#004D88" points="0 35 15.5 35 15.5 5.18518519 0 5.18518519"></polygon>
                        <path d="M3.875,12.962963 L5.16666667,12.962963" id="Stroke-29" stroke="#49C6DE"></path>
                        <path d="M10.3333333,12.962963 L11.625,12.962963" id="Stroke-30" stroke="#49C6DE"></path>
                        <path d="M3.875,18.1481481 L5.16666667,18.1481481" id="Stroke-31" stroke="#49C6DE"></path>
                        <path d="M10.3333333,18.1481481 L11.625,18.1481481" id="Stroke-32" stroke="#49C6DE"></path>
                        <path d="M3.875,23.3333333 L5.16666667,23.3333333" id="Stroke-33" stroke="#49C6DE"></path>
                        <path d="M10.3333333,23.3333333 L11.625,23.3333333" id="Stroke-34" stroke="#49C6DE"></path>
                        <path d="M3.875,28.5185185 L5.16666667,28.5185185" id="Stroke-35" stroke="#49C6DE"></path>
                        <path d="M10.3333333,28.5185185 L11.625,28.5185185" id="Stroke-36" stroke="#49C6DE"></path>
                        <polygon id="Stroke-37" stroke="#004D88" points="46.5 35 62 35 62 5.18518519 46.5 5.18518519"></polygon>
                        <path d="M50.375,12.962963 L51.6666667,12.962963" id="Stroke-39" stroke="#49C6DE"></path>
                        <path d="M56.8333333,12.962963 L58.125,12.962963" id="Stroke-40" stroke="#49C6DE"></path>
                        <path d="M50.375,18.1481481 L51.6666667,18.1481481" id="Stroke-41" stroke="#49C6DE"></path>
                        <path d="M56.8333333,18.1481481 L58.125,18.1481481" id="Stroke-42" stroke="#49C6DE"></path>
                        <path d="M50.375,23.3333333 L51.6666667,23.3333333" id="Stroke-43" stroke="#49C6DE"></path>
                        <path d="M56.8333333,23.3333333 L58.125,23.3333333" id="Stroke-44" stroke="#49C6DE"></path>
                        <path d="M50.375,28.5185185 L51.6666667,28.5185185" id="Stroke-45" stroke="#49C6DE"></path>
                        <path d="M56.8333333,28.5185185 L58.125,28.5185185" id="Stroke-46" stroke="#49C6DE"></path>
                    </g>
                </g>
            </g>
        </g>
    </g>
</svg>