<?xml version="1.0" encoding="UTF-8"?>
<svg width="20px" height="18px" viewBox="0 0 20 18" version="1.1" xmlns="http://www.w3.org/2000/svg" xmlns:xlink="http://www.w3.org/1999/xlink">
    <!-- Generator: Sketch 52.6 (67491) - http://www.bohemiancoding.com/sketch -->
    <title>bullseye</title>
    <desc>Created with Sketch.</desc>
    <defs>
        <path d="M14.5,15.125 C14.5,15.4703125 14.2203125,15.75 13.875,15.75 L10.125,15.75 C9.77968749,15.75 9.49999999,15.4703125 9.49999999,15.125 L9.49999999,13.25 L1.99999995,13.25 L1.99999995,18.875 C1.99999995,19.875 2.87499995,20.75 3.87499996,20.75 L20.125,20.75 C21.125,20.75 22.0000001,19.875 22.0000001,18.875 L22.0000001,13.25 L14.5,13.25 L14.5,15.125 Z M20.125,6.99999997 L17,6.99999997 L17,5.12499997 C17,4.12499996 16.125,3.24999996 15.125,3.24999996 L8.87499998,3.24999996 C7.87499998,3.24999996 6.99999997,4.12499996 6.99999997,5.12499997 L6.99999997,6.99999997 L3.87499996,6.99999997 C2.87499995,6.99999997 1.99999995,7.87499998 1.99999995,8.87499998 L1.99999995,12 L22.0000001,12 L22.0000001,8.87499998 C22.0000001,7.87499998 21.125,6.99999997 20.125,6.99999997 Z M14.5,6.99999997 L9.49999999,6.99999997 L9.49999999,5.74999997 L14.5,5.74999997 L14.5,6.99999997 Z" id="path-1"></path>
    </defs>
    <g id="Avasa-1024" stroke="none" stroke-width="1" fill="none" fill-rule="evenodd">
        <g id="Sherpa-Busy-Pros-2" transform="translate(-76.000000, -1345.000000)">
            <g id="Group" transform="translate(47.000000, 1158.000000)">
                <g id="briefcase" transform="translate(27.000000, 184.000000)">
                    <mask id="mask-2" fill="white">
                        <use xlink:href="#path-1"></use>
                    </mask>
                    <g fill-rule="nonzero"></g>
                    <g id="🎨-color" stroke-width="1" fill-rule="evenodd" mask="url(#mask-2)" fill="#007AFF">
                        <rect id="🎨-Color" x="0" y="0" width="24" height="24"></rect>
                    </g>
                </g>
            </g>
        </g>
    </g>
</svg>