<svg height="18" viewBox="0 0 20 18" width="20" xmlns="http://www.w3.org/2000/svg" xmlns:xlink="http://www.w3.org/1999/xlink"><mask id="a" fill="#fff"><path d="m14.5 15.125c0 .3453125-.2796875.625-.625.625h-3.75c-.34531251 0-.62500001-.2796875-.62500001-.625v-1.875h-7.50000004v5.625c0 1 .875 1.875 1.87500001 1.875h16.25000004c1 0 1.8750001-.875 1.8750001-1.875v-5.625h-7.5000001zm5.625-8.12500003h-3.125v-1.875c0-1.00000001-.875-1.87500001-1.875-1.87500001h-6.25000002c-1 0-1.87500001.875-1.87500001 1.87500001v1.875h-3.12500001c-1.00000001 0-1.87500001.87500001-1.87500001 1.87500001v3.12500002h20.00000015v-3.12500002c0-1-.8750001-1.87500001-1.8750001-1.87500001zm-5.625 0h-5.00000001v-1.25h5.00000001z" fill="#fff" fill-rule="evenodd"/></mask><g fill="#007aff" fill-rule="evenodd" mask="url(#a)" transform="translate(-2 -3)"><path d="m0 0h24v24h-24z"/></g></svg>