<?xml version="1.0" encoding="UTF-8"?>
<svg width="56px" height="44px" viewBox="0 0 56 44" version="1.1" xmlns="http://www.w3.org/2000/svg" xmlns:xlink="http://www.w3.org/1999/xlink">
    <!-- Generator: Sketch 52.6 (67491) - http://www.bohemiancoding.com/sketch -->
    <title>Group 3</title>
    <desc>Created with Sketch.</desc>
    <g id="Avasa-1024" stroke="none" stroke-width="1" fill="none" fill-rule="evenodd">
        <g id="Home-Sherpa-Pop-Up" transform="translate(-807.000000, -826.000000)">
            <g id="Group-4" transform="translate(49.000000, 780.000000)">
                <g id="Group-3" transform="translate(760.000000, 47.000000)">
                    <polygon id="Rectangle" fill="#49C6DE" fill-rule="nonzero" points="27 8 44 0.607421875 44 32 27 38.4863281"></polygon>
                    <g id="Group-21" transform="translate(0.000000, 1.000000)" stroke="#004D88" stroke-linecap="round" stroke-linejoin="round" stroke-width="2.2">
                        <path d="M48.6714458,6.26103243 L51.3435292,6.26103243 C51.9541333,6.26103243 52.4476958,6.75746486 52.4476958,7.36914054 L52.4476958,38.9912216 C52.4476958,39.6028973 51.9541333,40.0993297 51.3435292,40.0993297 L1.10394583,40.0993297 C0.494445833,40.0993297 -0.000220833333,39.6028973 -0.000220833333,38.9912216 L-0.000220833333,7.36914054 C-0.000220833333,6.75746486 0.494445833,6.26103243 1.10394583,6.26103243 L3.4006125,6.26103243" id="Stroke-1"></path>
                        <path d="M25.7642938,38.7413432 C16.5687937,29.7379649 3.40050208,37.6332351 3.40050208,37.6332351 L3.40050208,6.60620811 C3.40050208,6.60620811 16.7211688,-2.26973784 25.7863771,6.60620811 L25.7642938,38.7413432 Z" id="Stroke-3"></path>
                        <path d="M26.1611313,6.60620811 L26.0584438,38.7413432" id="Stroke-5"></path>
                        <path d="M37.0852042,34.4318 C43.3347875,34.4927459 48.671225,37.6331243 48.671225,37.6331243 L48.671225,6.6060973 C48.671225,6.6060973 46.9730167,5.48469189 44.3771208,4.43863784" id="Stroke-7"></path>
                        <polyline id="Stroke-9" points="26.2150146 6.72311351 44.2548896 0.000221621622 44.2548896 31.2100865 25.6441604 38.7418973"></polyline>
                        <path d="M8.18496667,12.1700189 C8.18496667,12.1700189 16.4662167,8.25174865 21.6193625,11.2990459" id="Stroke-11"></path>
                        <path d="M8.18496667,17.7105595 C8.18496667,17.7105595 16.4662167,13.7922892 21.6193625,16.8395865" id="Stroke-13"></path>
                        <path d="M8.18496667,23.2511 C8.18496667,23.2511 16.4662167,19.3328297 21.6193625,22.380127" id="Stroke-15"></path>
                        <path d="M8.18496667,28.7916405 C8.18496667,28.7916405 16.4662167,24.8733703 21.6193625,27.9206676" id="Stroke-17"></path>
                        <path d="M30.4526958,11.1544378 L39.2860292,8.12376216" id="Stroke-19"></path>
                    </g>
                </g>
            </g>
        </g>
    </g>
</svg>