<svg enable-background="new 0 0 489.6 489.6" height="512" viewBox="0 0 489.6 489.6" width="512" xmlns="http://www.w3.org/2000/svg"><g fill="#fff"><path d="m394.8 261.5v-179.8c0-24.9-20.3-45.2-45.2-45.2h-304.4c-24.9 0-45.2 20.3-45.2 45.2v179.8c0 24.9 20.3 45.2 45.2 45.2h12.9v54.2c0 10 8.1 18.1 18.2 18.1 5.2 0 10.2-2.3 13.7-6.3l57.1-66.1h202.6c24.8.1 45.1-20.2 45.1-45.1zm-253.4 20.7c-3.6 0-6.9 1.5-9.3 4.2l-49.6 57.3v-49.3c0-6.8-5.5-12.3-12.3-12.3h-25c-11.4 0-20.7-9.3-20.7-20.7v-179.7c0-11.4 9.3-20.7 20.7-20.7h304.4c11.4 0 20.7 9.3 20.7 20.7v179.8c0 11.4-9.3 20.7-20.7 20.7z"/><path d="m399.7 446.8c3.5 4.1 8.5 6.3 13.6 6.3 2.1 0 4.3-.4 6.4-1.2 7.2-2.7 11.8-9.3 11.8-17v-54.2h12.9c24.9 0 45.2-20.3 45.2-45.2v-179.8c0-24.9-20.3-45.2-45.2-45.2-6.8 0-12.3 5.5-12.3 12.2 0 6.8 5.5 12.3 12.3 12.3 11.4 0 20.7 9.3 20.7 20.7v179.8c0 11.4-9.3 20.7-20.7 20.7h-25.1c-6.8 0-12.3 5.5-12.3 12.3v49.3l-49.6-57.3c-2.3-2.7-5.7-4.2-9.3-4.2h-184c-6.8 0-12.3 5.5-12.3 12.3s5.5 12.3 12.3 12.3h178.4z"/><circle cx="197.4" cy="175.9" r="14.6"/><circle cx="246.3" cy="175.9" r="14.6"/><circle cx="148.5" cy="175.9" r="14.6"/></g></svg>