<?xml version="1.0" encoding="UTF-8"?>
<svg width="71px" height="48px" viewBox="0 0 71 48" version="1.1" xmlns="http://www.w3.org/2000/svg" xmlns:xlink="http://www.w3.org/1999/xlink">
    <!-- Generator: Sketch 52.6 (67491) - http://www.bohemiancoding.com/sketch -->
    <title>Group 29</title>
    <desc>Created with Sketch.</desc>
    <g id="Avasa-1200" stroke="none" stroke-width="1" fill="none" fill-rule="evenodd">
        <g id="Extra-large-≥1200px" transform="translate(-885.000000, -1020.000000)">
            <g id="Group-3" transform="translate(135.000000, 970.000000)">
                <g id="Group" transform="translate(49.000000, 0.000000)">
                    <g id="Group-29" transform="translate(703.000000, 52.000000)">
                        <circle id="Oval" fill="#49C6DE" fill-rule="nonzero" cx="33.5" cy="22.5" r="11.5"></circle>
                        <g id="Group-5" stroke="#004D88" stroke-linecap="round" stroke-linejoin="round" stroke-width="2.96296296">
                            <path d="M66.5527378,20.714721 C67.0634267,21.3824919 67.0634267,22.3004952 66.5527378,22.969721 C63.1387156,27.4418952 49.6210933,43.6837145 33.4681378,43.6837145 C17.3151822,43.6837145 3.79904889,27.4418952 0.383537778,22.969721 C-0.127151111,22.3004952 -0.127151111,21.3824919 0.383537778,20.714721 C3.79904889,16.2425468 17.3151822,0.000727419355 33.4681378,0.000727419355 C49.6210933,0.000727419355 63.1387156,16.2425468 66.5527378,20.714721 Z" id="Stroke-1"></path>
                            <path d="M44.7303911,21.8420755 C44.7303911,27.9203916 39.6875244,32.8464755 33.4684356,32.8464755 C27.2478578,32.8464755 22.20648,27.9203916 22.20648,21.8420755 C22.20648,15.7637594 27.2478578,10.8376755 33.4684356,10.8376755 C39.6875244,10.8376755 44.7303911,15.7637594 44.7303911,21.8420755 Z" id="Stroke-3"></path>
                        </g>
                    </g>
                </g>
            </g>
        </g>
    </g>
</svg>