<?xml version="1.0" encoding="UTF-8"?>
<svg width="14px" height="14px" viewBox="0 0 14 14" version="1.1" xmlns="http://www.w3.org/2000/svg" xmlns:xlink="http://www.w3.org/1999/xlink">
    <!-- Generator: Sketch 52.6 (67491) - http://www.bohemiancoding.com/sketch -->
    <title>bullseye copy 3</title>
    <desc>Created with Sketch.</desc>
    <defs>
        <path d="M10.85875,10.9127604 L11.6143056,10.1099826 C11.7323611,9.98454862 11.9377778,10.0723524 11.9377778,10.2529774 L11.9377778,13.900599 C11.9377778,14.5653993 11.4301389,15.1047657 10.8044445,15.1047657 L2.4933333,15.1047657 C1.86763886,15.1047657 1.35999997,14.5653993 1.35999997,13.900599 L1.35999997,5.07004338 C1.35999997,4.40524303 1.86763886,3.86587671 2.4933333,3.86587671 L8.95097223,3.86587671 C9.11861112,3.86587671 9.20361112,4.08162324 9.08555556,4.20956595 L8.33,5.01234373 C8.29458333,5.04997394 8.24736111,5.07004338 8.19541667,5.07004338 L2.4933333,5.07004338 L2.4933333,13.900599 L10.8044445,13.900599 L10.8044445,11.0532465 C10.8044445,11.0005642 10.8233333,10.9503906 10.85875,10.9127604 Z M14.55625,5.85024304 L8.35597222,12.4380382 L6.22152777,12.6889063 C5.60291665,12.761658 5.07638887,12.2072396 5.1448611,11.5449479 L5.38097221,9.2771007 L11.58125,2.68930553 C12.1219445,2.11481768 12.9955556,2.11481768 13.5338889,2.68930553 L14.5538889,3.77305553 C15.0945834,4.34754338 15.0945834,5.27826387 14.55625,5.85024304 Z M12.2234722,6.62542534 L10.8516667,5.16788193 L6.46472221,9.8315191 L6.2923611,11.4696875 L7.83416667,11.2865538 L12.2234722,6.62542534 Z M13.7534723,4.62600692 L12.7334722,3.54225692 C12.6366667,3.43940102 12.4784722,3.43940102 12.3840278,3.54225692 L11.6544445,4.31743921 L13.02625,5.77498262 L13.7558334,4.99980033 C13.8502778,4.89443575 13.8502778,4.72886283 13.7534723,4.62600692 Z" id="path-1"></path>
    </defs>
    <g id="Symbols" stroke="none" stroke-width="1" fill="none" fill-rule="evenodd">
        <g id="Search" transform="translate(-522.000000, -14.000000)">
            <g id="Group-38">
                <g id="Group-34">
                    <g id="edit" transform="translate(521.000000, 12.000000)">
                        <mask id="mask-2" fill="white">
                            <use xlink:href="#path-1"></use>
                        </mask>
                        <g fill-rule="nonzero"></g>
                        <g id="🎨-color" stroke-width="1" fill-rule="evenodd" mask="url(#mask-2)" fill="#49C6DE">
                            <rect id="🎨-Color" fill-rule="nonzero" x="0" y="0" width="16.32" height="17.34"></rect>
                        </g>
                    </g>
                </g>
            </g>
        </g>
    </g>
</svg>