<svg height="48" viewBox="0 0 71 48" width="71" xmlns="http://www.w3.org/2000/svg"><g fill="none" fill-rule="evenodd"><circle cx="35.5" cy="24.5" fill="#49c6de" fill-rule="nonzero" r="11.5"/><g stroke="#004d88" stroke-linecap="round" stroke-linejoin="round" stroke-width="2.962963" transform="translate(2 2)"><path d="m66.5527378 20.714721c.5106889.6677709.5106889 1.5857742 0 2.255-3.4140222 4.4721742-16.9316445 20.7139935-33.0846 20.7139935-16.1529556 0-29.66908891-16.2418193-33.08460002-20.7139935-.51068889-.6692258-.51068889-1.5872291 0-2.255 3.41551111-4.4721742 16.93164442-20.71399358 33.08460002-20.71399358 16.1529555 0 29.6705778 16.24181938 33.0846 20.71399358z"/><path d="m44.7303911 21.8420755c0 6.0783161-5.0428667 11.0044-11.2619555 11.0044-6.2205778 0-11.2619556-4.9260839-11.2619556-11.0044s5.0413778-11.0044 11.2619556-11.0044c6.2190888 0 11.2619555 4.9260839 11.2619555 11.0044z"/></g></g></svg>