<svg height="14" viewBox="0 0 14 14" width="14" xmlns="http://www.w3.org/2000/svg" xmlns:xlink="http://www.w3.org/1999/xlink"><mask id="a" fill="#fff"><path d="m10.85875 10.9127604.7555556-.8027778c.1180555-.12543398.3234722-.0376302.3234722.1429948v3.6476216c0 .6648003-.5076389 1.2041667-1.1333333 1.2041667h-8.3111112c-.62569444 0-1.13333333-.5393664-1.13333333-1.2041667v-8.83055562c0-.66480035.50763889-1.20416667 1.13333333-1.20416667h6.45763893c.16763889 0 .25263889.21574653.13458333.34368924l-.75555556.80277778c-.03541667.03763021-.08263889.05769965-.13458333.05769965h-5.70208337v8.83055562h8.3111112v-2.8473525c0-.0526823.0188888-.1028559.0543055-.1404861zm3.6975-5.06251736-6.20027778 6.58779516-2.13444445.2508681c-.61861112.0727517-1.1451389-.4816667-1.07666667-1.1439584l.23611111-2.2678472 6.20027779-6.58779517c.5406945-.57448785 1.4143056-.57448785 1.9526389 0l1.02 1.08375c.5406945.57448785.5406945 1.50520834.0023611 2.07718751zm-2.3327778.7751823-1.3718055-1.45754341-4.38694449 4.66363717-.17236111 1.6381684 1.54180557-.1831337zm1.5300001-1.99941842-1.0200001-1.08375c-.0968055-.1028559-.255-.1028559-.3494444 0l-.7295833.77518229 1.3718055 1.45754341.7295834-.77518229c.0944444-.10536458.0944444-.2709375-.0023611-.37379341z" fill="#fff" fill-rule="evenodd"/></mask><g fill="#49c6de" fill-rule="evenodd" mask="url(#a)" transform="translate(-1 -2)"><path d="m0 0h16.32v17.34h-16.32z" fill-rule="nonzero"/></g></svg>