<svg height="55" viewBox="0 0 64 55" width="64" xmlns="http://www.w3.org/2000/svg"><g style="stroke:#004d88;stroke-width:2.600473;fill:none;fill-rule:evenodd;stroke-linecap:round;stroke-linejoin:round" transform="translate(2 2)"><path d="m29.8858038.37739-23.91524824 24.1098c-.23664303.2379-.36926714.5616-.36926714.897v24.6207c0 .7046.57080378 1.2753 1.27553191 1.2753h22.61371157 23.9152482c.7034279 0 1.2742317-.5707 1.2742317-1.2753v-24.6207c0-.3354-.1326241-.6591-.3692671-.897l-23.913948-24.1098c-.4992908-.5031-.0130024-.5031-.5109929 0z"/><path d="m35.4193499 51.27993h-10.5579196c-.7177305 0-1.3002364-.5824-1.3002364-1.3v-14.8109c0-.7176.5825059-1.3 1.3002364-1.3h10.5579196c.7177305 0 1.3002364.5824 1.3002364 1.3v14.8109c0 .7176-.5825059 1.3-1.3002364 1.3z" fill="#49c6de"/><path d="m0 29.71501 29.8859338-29.3371"/><path d="m59.9213948 29.71501-29.8846336-29.3371"/></g></svg>