<svg height="16" viewBox="0 0 20 16" width="20" xmlns="http://www.w3.org/2000/svg" xmlns:xlink="http://www.w3.org/1999/xlink"><mask id="a" fill="#fff"><path d="m18.9444445 13.96875v4.9756945c0 .4618055-.3715278.8333333-.8333334.8333333h-4.0277778c-.2291666 0-.4166666-.1875-.4166666-.4166667v-3.8888889c0-.2291666-.1875-.4166666-.4166667-.4166666h-2.5c-.2291667 0-.4166667.1875-.4166667.4166666v3.8888889c0 .2291667-.1875.4166667-.41666664.4166667h-4.0277778c-.46180556 0-.83333334-.3715278-.83333334-.8333333v-4.9756945c0-.125.05555556-.2430555.15277778-.3229167l6.5277778-5.37499999c.1527778-.125.375-.125.53125 0l6.5277778 5.37499999c.09375.0798612.1493056.1979167.1493056.3229167zm2.9027778-2.1145833-2.9027778-2.39236116v-4.8090278c0-.22916667-.1875-.41666667-.4166667-.41666667h-1.9444444c-.2291667 0-.4166667.1875-.4166667.41666667v2.52083335l-3.1076389-2.55902779c-.6145834-.50694445-1.5034722-.50694445-2.1180556 0l-8.78819447 7.2395834c-.17708334.1458333-.20138889.4097222-.05555556.5868055l.88541667 1.0763889c.14583334.1770834.40972223.2013889.58680556.0555556l8.1666667-6.7256945c.1527778-.125.375-.125.53125 0l8.1666667 6.7256945c.1770834.1458333.4409722.1215278.5868056-.0555556l.8854166-1.0763889c.1458334-.1805555.1180556-.4409722-.0590277-.5868055z" fill="#fff" fill-rule="evenodd"/></mask><g fill="#007aff" fill-rule="evenodd" mask="url(#a)" transform="translate(-2 -4)"><path d="m0 0h24v24h-24z"/></g></svg>