<?xml version="1.0" encoding="UTF-8"?>
<svg width="64px" height="55px" viewBox="0 0 64 55" version="1.1" xmlns="http://www.w3.org/2000/svg" xmlns:xlink="http://www.w3.org/1999/xlink">
    <!-- Generator: Sketch 52.6 (67491) - http://www.bohemiancoding.com/sketch -->
    <title>Group 9</title>
    <desc>Created with Sketch.</desc>
    <g id="Avasa-1200" stroke="none" stroke-width="1" fill="none" fill-rule="evenodd" stroke-linecap="round" stroke-linejoin="round">
        <g id="Extra-large-≥1200px" transform="translate(-568.000000, -1016.000000)" stroke="#004D88" stroke-width="2.60047281">
            <g id="Group-3" transform="translate(135.000000, 970.000000)">
                <g id="Group" transform="translate(49.000000, 0.000000)">
                    <g id="Group-9" transform="translate(386.000000, 48.000000)">
                        <g id="Group-30">
                            <g id="Group-31">
                                <g id="Group-32">
                                    <path d="M29.8858038,0.37739 L5.97055556,24.48719 C5.73391253,24.72509 5.60128842,25.04879 5.60128842,25.38419 L5.60128842,50.00489 C5.60128842,50.70949 6.1720922,51.28019 6.87682033,51.28019 L29.4905319,51.28019 L53.4057801,51.28019 C54.109208,51.28019 54.6800118,50.70949 54.6800118,50.00489 L54.6800118,25.38419 C54.6800118,25.04879 54.5473877,24.72509 54.3107447,24.48719 L30.3967967,0.37739 C29.8975059,-0.12571 30.3837943,-0.12571 29.8858038,0.37739 Z" id="Stroke-1"></path>
                                    <path d="M35.4193499,51.27993 L24.8614303,51.27993 C24.1436998,51.27993 23.5611939,50.69753 23.5611939,49.97993 L23.5611939,35.16903 C23.5611939,34.45143 24.1436998,33.86903 24.8614303,33.86903 L35.4193499,33.86903 C36.1370804,33.86903 36.7195863,34.45143 36.7195863,35.16903 L36.7195863,49.97993 C36.7195863,50.69753 36.1370804,51.27993 35.4193499,51.27993 Z" id="Stroke-3" fill="#49C6DE"></path>
                                    <path d="M-3.55271368e-15,29.71501 L29.8859338,0.37791" id="Stroke-5"></path>
                                    <path d="M59.9213948,29.71501 L30.0367612,0.37791" id="Stroke-7"></path>
                                </g>
                            </g>
                        </g>
                    </g>
                </g>
            </g>
        </g>
    </g>
</svg>