<svg enable-background="new 0 0 24 24" height="24" viewBox="0 0 24 24" width="24" xmlns="http://www.w3.org/2000/svg" xmlns:xlink="http://www.w3.org/1999/xlink"><mask id="a" height="24" maskUnits="userSpaceOnUse" width="24" x="0" y="0"><path d="m12.004 7.508c-2.484 0-4.488 2.004-4.488 4.488s2.004 4.488 4.488 4.488 4.488-2.004 4.488-4.488-2.004-4.488-4.488-4.488zm0 7.406c-1.605 0-2.918-1.309-2.918-2.918s1.309-2.918 2.918-2.918 2.918 1.309 2.918 2.918-1.313 2.918-2.918 2.918zm5.719-7.59c0 .582-.469 1.047-1.047 1.047-.582 0-1.047-.469-1.047-1.047s.469-1.047 1.047-1.047 1.047.469 1.047 1.047zm2.972 1.063c-.066-1.402-.387-2.645-1.414-3.668-1.023-1.023-2.266-1.344-3.668-1.414-1.445-.082-5.777-.082-7.223 0-1.398.066-2.64.386-3.667 1.41s-1.344 2.265-1.414 3.668c-.082 1.445-.082 5.777 0 7.223.066 1.402.387 2.645 1.414 3.668s2.266 1.344 3.668 1.414c1.445.082 5.777.082 7.223 0 1.402-.066 2.645-.387 3.668-1.414 1.023-1.023 1.344-2.266 1.414-3.668.081-1.446.081-5.774-.001-7.219zm-1.867 8.769c-.305.766-.895 1.355-1.664 1.664-1.152.457-3.887.352-5.16.352s-4.012.102-5.16-.352c-.766-.305-1.355-.895-1.664-1.664-.457-1.152-.352-3.887-.352-5.16s-.101-4.012.352-5.16c.304-.766.894-1.356 1.664-1.664 1.152-.457 3.887-.352 5.16-.352s4.012-.102 5.16.352c.766.305 1.355.895 1.664 1.664.457 1.152.352 3.887.352 5.16s.105 4.012-.352 5.16z" fill="#fff"/></mask><g mask="url(#a)"><path d="m0 0h24v24h-24z" fill="#49c6de"/></g></svg>