<?xml version="1.0" encoding="utf-8"?>
<!-- Generator: Adobe Illustrator 16.0.0, SVG Export Plug-In . SVG Version: 6.00 Build 0)  -->
<!DOCTYPE svg PUBLIC "-//W3C//DTD SVG 1.1//EN" "http://www.w3.org/Graphics/SVG/1.1/DTD/svg11.dtd">
<svg version="1.1" id="Layer_1" xmlns="http://www.w3.org/2000/svg" xmlns:xlink="http://www.w3.org/1999/xlink" x="0px" y="0px"
	 width="24px" height="24px" viewBox="0 0 24 24" enable-background="new 0 0 24 24" xml:space="preserve">
<title>instagram</title>
<desc>Created with Sketch.</desc>
<g id="instagram">
	<defs>
		<filter id="Adobe_OpacityMaskFilter" filterUnits="userSpaceOnUse" x="0" y="0" width="24" height="24">
			<feColorMatrix  type="matrix" values="1 0 0 0 0  0 1 0 0 0  0 0 1 0 0  0 0 0 1 0"/>
		</filter>
	</defs>
	<mask maskUnits="userSpaceOnUse" x="0" y="0" width="24" height="24" id="mask-2">
		<g filter="url(#Adobe_OpacityMaskFilter)">
			<path id="path-1" fill="#FFFFFF" d="M12.004,7.508c-2.484,0-4.488,2.004-4.488,4.488s2.004,4.488,4.488,4.488
				s4.488-2.004,4.488-4.488S14.488,7.508,12.004,7.508z M12.004,14.914c-1.605,0-2.918-1.309-2.918-2.918s1.309-2.918,2.918-2.918
				s2.918,1.309,2.918,2.918S13.609,14.914,12.004,14.914z M17.723,7.324c0,0.582-0.469,1.047-1.047,1.047
				c-0.582,0-1.047-0.469-1.047-1.047s0.469-1.047,1.047-1.047S17.723,6.746,17.723,7.324z M20.695,8.387
				c-0.066-1.402-0.387-2.645-1.414-3.668c-1.023-1.023-2.266-1.344-3.668-1.414c-1.445-0.082-5.777-0.082-7.223,0
				C6.992,3.371,5.75,3.691,4.723,4.715S3.379,6.98,3.309,8.383c-0.082,1.445-0.082,5.777,0,7.223
				c0.066,1.402,0.387,2.645,1.414,3.668s2.266,1.344,3.668,1.414c1.445,0.082,5.777,0.082,7.223,0
				c1.402-0.066,2.645-0.387,3.668-1.414c1.023-1.023,1.344-2.266,1.414-3.668C20.777,14.16,20.777,9.832,20.695,8.387z
				 M18.828,17.156c-0.305,0.766-0.895,1.355-1.664,1.664c-1.152,0.457-3.887,0.352-5.16,0.352s-4.012,0.102-5.16-0.352
				c-0.766-0.305-1.355-0.895-1.664-1.664c-0.457-1.152-0.352-3.887-0.352-5.16S4.727,7.984,5.18,6.836
				C5.484,6.07,6.074,5.48,6.844,5.172c1.152-0.457,3.887-0.352,5.16-0.352s4.012-0.102,5.16,0.352
				c0.766,0.305,1.355,0.895,1.664,1.664c0.457,1.152,0.352,3.887,0.352,5.16S19.285,16.008,18.828,17.156z"/>
		</g>
	</mask>
	<g id="_xD83C__xDFA8_-color" mask="url(#mask-2)">
		<rect id="_xD83C__xDFA8_-Color" fill="#49C6DE" width="24" height="24"/>
	</g>
</g>
</svg>
