<svg enable-background="new 0 0 24 24" height="24" viewBox="0 0 24 24" width="24" xmlns="http://www.w3.org/2000/svg" xmlns:xlink="http://www.w3.org/1999/xlink"><mask id="a" height="24" maskUnits="userSpaceOnUse" width="24" x="0" y="0"><path d="m7.148 19.5h-3.628v-11.684h3.629v11.684zm-1.816-13.277c-1.16 0-2.102-.961-2.102-2.121s.942-2.102 2.102-2.102 2.102.941 2.102 2.102-.942 2.121-2.102 2.121zm15.398 13.277h-3.621v-5.688c0-1.355-.027-3.094-1.887-3.094-1.887 0-2.176 1.473-2.176 2.996v5.786h-3.624v-11.684h3.48v1.594h.051c.484-.918 1.668-1.887 3.434-1.887 3.672 0 4.348 2.418 4.348 5.559v6.418z" fill="#fff"/></mask><g mask="url(#a)"><path d="m0 0h24v24h-24z" fill="#49c6de"/></g></svg>