<svg height="21" viewBox="0 0 26 21" width="26" xmlns="http://www.w3.org/2000/svg"><path d="m269.369565 47.2608696h23.26087c.75639 0 1.369565.6131752 1.369565 1.3695652s-.613175 1.3695652-1.369565 1.3695652h-23.26087c-.75639 0-1.369565-.6131752-1.369565-1.3695652s.613175-1.3695652 1.369565-1.3695652zm0-9.1304348h23.26087c.75639 0 1.369565.6131752 1.369565 1.3695652s-.613175 1.3695652-1.369565 1.3695652h-23.26087c-.75639 0-1.369565-.6131752-1.369565-1.3695652s.613175-1.3695652 1.369565-1.3695652zm0-9.1304348h23.26087c.75639 0 1.369565.6131752 1.369565 1.3695652s-.613175 1.3695652-1.369565 1.3695652h-23.26087c-.75639 0-1.369565-.6131752-1.369565-1.3695652s.613175-1.3695652 1.369565-1.3695652z" fill="#fff" fill-rule="evenodd" transform="translate(-268 -29)"/></svg>