<svg height="11" viewBox="0 0 11 11" width="11" xmlns="http://www.w3.org/2000/svg" xmlns:xlink="http://www.w3.org/1999/xlink"><mask id="a" fill="#fff"><path d="m9.93603515 13.7915039-4.64843752-4.6484375c-.32128906-.32128906-.32128906-.84082032 0-1.15869141l.77246094-.77246094c.32128907-.32128907.84082032-.32128907 1.15869141 0l3.29492192 3.29492185 3.2949219-3.29492185c.321289-.32128907.8408203-.32128907 1.1586914 0l.7724609.77246094c.3212891.32128906.3212891.84082031 0 1.15869141l-4.6484375 4.6484375c-.3144531.3212891-.8339844.3212891-1.15527345 0z" fill="#fff" fill-rule="evenodd"/></mask><mask id="b" fill="#fff"><path d="m9.93603515 13.7915039-4.64843752-4.6484375c-.32128906-.32128906-.32128906-.84082032 0-1.15869141l.77246094-.77246094c.32128907-.32128907.84082032-.32128907 1.15869141 0l3.29492192 3.29492185 3.2949219-3.29492185c.321289-.32128907.8408203-.32128907 1.1586914 0l.7724609.77246094c.3212891.32128906.3212891.84082031 0 1.15869141l-4.6484375 4.6484375c-.3144531.3212891-.8339844.3212891-1.15527345 0z" fill="#fff" fill-rule="evenodd"/></mask><g fill="#f5f5f6" fill-opacity=".9" fill-rule="evenodd" transform="translate(-5 -7)"><g mask="url(#a)"><path d="m0 0h21v21h-21z"/></g><g mask="url(#b)" transform="matrix(1 0 0 -1 0 24.999999)"><path d="m0 0h21v21h-21z"/></g></g></svg>