<?xml version="1.0" encoding="UTF-8"?>
<svg width="26px" height="21px" viewBox="0 0 26 21" version="1.1" xmlns="http://www.w3.org/2000/svg" xmlns:xlink="http://www.w3.org/1999/xlink">
    <!-- Generator: Sketch 52.6 (67491) - http://www.bohemiancoding.com/sketch -->
    <title>Combined Shape</title>
    <desc>Created with Sketch.</desc>
    <g id="Avasa-320" stroke="none" stroke-width="1" fill="none" fill-rule="evenodd">
        <g id="Extra-small-&lt;320px" transform="translate(-268.000000, -29.000000)" fill="#FFFFFF">
            <path d="M269.369565,47.2608696 L292.630435,47.2608696 C293.386825,47.2608696 294,47.8740448 294,48.6304348 C294,49.3868248 293.386825,50 292.630435,50 L269.369565,50 C268.613175,50 268,49.3868248 268,48.6304348 C268,47.8740448 268.613175,47.2608696 269.369565,47.2608696 Z M269.369565,38.1304348 L292.630435,38.1304348 C293.386825,38.1304348 294,38.74361 294,39.5 C294,40.25639 293.386825,40.8695652 292.630435,40.8695652 L269.369565,40.8695652 C268.613175,40.8695652 268,40.25639 268,39.5 C268,38.74361 268.613175,38.1304348 269.369565,38.1304348 Z M269.369565,29 L292.630435,29 C293.386825,29 294,29.6131752 294,30.3695652 C294,31.1259552 293.386825,31.7391304 292.630435,31.7391304 L269.369565,31.7391304 C268.613175,31.7391304 268,31.1259552 268,30.3695652 C268,29.6131752 268.613175,29 269.369565,29 Z" id="Combined-Shape"></path>
        </g>
    </g>
</svg>