<?xml version="1.0" encoding="UTF-8"?>
<svg width="11px" height="11px" viewBox="0 0 11 11" version="1.1" xmlns="http://www.w3.org/2000/svg" xmlns:xlink="http://www.w3.org/1999/xlink">
    <!-- Generator: Sketch 52.6 (67491) - http://www.bohemiancoding.com/sketch -->
    <title>Group 34</title>
    <desc>Created with Sketch.</desc>
    <defs>
        <path d="M9.93603515,13.7915039 L5.28759763,9.1430664 C4.96630857,8.82177734 4.96630857,8.30224608 5.28759763,7.98437499 L6.06005857,7.21191405 C6.38134764,6.89062498 6.90087889,6.89062498 7.21874998,7.21191405 L10.5136719,10.5068359 L13.8085938,7.21191405 C14.1298828,6.89062498 14.6494141,6.89062498 14.9672852,7.21191405 L15.7397461,7.98437499 C16.0610352,8.30566405 16.0610352,8.8251953 15.7397461,9.1430664 L11.0913086,13.7915039 C10.7768555,14.112793 10.2573242,14.112793 9.93603515,13.7915039 Z" id="path-1"></path>
        <path d="M9.93603515,13.7915039 L5.28759763,9.1430664 C4.96630857,8.82177734 4.96630857,8.30224608 5.28759763,7.98437499 L6.06005857,7.21191405 C6.38134764,6.89062498 6.90087889,6.89062498 7.21874998,7.21191405 L10.5136719,10.5068359 L13.8085938,7.21191405 C14.1298828,6.89062498 14.6494141,6.89062498 14.9672852,7.21191405 L15.7397461,7.98437499 C16.0610352,8.30566405 16.0610352,8.8251953 15.7397461,9.1430664 L11.0913086,13.7915039 C10.7768555,14.112793 10.2573242,14.112793 9.93603515,13.7915039 Z" id="path-3"></path>
    </defs>
    <g id="Avasa-320" stroke="none" stroke-width="1" fill="none" fill-rule="evenodd">
        <g id="Extra-small-&lt;320px-Copy" transform="translate(-283.000000, -22.000000)">
            <g id="Group-34" transform="translate(278.000000, 15.000000)">
                <g id="Group-33">
                    <g id="angle-down">
                        <mask id="mask-2" fill="white">
                            <use xlink:href="#path-1"></use>
                        </mask>
                        <g></g>
                        <g id="🎨-color" stroke-width="1" fill-rule="evenodd" mask="url(#mask-2)" fill="#F5F5F6" fill-opacity="0.899999976">
                            <rect id="🎨-Color" x="0" y="0" width="21" height="21"></rect>
                        </g>
                    </g>
                    <g id="angle-down" transform="translate(10.344828, 14.655172) scale(1, -1) translate(-10.344828, -14.655172) translate(0.000000, 4.310345)">
                        <mask id="mask-4" fill="white">
                            <use xlink:href="#path-3"></use>
                        </mask>
                        <g></g>
                        <g id="🎨-color" stroke-width="1" fill-rule="evenodd" mask="url(#mask-4)" fill="#F5F5F6" fill-opacity="0.899999976">
                            <rect id="🎨-Color" x="0" y="0" width="21" height="21"></rect>
                        </g>
                    </g>
                </g>
            </g>
        </g>
    </g>
</svg>