<svg xmlns="http://www.w3.org/2000/svg" width="22.781" height="34.874" viewBox="0 0 22.781 34.874">
  <g id="public_transport" transform="translate(-27.724 -1.375)">
    <g id="Group_674" data-name="Group 674" transform="translate(28.625 2.375)">
      <line id="Line_1" data-name="Line 1" x2="18.873" transform="translate(0.965 31.08)" fill="none" stroke="#4cc5dd" stroke-miterlimit="10" stroke-width="2"/>
      <g id="Group_673" data-name="Group 673">
        <path id="Path_425" data-name="Path 425" d="M52.835,32.343a.959.959,0,0,1-.959.959H35.334a.959.959,0,0,1-.959-.959V13.584a.959.959,0,0,1,.959-.959H51.876a.959.959,0,0,1,.959.959Z" transform="translate(-32.997 -10.168)" fill="none" stroke="#4cc5dd" stroke-miterlimit="10" stroke-width="2"/>
        <path id="Path_426" data-name="Path 426" d="M54,4.752V3.334a.959.959,0,0,1,.959-.959h7.222a.959.959,0,0,1,.959.959v1.5" transform="translate(-47.917 -2.375)" fill="none" stroke="#4cc5dd" stroke-miterlimit="10" stroke-width="2"/>
        <line id="Line_2" data-name="Line 2" x2="18.46" transform="translate(1.378 8.011)" fill="none" stroke="#4cc5dd" stroke-miterlimit="10" stroke-width="2"/>
        <line id="Line_3" data-name="Line 3" y1="0.24" x2="18.46" transform="translate(1.378 15.763)" fill="none" stroke="#4cc5dd" stroke-miterlimit="10" stroke-width="2"/>
        <line id="Line_4" data-name="Line 4" y2="7.871" transform="translate(10.653 8.011)" fill="none" stroke="#4cc5dd" stroke-miterlimit="10" stroke-width="2"/>
        <circle id="Ellipse_2" data-name="Ellipse 2" cx="1.458" cy="1.458" r="1.458" transform="translate(4.515 17.72)" fill="none" stroke="#4cc5dd" stroke-miterlimit="10" stroke-width="2"/>
        <circle id="Ellipse_3" data-name="Ellipse 3" cx="1.458" cy="1.458" r="1.458" transform="translate(13.625 17.72)" fill="none" stroke="#4cc5dd" stroke-miterlimit="10" stroke-width="2"/>
        <line id="Line_5" data-name="Line 5" x1="4.795" y2="9.949" transform="translate(0 23.135)" fill="none" stroke="#4cc5dd" stroke-miterlimit="10" stroke-width="2"/>
        <line id="Line_6" data-name="Line 6" x2="4.915" y2="10.309" transform="translate(16.062 23.135)" fill="none" stroke="#4cc5dd" stroke-miterlimit="10" stroke-width="2"/>
        <line id="Line_7" data-name="Line 7" x2="13.468" transform="translate(3.692 25.577)" fill="none" stroke="#4cc5dd" stroke-miterlimit="10" stroke-width="2"/>
      </g>
    </g>
  </g>
</svg>
