<?xml version="1.0" encoding="UTF-8"?>
<svg width="50px" height="48px" viewBox="0 0 50 48" version="1.1" xmlns="http://www.w3.org/2000/svg" xmlns:xlink="http://www.w3.org/1999/xlink">
    <!-- Generator: Sketch 52.6 (67491) - http://www.bohemiancoding.com/sketch -->
    <title>Group 23</title>
    <desc>Created with Sketch.</desc>
    <g id="Avasa-1200" stroke="none" stroke-width="1" fill="none" fill-rule="evenodd">
        <g id="Extra-large-≥1200px" transform="translate(-373.000000, -1630.000000)">
            <g id="Group-24-Copy" transform="translate(307.000000, 1603.000000)">
                <g id="Group-23" transform="translate(66.000000, 27.000000)">
                    <path d="M16.1424691,42.6148981 L16.5342179,42.7921187 C16.8742571,42.9456016 17.1965165,43.1559957 17.5479644,43.4536731 C19.1684474,44.8251416 21.378628,44.8673089 21.4330046,44.8680461 L39.7099254,44.8611165 C41.3742653,44.7551086 42.6745633,43.3799541 42.6745633,41.7187698 C42.6745633,41.2112881 42.5548458,40.7243003 42.3189668,40.2721079 L41.6394811,38.9711147 L43.0925374,38.7293163 C44.6251585,38.474396 45.7375829,37.1672104 45.7375829,35.621765 C45.7375829,34.9357358 45.5163723,34.2806687 45.0969165,33.7273338 L44.1815518,32.5184894 L45.6341636,32.0682136 C46.9636501,31.6555346 47.8576791,30.4449209 47.8576791,29.0557598 C47.8576791,27.922846 47.2399783,26.8705808 46.2456415,26.3100214 L44.8296265,25.5113496 L46.126813,24.5330983 C46.9208304,23.9339101 47.3799944,23.0264291 47.38681,22.0431648 C47.3925884,21.249211 47.0651433,20.4813538 46.4656668,19.8805438 C45.8223334,19.2356499 44.9426765,18.8658753 44.0523517,18.8658753 L30.1098563,18.8658753 L31.2273184,11.6599891 C31.3027345,11.1678409 31.3414056,10.6631606 31.3414056,10.1615764 C31.3414056,6.54713311 28.9620203,2.1319539 26.1851077,2.1319539 C25.6711226,2.1319539 25.1670645,2.26641738 24.7246432,2.51735691 L25.232998,9.17403648 C25.2756696,9.7316471 25.2307756,10.2857192 25.0999457,10.8206244 C24.9723754,11.3457986 24.763907,11.8491521 24.4806151,12.3149088 L18.0477257,24.1808688 L16.1424691,25.8022448 L16.1424691,42.6148981 Z M21.4303377,47 L21.4298932,47 C21.3075087,47 18.4055447,46.9781792 16.1595081,45.0774081 C15.9640782,44.9118352 15.8016891,44.8025836 15.6481899,44.7329929 L14,43.9878411 L14,24.8201601 L16.3519747,22.8188363 L22.6378842,11.2274059 C22.8119783,10.9441775 22.9399931,10.6382435 23.017928,10.3178607 C23.0957147,9.99895225 23.1222363,9.66913338 23.0969001,9.33533368 L22.5002387,1.52745798 L22.9239912,1.17581828 C23.837578,0.417544498 24.9956374,0 26.1851077,0 C30.2955073,0 33.4838747,5.4622841 33.4838747,10.1615764 C33.4838747,10.770348 33.4373508,11.3835428 33.345192,11.9836156 L32.6082182,16.7339214 L44.0523517,16.7339214 C45.5095567,16.7339214 46.9433515,17.333257 47.9862865,18.3781503 C48.9906985,19.3848572 49.5387617,20.6917479 49.5292791,22.0579086 C49.5209818,23.246554 49.1203431,24.3685574 48.4001119,25.2776603 C49.4085244,26.2603348 50,27.6191237 50,29.0557598 C50,30.9392806 49.0188499,32.6270037 47.4626706,33.5688379 C47.7378134,34.2137318 47.880052,34.9072803 47.880052,35.621765 C47.880052,37.7805526 46.5861252,39.6612721 44.6690154,40.4767518 C44.7673971,40.8799949 44.8170324,41.2950329 44.8170324,41.7187698 C44.8170324,44.5200924 42.6139637,46.8360489 39.8008989,46.9914486 L39.7423736,46.9930704 L21.4303377,47 Z" id="Fill-1" fill="#FFFFFF"></path>
                    <rect id="Rectangle" fill="#49C6DE" fill-rule="nonzero" x="1" y="21" width="14" height="26"></rect>
                    <path d="M2.12320853,22.1897952 C2.09420568,22.1897952 2.06591719,22.2200829 2.06591719,22.2508248 L2.06591719,45.7493266 C2.06591719,45.78022 2.09420568,45.8102048 2.12320853,45.8102048 L13.8766486,45.8102048 C13.9056514,45.8102048 13.9340828,45.78022 13.9340828,45.7493266 L13.9340828,22.2508248 C13.9340828,22.2200829 13.9056514,22.1897952 13.8766486,22.1897952 L2.12320853,22.1897952 Z M13.8766486,48 L2.12320853,48 C0.952522123,48 0,46.990362 0,45.7493266 L0,22.2508248 C0,21.009638 0.952522123,20 2.12320853,20 L13.8766486,20 C15.0474779,20 16,21.009638 16,22.2508248 L16,45.7493266 C16,46.990362 15.0474779,48 13.8766486,48 Z" id="Fill-3" fill="#FFFFFF"></path>
                </g>
            </g>
        </g>
    </g>
</svg>