<svg height="48" viewBox="0 0 50 48" width="50" xmlns="http://www.w3.org/2000/svg"><g fill="none" fill-rule="evenodd"><path d="m16.1424691 42.6148981.3917488.1772206c.3400392.1534829.6622986.363877 1.0137465.6615544 1.620483 1.3714685 3.8306636 1.4136358 3.8850402 1.414373l18.2769208-.0069296c1.6643399-.1060079 2.9646379-1.4811624 2.9646379-3.1423467 0-.5074817-.1197175-.9944695-.3555965-1.4466619l-.6794857-1.3009932 1.4530563-.2417984c1.5326211-.2549203 2.6450455-1.5621059 2.6450455-3.1075513 0-.6860292-.2212106-1.3410963-.6406664-1.8944312l-.9153647-1.2088444 1.4526118-.4502758c1.3294865-.412679 2.2235155-1.6232927 2.2235155-3.0124538 0-1.1329138-.6177008-2.185179-1.6120376-2.7457384l-1.416015-.7986718 1.2971865-.9782513c.7940174-.5991882 1.2531814-1.5066692 1.259997-2.4899335.0057784-.7939538-.3216667-1.561811-.9211432-2.162621-.6433334-.6448939-1.5229903-1.0146685-2.4133151-1.0146685h-13.9424954l1.1174621-7.2058862c.0754161-.4921482.1140872-.9968285.1140872-1.4984127 0-3.61444329-2.3793853-8.0296225-5.1562979-8.0296225-.5139851 0-1.0180432.13446348-1.4604645.38540301l.5083548 6.65667957c.0426716.55761062-.0022224 1.11168272-.1330523 1.64658792-.1275703.5251742-.3360387 1.0285277-.6193306 1.4942844l-6.4328894 11.86596-1.9052566 1.621376zm5.2878686 4.3851019h-.0004445c-.1223845 0-3.0243485-.0218208-5.2703851-1.9225919-.1954299-.1655729-.357819-.2748245-.5113182-.3444152l-1.6481899-.7451518v-19.167681l2.3519747-2.0013238 6.2859095-11.5914304c.1740941-.2832284.3021089-.5891624.3800438-.9095452.0777867-.31890845.1043083-.64872732.0789721-.98252702l-.5966614-7.8078757.4237525-.3516397c.9135868-.75827378 2.0716462-1.17581828 3.2611165-1.17581828 4.1103996 0 7.298767 5.4622841 7.298767 10.1615764 0 .6087716-.0465239 1.2219664-.1386827 1.8220392l-.7369738 4.7503058h11.4441335c1.457205 0 2.8909998.5993356 3.9339348 1.6442289 1.004412 1.0067069 1.5524752 2.3135976 1.5429926 3.6797583-.0082973 1.1886454-.408936 2.3106488-1.1291672 3.2197517 1.0084125.9826745 1.5998881 2.3414634 1.5998881 3.7780995 0 1.8835208-.9811501 3.5712439-2.5373294 4.5130781.2751428.6448939.4173814 1.3384424.4173814 2.0529271 0 2.1587876-1.2939268 4.0395071-3.2110366 4.8549868.0983817.4032431.148017.8182811.148017 1.242018 0 2.8013226-2.2030687 5.1172791-5.0161335 5.2726788l-.0585253.0016218z" fill="#fff"/><path d="m1 21h14v26h-14z" fill="#49c6de" fill-rule="nonzero"/><path d="m2.12320853 22.1897952c-.02900285 0-.05729134.0302877-.05729134.0610296v23.4985018c0 .0308934.02828849.0608782.05729134.0608782h11.75344007c.0290028 0 .0574342-.0299848.0574342-.0608782v-23.4985018c0-.0307419-.0284314-.0610296-.0574342-.0610296zm11.75344007 25.8102048h-11.75344007c-1.17068641 0-2.12320853-1.009638-2.12320853-2.2506734v-23.4985018c0-1.2411868.95252212-2.2508248 2.12320853-2.2508248h11.75344007c1.1708293 0 2.1233514 1.009638 2.1233514 2.2508248v23.4985018c0 1.2410354-.9525221 2.2506734-2.1233514 2.2506734z" fill="#fff"/></g></svg>