<svg height="20" viewBox="0 0 20 20" width="20" xmlns="http://www.w3.org/2000/svg" xmlns:xlink="http://www.w3.org/1999/xlink"><mask id="a" fill="#fff"><path d="m21.7076024 19.2592593-3.8869396-3.8869396c-.1754386-.1754386-.4132554-.2729045-.662768-.2729045h-.6354776c1.0760234-1.3762183 1.7153996-3.1072125 1.7153996-4.9902534 0-4.4795322-3.6296297-8.10916185-8.1091618-8.10916185-4.47953222 0-8.10916187 3.62962965-8.10916187 8.10916185s3.62962965 8.1091618 8.10916187 8.1091618c1.8830409 0 3.6140351-.6393762 4.9902534-1.7153996v.6354776c0 .2495127.0974659.4873294.2729045.662768l3.8869396 3.8869396c.3664717.3664717.9590643.3664717 1.3216374 0l1.1033139-1.1033138c.3664717-.3664718.3664717-.9590644.0038986-1.3255361zm-11.5789474-4.1598441c-2.75633534 0-4.99025347-2.2300195-4.99025347-4.9902534 0-2.75633531 2.2300195-4.99025345 4.99025347-4.99025345 2.7563353 0 4.9902534 2.2300195 4.9902534 4.99025345 0 2.7563353-2.2300195 4.9902534-4.9902534 4.9902534z" fill="#fff" fill-rule="evenodd"/></mask><g fill="#007aff" fill-rule="evenodd" mask="url(#a)" transform="translate(-2 -2)"><path d="m0 0h24v24h-24z"/></g></svg>