<?xml version="1.0" encoding="UTF-8"?>
<svg width="14px" height="15px" viewBox="0 0 14 15" version="1.1" xmlns="http://www.w3.org/2000/svg" xmlns:xlink="http://www.w3.org/1999/xlink">
    <!-- Generator: Sketch 52.6 (67491) - http://www.bohemiancoding.com/sketch -->
    <title>bullseye copy 2</title>
    <desc>Created with Sketch.</desc>
    <defs>
        <path d="M14.7611696,13.9148148 L12.1180507,11.106501 C11.9987525,10.9797466 11.8370371,10.9093275 11.6673684,10.9093275 L11.2352437,10.9093275 C11.9669396,9.91500975 12.4017154,8.66436647 12.4017154,7.30386939 C12.4017154,4.06740738 9.93356726,1.44499996 6.88748537,1.44499996 C3.84140349,1.44499996 1.37325533,4.06740738 1.37325533,7.30386939 C1.37325533,10.5403314 3.84140349,13.1627388 6.88748537,13.1627388 C8.16795322,13.1627388 9.34502925,12.7007895 10.2808577,11.9233626 L10.2808577,12.3824951 C10.2808577,12.5627681 10.3471345,12.7345907 10.4664328,12.8613451 L13.1095517,15.6696589 C13.3587525,15.9344347 13.7617154,15.9344347 14.0082651,15.6696589 L14.7585186,14.8725147 C15.0077193,14.6077388 15.0077193,14.1795907 14.7611696,13.9148148 Z M6.88748537,10.9093275 C5.01317737,10.9093275 3.49411304,9.2981384 3.49411304,7.30386939 C3.49411304,5.31241714 5.0105263,3.69841128 6.88748537,3.69841128 C8.76179338,3.69841128 10.2808577,5.30960037 10.2808577,7.30386939 C10.2808577,9.29532164 8.76444445,10.9093275 6.88748537,10.9093275 Z" id="path-1"></path>
    </defs>
    <g id="Symbols" stroke="none" stroke-width="1" fill="none" fill-rule="evenodd">
        <g id="Search" transform="translate(-10.000000, -13.000000)">
            <g id="Group-38">
                <g id="Group-34">
                    <g id="search" transform="translate(9.000000, 11.578947)">
                        <mask id="mask-2" fill="white">
                            <use xlink:href="#path-1"></use>
                        </mask>
                        <g fill-rule="nonzero"></g>
                        <g id="🎨-color" stroke-width="1" fill-rule="evenodd" mask="url(#mask-2)" fill="#49C6DE">
                            <rect id="🎨-Color" fill-rule="nonzero" x="0" y="0" width="16.32" height="17.34"></rect>
                        </g>
                    </g>
                </g>
            </g>
        </g>
    </g>
</svg>