<svg xmlns="http://www.w3.org/2000/svg" width="39.974" height="39.974" viewBox="0 0 39.974 39.974">
  <g id="star" transform="translate(3.266 0.415)">
    <path id="Path_427" data-name="Path 427" d="M24,8.365,21.111,37.732l-6.771,4.84-1.4-1.153,3.612-11.888-4.788-3.36-5.12-3.733L7.2,20.886l7.262-.154,5.148-.245Z" transform="translate(-7.281 -6.452)" fill="#4cc5dd" opacity="0.5"/>
    <path id="Path_428" data-name="Path 428" d="M31.416,32.062l2.539,8.3a1.082,1.082,0,0,1-1.65,1.223l-9.764-7.068-9.766,7.067a1.082,1.082,0,0,1-1.65-1.223L14.693,28.7l-9.6-6.741a1.1,1.1,0,0,1,.63-1.979l11.97-.141L21.521,7.7a1.07,1.07,0,0,1,2.04,0l3.831,12.132,11.97.142a1.1,1.1,0,0,1,.63,1.979l-9.6,6.74" transform="translate(-5.82 -5.418)" fill="none" stroke="#4cc5dd" stroke-linecap="round" stroke-linejoin="round" stroke-miterlimit="10" stroke-width="3"/>
    <rect id="Rectangle_205" data-name="Rectangle 205" width="39.974" height="39.974" transform="translate(-3.266 -0.415)" fill="none"/>
  </g>
</svg>
