<svg id="Share" xmlns="http://www.w3.org/2000/svg" width="31" height="31" viewBox="0 0 31 31">
  <path id="path" d="M0,0H31V31H0Z" fill="none" fill-rule="evenodd"/>
  <path id="ic_share" d="M22.375,20.26a3.753,3.753,0,0,0-2.532,1l-9.21-5.382a4.261,4.261,0,0,0,.116-.908,4.261,4.261,0,0,0-.116-.908l9.106-5.33A3.885,3.885,0,1,0,18.5,5.89a4.261,4.261,0,0,0,.116.908L9.51,12.128a3.891,3.891,0,1,0,0,5.68l9.2,5.395a3.673,3.673,0,0,0-.1.843,3.772,3.772,0,1,0,3.772-3.787Z" transform="translate(0.875 0.583)" fill-rule="evenodd" opacity="0.54"/>
</svg>
