<svg height="18" viewBox="0 0 20 18" width="20" xmlns="http://www.w3.org/2000/svg" xmlns:xlink="http://www.w3.org/1999/xlink"><mask id="a" fill="#fff"><path d="m11.0034722 3.72916663-2.26736111 4.59722224-5.07291669.73958334c-.90972222.13194444-1.27430556 1.25347219-.61458333 1.89583339l3.6701389 3.5763889-.86805556 5.0520833c-.15625.9131945.80555556 1.5972222 1.61111112 1.1701389l4.53819447-2.3854167 4.5381945 2.3854167c.8055555.4236111 1.7673611-.2569444 1.6111111-1.1701389l-.8680556-5.0520833 3.6701389-3.5763889c.6597223-.6423612.2951389-1.76388895-.6145833-1.89583339l-5.0729167-.73958334-2.2673611-4.59722224c-.40625-.81944445-1.5833334-.82986112-1.9930556 0z" fill="#fff" fill-rule="evenodd"/></mask><g fill="#007aff" fill-rule="evenodd" mask="url(#a)" transform="translate(-2 -3)"><path d="m0 0h24v24h-24z"/></g></svg>