<svg height="51" viewBox="0 0 52 51" width="52" xmlns="http://www.w3.org/2000/svg"><g style="stroke:#fff;stroke-width:1.9;fill:none;fill-rule:evenodd;stroke-linecap:round;stroke-linejoin:round" transform="translate(1 1)"><path d="m48.1283333 37.1118205h-47.01666663c-.61444445 0-1.11111111-.4989091-1.11111111-1.1136364v-23.2716591c0-.6158409.49666666-1.1136364 1.11111111-1.1136364h47.01666663c.6133334 0 1.1111111.4977955 1.1111111 1.1136364v23.2716591c0 .6147273-.4977777 1.1136364-1.1111111 1.1136364z"/><path d="m30.1194444 24.7422159c0 3.0135-2.4633333 5.4557046-5.5 5.4557046-3.0377777 0-5.4988888-2.4422046-5.4988888-5.4557046s2.4611111-5.4557045 5.4988888-5.4557045c3.0366667 0 5.5 2.4422045 5.5 5.4557045z" fill="#49c6de"/><path d="m42.6117778 14.9782977h-35.96555558c-.01555555 2.2272728-.92222222 3.0858864-3.14444444 3.3876818v6.4435 6.4423864c2.22222222.3029091 3.12888889.4309773 3.14444444 2.65825h35.96555558c.1155555-1.1136364 1.4033333-2.3085682 3.1122222-2.646v-6.4546364-6.45575c-1.7088889-.3374318-2.9966667-1.148159-3.1122222-3.3754318z"/><path d="m28.2747778 37.2683977-11.0977778 11.1241137c-.4477778.4476818-1.1733333.4476818-1.62 0l-11.10111111-11.1263409"/><path d="m20.791 11.6259182 11.2588889-11.28447729c.4544444-.45547727 1.19-.45547727 1.6433333 0l11.2611111 11.28670459"/><path d="m40.1757778 11.6287023-.7422222-.7439091-4.3788889-4.38884093c-1.3911111.93545455-2.8166667 1.26175-4.4044445-.17484091l-5.2933333 5.30536364"/><path d="m9.14822222 37.2651682 1.33888888 1.3430454 4.3077778 4.3164546c1.6911111-1.2895909 2.3855555-1.813 3.8844444-.33075l5.3144445-5.3265227"/></g></svg>