<?xml version="1.0" encoding="UTF-8"?>
<svg width="52px" height="51px" viewBox="0 0 52 51" version="1.1" xmlns="http://www.w3.org/2000/svg" xmlns:xlink="http://www.w3.org/1999/xlink">
    <!-- Generator: Sketch 52.6 (67491) - http://www.bohemiancoding.com/sketch -->
    <title>Group 15</title>
    <desc>Created with Sketch.</desc>
    <g id="Avasa-1200" stroke="none" stroke-width="1" fill="none" fill-rule="evenodd" stroke-linecap="round" stroke-linejoin="round">
        <g id="Extra-large-≥1200px" transform="translate(-764.000000, -1625.000000)" stroke="#FFFFFF" stroke-width="1.9">
            <g id="Group-20-Copy" transform="translate(700.000000, 1603.000000)">
                <g id="Group-15" transform="translate(65.000000, 23.000000)">
                    <path d="M48.1283333,37.1118205 L1.11166667,37.1118205 C0.497222222,37.1118205 0.000555555556,36.6129114 0.000555555556,35.9981841 L0.000555555556,12.726525 C0.000555555556,12.1106841 0.497222222,11.6128886 1.11166667,11.6128886 L48.1283333,11.6128886 C48.7416667,11.6128886 49.2394444,12.1106841 49.2394444,12.726525 L49.2394444,35.9981841 C49.2394444,36.6129114 48.7416667,37.1118205 48.1283333,37.1118205 Z" id="Stroke-1"></path>
                    <path d="M30.1194444,24.7422159 C30.1194444,27.7557159 27.6561111,30.1979205 24.6194444,30.1979205 C21.5816667,30.1979205 19.1205556,27.7557159 19.1205556,24.7422159 C19.1205556,21.7287159 21.5816667,19.2865114 24.6194444,19.2865114 C27.6561111,19.2865114 30.1194444,21.7287159 30.1194444,24.7422159 Z" id="Stroke-3" fill="#49C6DE"></path>
                    <path d="M42.6117778,14.9782977 L6.64622222,14.9782977 C6.63066667,17.2055705 5.724,18.0641841 3.50177778,18.3659795 L3.50177778,24.8094795 L3.50177778,31.2518659 C5.724,31.554775 6.63066667,31.6828432 6.64622222,33.9101159 L42.6117778,33.9101159 C42.7273333,32.7964795 44.0151111,31.6015477 45.724,31.2641159 L45.724,24.8094795 L45.724,18.3537295 C44.0151111,18.0162977 42.7273333,17.2055705 42.6117778,14.9782977 Z" id="Stroke-5"></path>
                    <path d="M28.2747778,37.2683977 L17.177,48.3925114 C16.7292222,48.8401932 16.0036667,48.8401932 15.557,48.3925114 L4.45588889,37.2661705" id="Stroke-7"></path>
                    <path d="M20.791,11.6259182 L32.0498889,0.341440909 C32.5043333,-0.114036364 33.2398889,-0.114036364 33.6932222,0.341440909 L44.9543333,11.6281455" id="Stroke-9"></path>
                    <path d="M40.1757778,11.6287023 L39.4335556,10.8847932 L35.0546667,6.49595227 C33.6635556,7.43140682 32.238,7.75770227 30.6502222,6.32111136 L25.3568889,11.626475" id="Stroke-11"></path>
                    <path d="M9.14822222,37.2651682 L10.4871111,38.6082136 L14.7948889,42.9246682 C16.486,41.6350773 17.1804444,41.1116682 18.6793333,42.5939182 L23.9937778,37.2673955" id="Stroke-13"></path>
                </g>
            </g>
        </g>
    </g>
</svg>