<svg xmlns="http://www.w3.org/2000/svg" width="62.5" height="62.5" viewBox="0 0 62.5 62.5">
  <g id="star" transform="translate(0)">
    <path id="Path_428" data-name="Path 428" d="M46.5,46.208l3.97,12.98a1.691,1.691,0,0,1-2.58,1.912L32.62,50.048,17.352,61.1a1.691,1.691,0,0,1-2.579-1.912L20.35,40.949,5.336,30.41a1.723,1.723,0,0,1,.985-3.094l18.715-.221L31.025,8.125a1.673,1.673,0,0,1,3.189,0L40.2,27.1l18.715.221a1.723,1.723,0,0,1,.985,3.094L44.889,40.95" transform="translate(-1.371 -3.901)" fill="none" stroke="#687c80" stroke-linecap="round" stroke-linejoin="round" stroke-miterlimit="10" stroke-width="4"/>
    <rect id="Rectangle_205" data-name="Rectangle 205" width="62.5" height="62.5" transform="translate(0 0)" fill="none"/>
  </g>
</svg>
