<?xml version="1.0" encoding="UTF-8"?>
<svg width="20px" height="18px" viewBox="0 0 20 18" version="1.1" xmlns="http://www.w3.org/2000/svg" xmlns:xlink="http://www.w3.org/1999/xlink">
    <!-- Generator: Sketch 52.6 (67491) - http://www.bohemiancoding.com/sketch -->
    <title>bullseye</title>
    <desc>Created with Sketch.</desc>
    <defs>
        <path d="M11.0034722,3.72916663 L8.73611109,8.32638887 L3.6631944,9.06597221 C2.75347218,9.19791665 2.38888884,10.3194444 3.04861107,10.9618056 L6.71874997,14.5381945 L5.85069441,19.5902778 C5.69444441,20.5034723 6.65624997,21.1875 7.46180553,20.7604167 L12,18.375 L16.5381945,20.7604167 C17.34375,21.1840278 18.3055556,20.5034723 18.1493056,19.5902778 L17.28125,14.5381945 L20.9513889,10.9618056 C21.6111112,10.3194444 21.2465278,9.19791665 20.3368056,9.06597221 L15.2638889,8.32638887 L12.9965278,3.72916663 C12.5902778,2.90972218 11.4131944,2.89930551 11.0034722,3.72916663 Z" id="path-1"></path>
    </defs>
    <g id="Avasa-1024" stroke="none" stroke-width="1" fill="none" fill-rule="evenodd">
        <g id="Sherpa-Busy-Pros-2" transform="translate(-716.000000, -1344.000000)">
            <g id="Group" transform="translate(47.000000, 1158.000000)">
                <g id="star" transform="translate(667.000000, 183.000000)">
                    <mask id="mask-2" fill="white">
                        <use xlink:href="#path-1"></use>
                    </mask>
                    <g></g>
                    <g id="🎨-color" stroke-width="1" fill-rule="evenodd" mask="url(#mask-2)" fill="#007AFF">
                        <rect id="🎨-Color" x="0" y="0" width="24" height="24"></rect>
                    </g>
                </g>
            </g>
        </g>
    </g>
</svg>