<svg height="15" viewBox="0 0 14 15" width="14" xmlns="http://www.w3.org/2000/svg" xmlns:xlink="http://www.w3.org/1999/xlink"><mask id="a" fill="#fff"><path d="m14.7611696 13.9148148-2.6431189-2.8083138c-.1192982-.1267544-.2810136-.1971735-.4506823-.1971735h-.4321247c.7316959-.99431775 1.1664717-2.24496103 1.1664717-3.60545811 0-3.23646201-2.46814814-5.85886943-5.51423003-5.85886943-3.04608188 0-5.51423004 2.62240742-5.51423004 5.85886943s2.46814816 5.85886941 5.51423004 5.85886941c1.28046785 0 2.45754388-.4619493 3.39337233-1.2393762v.4591325c0 .180273.0662768.3520956.1855751.47885l2.6431189 2.8083138c.2492008.2647758.6521637.2647758.8987134 0l.7502535-.7971442c.2492007-.2647759.2492007-.692924.002651-.9576999zm-7.87368423-3.0054873c-1.874308 0-3.39337233-1.6111891-3.39337233-3.60545811 0-1.99145225 1.51641326-3.60545811 3.39337233-3.60545811 1.87430801 0 3.39337233 1.61118909 3.39337233 3.60545811 0 1.99145225-1.51641325 3.60545811-3.39337233 3.60545811z" fill="#fff" fill-rule="evenodd"/></mask><g fill="#49c6de" fill-rule="evenodd" mask="url(#a)" transform="translate(-1 -1.421053)"><path d="m0 0h16.32v17.34h-16.32z" fill-rule="nonzero"/></g></svg>