<svg height="62" viewBox="0 0 59 62" width="59" xmlns="http://www.w3.org/2000/svg"><g fill="none" fill-rule="evenodd"><path d="m8 14h42v15h-42z" fill="#cbf2f9" fill-rule="nonzero"/><path d="m7 14h44v15h-44z" fill="#49c6de" fill-rule="nonzero"/><g stroke="#004d88" stroke-linecap="round" stroke-linejoin="round" stroke-width="2.710027" transform="translate(2 2)"><path d="m46.5329951 46.3524581h-39.1877073c-.672 0-1.21560975-.5433488-1.21560975-1.2115581v-31.6596744c0-11.46109304 9.31648785-13.48081397 20.80878045-13.48081397 11.4922927 0 20.8101464 2.01972093 20.8101464 13.48081397v31.6596744c0 .6682093-.5449756 1.2115581-1.2156098 1.2115581z"/><path d="m7.51219512 12.0099302h39.60975608"/><path d="m7.51219512 27.1029535h39.60975608"/><path d="m19.804878 6.52155814h13.6585366"/><path d="m18.5803902 36.9783186c0 1.6616047-1.3399024 3.0076279-2.9939512 3.0076279s-2.9939512-1.3460232-2.9939512-3.0076279c0-1.6602326 1.3399024-3.0062558 2.9939512-3.0062558s2.9939512 1.3460232 2.9939512 3.0062558z"/><path d="m41.2857951 36.9783186c0 1.6616047-1.3399024 3.0076279-2.9939512 3.0076279s-2.9939512-1.3460232-2.9939512-3.0076279c0-1.6602326 1.3399024-3.0062558 2.9939512-3.0062558s2.9939512 1.3460232 2.9939512 3.0062558z"/><path d="m11.6097561 47.1886116-11.6097561 10.9767442"/><path d="m43.4799024 47.1886116 11.6097561 10.9767442"/><path d="m4.7804878 53.1727209h45.0731707"/></g></g></svg>