<?xml version="1.0" encoding="UTF-8"?>
<svg width="59px" height="62px" viewBox="0 0 59 62" version="1.1" xmlns="http://www.w3.org/2000/svg" xmlns:xlink="http://www.w3.org/1999/xlink">
    <!-- Generator: Sketch 52.6 (67491) - http://www.bohemiancoding.com/sketch -->
    <title>Group 28</title>
    <desc>Created with Sketch.</desc>
    <g id="Avasa-1200" stroke="none" stroke-width="1" fill="none" fill-rule="evenodd">
        <g id="Extra-large-≥1200px" transform="translate(-249.000000, -1013.000000)">
            <g id="Group-3" transform="translate(135.000000, 970.000000)">
                <g id="Group" transform="translate(49.000000, 0.000000)">
                    <g id="Group-28" transform="translate(67.000000, 45.000000)">
                        <rect id="Rectangle" fill="#CBF2F9" fill-rule="nonzero" x="6" y="12" width="42" height="15"></rect>
                        <rect id="Rectangle" fill="#49C6DE" fill-rule="nonzero" x="5" y="12" width="44" height="15"></rect>
                        <g id="Group-19" stroke="#004D88" stroke-linecap="round" stroke-linejoin="round" stroke-width="2.7100271">
                            <path d="M46.5329951,46.3524581 L7.3452878,46.3524581 C6.6732878,46.3524581 6.12967805,45.8091093 6.12967805,45.1409 L6.12967805,13.4812256 C6.12967805,2.02013256 15.4461659,0.000411627907 26.9384585,0.000411627907 C38.4307512,0.000411627907 47.7486049,2.02013256 47.7486049,13.4812256 L47.7486049,45.1409 C47.7486049,45.8091093 47.2036293,46.3524581 46.5329951,46.3524581 Z" id="Stroke-1"></path>
                            <path d="M7.51219512,12.0099302 L47.1219512,12.0099302" id="Stroke-3"></path>
                            <path d="M7.51219512,27.1029535 L47.1219512,27.1029535" id="Stroke-5"></path>
                            <path d="M19.804878,6.52155814 L33.4634146,6.52155814" id="Stroke-7"></path>
                            <path d="M18.5803902,36.9783186 C18.5803902,38.6399233 17.2404878,39.9859465 15.586439,39.9859465 C13.9323902,39.9859465 12.5924878,38.6399233 12.5924878,36.9783186 C12.5924878,35.318086 13.9323902,33.9720628 15.586439,33.9720628 C17.2404878,33.9720628 18.5803902,35.318086 18.5803902,36.9783186 Z" id="Stroke-9"></path>
                            <path d="M41.2857951,36.9783186 C41.2857951,38.6399233 39.9458927,39.9859465 38.2918439,39.9859465 C36.6377951,39.9859465 35.2978927,38.6399233 35.2978927,36.9783186 C35.2978927,35.318086 36.6377951,33.9720628 38.2918439,33.9720628 C39.9458927,33.9720628 41.2857951,35.318086 41.2857951,36.9783186 Z" id="Stroke-11"></path>
                            <path d="M11.6097561,47.1886116 L0,58.1653558" id="Stroke-13"></path>
                            <path d="M43.4799024,47.1886116 L55.0896585,58.1653558" id="Stroke-15"></path>
                            <path d="M4.7804878,53.1727209 L49.8536585,53.1727209" id="Stroke-17"></path>
                        </g>
                    </g>
                </g>
            </g>
        </g>
    </g>
</svg>