<?xml version="1.0" encoding="utf-8"?>
<!-- Generator: Adobe Illustrator 16.0.0, SVG Export Plug-In . SVG Version: 6.00 Build 0)  -->
<!DOCTYPE svg PUBLIC "-//W3C//DTD SVG 1.1//EN" "http://www.w3.org/Graphics/SVG/1.1/DTD/svg11.dtd">
<svg version="1.1" id="Layer_1" xmlns="http://www.w3.org/2000/svg" xmlns:xlink="http://www.w3.org/1999/xlink" x="0px" y="0px"
	 width="24px" height="24px" viewBox="0 0 24 24" enable-background="new 0 0 24 24" xml:space="preserve">
<title>twitter</title>
<desc>Created with Sketch.</desc>
<g id="twitter">
	<defs>
		<filter id="Adobe_OpacityMaskFilter" filterUnits="userSpaceOnUse" x="0" y="0" width="24" height="24">
			<feColorMatrix  type="matrix" values="1 0 0 0 0  0 1 0 0 0  0 0 1 0 0  0 0 0 1 0"/>
		</filter>
	</defs>
	<mask maskUnits="userSpaceOnUse" x="0" y="0" width="24" height="24" id="mask-2">
		<g filter="url(#Adobe_OpacityMaskFilter)">
			<path id="path-1" fill="#FFFFFF" d="M19.944,7.926c0.013,0.178,0.013,0.355,0.013,0.533c0,5.418-4.125,11.663-11.663,11.663
				c-2.322,0-4.479-0.673-6.294-1.841c0.33,0.039,0.647,0.051,0.99,0.051c1.917,0,3.68-0.646,5.089-1.751
				c-1.802-0.038-3.312-1.218-3.833-2.843c0.254,0.039,0.508,0.064,0.774,0.064c0.368,0,0.736-0.051,1.079-0.141
				c-1.878-0.381-3.287-2.03-3.287-4.022V9.589c0.546,0.305,1.18,0.495,1.853,0.521C3.561,9.373,2.837,8.117,2.837,6.695
				c0-0.761,0.203-1.459,0.559-2.068c2.018,2.487,5.051,4.112,8.452,4.289c-0.063-0.304-0.102-0.622-0.102-0.939
				c0-2.259,1.828-4.099,4.1-4.099c1.18,0,2.246,0.495,2.994,1.294c0.927-0.178,1.814-0.521,2.602-0.99
				c-0.305,0.952-0.951,1.751-1.802,2.259c0.825-0.088,1.624-0.317,2.36-0.634C21.441,6.619,20.744,7.343,19.944,7.926z"/>
		</g>
	</mask>
	<g id="_xD83C__xDFA8_-color" mask="url(#mask-2)">
		<rect id="_xD83C__xDFA8_-Color" fill="#49C6DE" width="24" height="24"/>
	</g>
</g>
</svg>
