<svg enable-background="new 0 0 24 24" height="24" viewBox="0 0 24 24" width="24" xmlns="http://www.w3.org/2000/svg" xmlns:xlink="http://www.w3.org/1999/xlink"><mask id="a" height="24" maskUnits="userSpaceOnUse" width="24" x="0" y="0"><path d="m19.944 7.926c.013.178.013.355.013.533 0 5.418-4.125 11.663-11.663 11.663-2.322 0-4.479-.673-6.294-1.841.33.039.647.051.99.051 1.917 0 3.68-.646 5.089-1.751-1.802-.038-3.312-1.218-3.833-2.843.254.039.508.064.774.064.368 0 .736-.051 1.079-.141-1.878-.381-3.287-2.03-3.287-4.022v-.05c.546.305 1.18.495 1.853.521-1.104-.737-1.828-1.993-1.828-3.415 0-.761.203-1.459.559-2.068 2.018 2.487 5.051 4.112 8.452 4.289-.063-.304-.102-.622-.102-.939 0-2.259 1.828-4.099 4.1-4.099 1.18 0 2.246.495 2.994 1.294.927-.178 1.814-.521 2.602-.99-.305.952-.951 1.751-1.802 2.259.825-.088 1.624-.317 2.36-.634-.559.812-1.256 1.536-2.056 2.119z" fill="#fff"/></mask><g mask="url(#a)"><path d="m0 0h24v24h-24z" fill="#49c6de"/></g></svg>