<svg height="20" viewBox="0 0 20 20" width="20" xmlns="http://www.w3.org/2000/svg" xmlns:xlink="http://www.w3.org/1999/xlink"><mask id="a" fill="#fff"><path d="m12 13.25c3.1054688 0 5.625-2.5195313 5.625-5.62500002 0-3.10546877-2.5195312-5.62500003-5.625-5.62500003-3.10546877 0-5.62500003 2.51953126-5.62500003 5.62500003 0 3.10546872 2.51953126 5.62500002 5.62500003 5.62500002zm5 1.25h-2.1523437c-.8671875.3984375-1.8320313.625-2.8476563.625s-1.9765625-.2265625-2.84765626-.625h-2.15234377c-2.76171876 0-5.00000002 2.2382813-5.00000002 5v.625c0 1.0351563.83984375 1.8750001 1.87500001 1.8750001h16.25000004c1.0351563 0 1.8750001-.8398438 1.8750001-1.8750001v-.625c0-2.7617187-2.2382813-5-5.0000001-5z" fill="#fff" fill-rule="evenodd"/></mask><g fill="#007aff" fill-rule="evenodd" mask="url(#a)" transform="translate(-2 -2)"><path d="m0 0h24v24h-24z"/></g></svg>