<svg height="16" viewBox="0 0 20 16" width="20" xmlns="http://www.w3.org/2000/svg" xmlns:xlink="http://www.w3.org/1999/xlink"><mask id="a" fill="#fff"><path d="m21.5 10.5h-2v-2.00000002c0-.275-.225-.5-.5-.5h-1c-.275 0-.5.225-.5.5v2.00000002h-2c-.275 0-.5.225-.5.5v1c0 .275.225.5.5.5h2v2c0 .275.225.5.5.5h1c.275 0 .5-.225.5-.5v-2h2c.275 0 .5000001-.225.5000001-.5v-1c0-.275-.2250001-.5-.5000001-.5zm-12.50000002 1.5c2.20937502 0 4.00000002-1.790625 4.00000002-4.00000002 0-2.20937501-1.790625-4.00000002-4.00000002-4.00000002-2.20937501 0-4.00000002 1.79062501-4.00000002 4.00000002 0 2.20937502 1.79062501 4.00000002 4.00000002 4.00000002zm2.80000002 1h-.521875c-.69375.31875-1.46562501.5-2.27812501.5-.81250001 0-1.58125001-.18125-2.27812502-.5h-.521875c-2.31875001 0-4.20000002 1.88125-4.20000002 4.2v1.3c0 .828125.671875 1.5 1.50000001 1.5h11.00000004c.828125 0 1.5-.671875 1.5-1.5v-1.3c0-2.31875-1.88125-4.2-4.2-4.2z" fill="#fff" fill-rule="evenodd"/></mask><g fill="#007aff" fill-rule="evenodd" mask="url(#a)" transform="translate(-2 -4)"><path d="m0 0h24v24h-24z"/></g></svg>