<svg height="51" viewBox="0 0 48 51" width="48" xmlns="http://www.w3.org/2000/svg"><g fill="none" fill-rule="evenodd" stroke-linecap="round" stroke-linejoin="round" stroke-width="2.307692" transform="translate(2 2)"><g stroke="#fff"><path d="m29.4058846 10.8614857c0 5.9977143-5.0711538 10.8605714-11.3261538 10.8605714s-11.32615388-4.8628571-11.32615388-10.8605714c0-5.99885713 5.07115388-10.86171427 11.32615388-10.86171427s11.3261538 4.86285714 11.3261538 10.86171427z"/><path d="m44.5399615 37.5646857c0 5.3131429-4.35 9.6205714-9.7130769 9.6205714s-9.7130769-4.3074285-9.7130769-9.6205714c0-5.312 4.35-9.6194286 9.7130769-9.6194286s9.7130769 4.3074286 9.7130769 9.6194286z"/><path d="m25.1139231 37.0099429c0-4.568 3.2180769-8.1074286 7.5288461-9.0891429-2.6976923-3.5497143-7.08-6.3371429-14.2084615-6.3371429-15.34153847 0-17.98038462 13.0685715-18.42923078 17.2114286-.06807692.6388572.53884616.704 1.32.704h17.10923078 7.1838461c-.321923-1.1428571-.5042307-1.424-.5042307-2.4891428z"/></g><path d="m35.13 31.4988571v10.2857143" stroke="#49c6de"/><path d="m40.8992308 37.2131429h-11.5384616" stroke="#49c6de"/></g></svg>