<?xml version="1.0" encoding="UTF-8"?>
<svg width="48px" height="51px" viewBox="0 0 48 51" version="1.1" xmlns="http://www.w3.org/2000/svg" xmlns:xlink="http://www.w3.org/1999/xlink">
    <!-- Generator: Sketch 52.6 (67491) - http://www.bohemiancoding.com/sketch -->
    <title>Group 11</title>
    <desc>Created with Sketch.</desc>
    <g id="Avasa-1200" stroke="none" stroke-width="1" fill="none" fill-rule="evenodd" stroke-linecap="round" stroke-linejoin="round">
        <g id="Extra-large-≥1200px" transform="translate(-179.000000, -1632.000000)" stroke-width="2.30769231">
            <g id="Group-26-Copy" transform="translate(114.000000, 1603.000000)">
                <g id="Group-11" transform="translate(67.000000, 31.000000)">
                    <path d="M29.4058846,10.8614857 C29.4058846,16.8592 24.3347308,21.7220571 18.0797308,21.7220571 C11.8247308,21.7220571 6.75357692,16.8592 6.75357692,10.8614857 C6.75357692,4.86262857 11.8247308,-0.000228571429 18.0797308,-0.000228571429 C24.3347308,-0.000228571429 29.4058846,4.86262857 29.4058846,10.8614857 Z" id="Stroke-1" stroke="#FFFFFF"></path>
                    <path d="M44.5399615,37.5646857 C44.5399615,42.8778286 40.1899615,47.1852571 34.8268846,47.1852571 C29.4638077,47.1852571 25.1138077,42.8778286 25.1138077,37.5646857 C25.1138077,32.2526857 29.4638077,27.9452571 34.8268846,27.9452571 C40.1899615,27.9452571 44.5399615,32.2526857 44.5399615,37.5646857 Z" id="Stroke-3" stroke="#FFFFFF"></path>
                    <path d="M25.1139231,37.0099429 C25.1139231,32.4419429 28.332,28.9025143 32.6427692,27.9208 C29.9450769,24.3710857 25.5627692,21.5836571 18.4343077,21.5836571 C3.09276923,21.5836571 0.453923077,34.6522286 0.00507692308,38.7950857 C-0.063,39.4339429 0.543923077,39.4990857 1.32507692,39.4990857 L18.4343077,39.4990857 L25.6181538,39.4990857 C25.2962308,38.3562286 25.1139231,38.0750857 25.1139231,37.0099429 Z" id="Stroke-5" stroke="#FFFFFF"></path>
                    <path d="M35.13,31.4988571 L35.13,41.7845714" id="Stroke-7" stroke="#49C6DE"></path>
                    <path d="M40.8992308,37.2131429 L29.3607692,37.2131429" id="Stroke-9" stroke="#49C6DE"></path>
                </g>
            </g>
        </g>
    </g>
</svg>