<?xml version="1.0" encoding="utf-8"?>
<!-- Generator: Adobe Illustrator 16.0.0, SVG Export Plug-In . SVG Version: 6.00 Build 0)  -->
<!DOCTYPE svg PUBLIC "-//W3C//DTD SVG 1.1//EN" "http://www.w3.org/Graphics/SVG/1.1/DTD/svg11.dtd">
<svg version="1.1" id="Layer_1" xmlns="http://www.w3.org/2000/svg" xmlns:xlink="http://www.w3.org/1999/xlink" x="0px" y="0px"
	 width="24px" height="24px" viewBox="0 0 24 24" enable-background="new 0 0 24 24" xml:space="preserve">
<title>youtube</title>
<desc>Created with Sketch.</desc>
<g id="youtube">
	<defs>
		<filter id="Adobe_OpacityMaskFilter" filterUnits="userSpaceOnUse" x="0" y="0" width="24" height="24">
			<feColorMatrix  type="matrix" values="1 0 0 0 0  0 1 0 0 0  0 0 1 0 0  0 0 0 1 0"/>
		</filter>
	</defs>
	<mask maskUnits="userSpaceOnUse" x="0" y="0" width="24" height="24" id="mask-2">
		<g filter="url(#Adobe_OpacityMaskFilter)">
			<path id="path-1" fill="#FFFFFF" d="M21.086,7.419c-0.219-0.821-0.861-1.468-1.678-1.688C17.93,5.333,12,5.333,12,5.333
				s-5.93,0-7.409,0.398c-0.816,0.22-1.458,0.866-1.677,1.688c-0.396,1.489-0.396,4.594-0.396,4.594s0,3.105,0.396,4.594
				c0.218,0.821,0.861,1.441,1.677,1.66C6.07,18.666,12,18.666,12,18.666s5.93,0,7.408-0.398c0.816-0.219,1.459-0.839,1.678-1.66
				c0.396-1.488,0.396-4.594,0.396-4.594S21.481,8.908,21.086,7.419z M10.061,14.833V9.194l4.956,2.82L10.061,14.833z"/>
		</g>
	</mask>
	<g id="_xD83C__xDFA8_-color" mask="url(#mask-2)">
		<rect id="_xD83C__xDFA8_-Color" fill="#49C6DE" width="24" height="24"/>
	</g>
</g>
</svg>
