<svg enable-background="new 0 0 24 24" height="24" viewBox="0 0 24 24" width="24" xmlns="http://www.w3.org/2000/svg" xmlns:xlink="http://www.w3.org/1999/xlink"><mask id="a" height="24" maskUnits="userSpaceOnUse" width="24" x="0" y="0"><path d="m21.086 7.419c-.219-.821-.861-1.468-1.678-1.688-1.478-.398-7.408-.398-7.408-.398s-5.93 0-7.409.398c-.816.22-1.458.866-1.677 1.688-.396 1.489-.396 4.594-.396 4.594s0 3.105.396 4.594c.218.821.861 1.441 1.677 1.66 1.479.399 7.409.399 7.409.399s5.93 0 7.408-.398c.816-.219 1.459-.839 1.678-1.66.396-1.488.396-4.594.396-4.594s-.001-3.106-.396-4.595zm-11.025 7.414v-5.639l4.956 2.82z" fill="#fff"/></mask><g mask="url(#a)"><path d="m0 0h24v24h-24z" fill="#49c6de"/></g></svg>