<?xml version="1.0" encoding="utf-8"?>
<!-- Generator: Adobe Illustrator 19.0.0, SVG Export Plug-In . SVG Version: 6.00 Build 0)  -->
<svg version="1.1" id="Capa_1" xmlns="http://www.w3.org/2000/svg" xmlns:xlink="http://www.w3.org/1999/xlink" x="0px" y="0px"
	 viewBox="0 0 144 144" style="enable-background:new 0 0 144 144;" xml:space="preserve">
<style type="text/css">
	.st0{fill:#5AC8DF;stroke:#004D88;stroke-width:6;stroke-miterlimit:10;}
	.st1{fill:#5AC8DF;stroke:#004D88;stroke-width:2;stroke-miterlimit:10;}
</style>
<g>
	<g id="Home_2_">
		<g>
			<path class="st0" d="M110.9,76.2L62.1,34.4c-0.2-0.1-0.3-0.2-0.5-0.3c-0.1-0.1-0.2-0.2-0.4-0.3s-0.4-0.2-0.6-0.3
				c-0.1-0.1-0.3-0.2-0.4-0.2c-0.2-0.1-0.4-0.1-0.6-0.2c-0.4-0.1-0.8-0.2-1.2-0.2c-0.1,0-0.3,0-0.4,0c-0.2,0-0.4,0-0.6,0
				c-0.2,0-0.4,0-0.5,0.1c-0.2,0-0.3,0.1-0.5,0.1c-0.2,0.1-0.4,0.1-0.6,0.2c-0.2,0.1-0.3,0.1-0.5,0.2c-0.2,0.1-0.4,0.2-0.5,0.3
				s-0.3,0.2-0.4,0.3c-0.1,0.1-0.3,0.2-0.4,0.3L5.1,76.2c-2.6,2.2-2.8,6-0.6,8.5s6.1,2.8,8.7,0.6l4.2-3.6l0,0v37.8
				c0,8.3,6.9,15.2,15.3,15.2h9.2c3.6,0,6.2,0,6.2,0l0,0v-32.1c0-1.7,2.4-5.2,6.7-5.2h7c5.1,0.1,6.1,3.5,6.1,5.2l0.1,32
				c0,0,7,0,7.5,0c1,0,2,0,3.1,0c1.6,0,3.1,0,4.7,0c8.5,0,15.4-6.8,15.4-15.1V81.7l0,0l4.2,3.6c1.2,1,2.6,1.5,4,1.5
				c1.7,0,3.4-0.7,4.6-2.1C113.7,82.2,113.5,78.4,110.9,76.2z"/>
		</g>
	</g>
</g>
<g>
	<path class="st1" d="M143.9,25.8c-1.1-11.9-9.5-20.5-20-20.5c-7,0-13.4,3.8-17,9.8c-3.6-6.1-9.7-9.8-16.6-9.8
		c-10.5,0-18.9,8.6-20,20.5c-0.1,0.5-0.4,3.3,0.6,7.8C72.4,40.1,76,46,81.1,50.7L106.8,74L133,50.7c5.2-4.7,8.7-10.6,10.2-17.1
		C144.3,29.1,144,26.3,143.9,25.8z M140.5,32.9c-1.4,5.9-4.6,11.3-9.4,15.6l-24.3,21.7L83,48.6c-4.7-4.3-8-9.7-9.4-15.6
		c-1-4.3-0.6-6.7-0.6-6.7v-0.1c0.9-10.4,8.1-18,17.2-18c6.7,0,12.5,4.1,15.3,10.7l1.3,3.1l1.3-3.1c2.7-6.5,8.9-10.7,15.7-10.7
		c9,0,16.3,7.6,17.2,18.1C141.1,26.3,141.5,28.7,140.5,32.9z"/>
</g>
</svg>
