<svg enable-background="new 0 0 144 144" viewBox="0 0 144 144" xmlns="http://www.w3.org/2000/svg"><g fill="#5ac8df" stroke="#004d88" stroke-miterlimit="10"><path d="m110.9 76.2-48.8-41.8c-.2-.1-.3-.2-.5-.3-.1-.1-.2-.2-.4-.3s-.4-.2-.6-.3c-.1-.1-.3-.2-.4-.2-.2-.1-.4-.1-.6-.2-.4-.1-.8-.2-1.2-.2-.1 0-.3 0-.4 0-.2 0-.4 0-.6 0s-.4 0-.5.1c-.2 0-.3.1-.5.1-.2.1-.4.1-.6.2s-.3.1-.5.2-.4.2-.5.3-.3.2-.4.3-.3.2-.4.3l-48.9 41.8c-2.6 2.2-2.8 6-.6 8.5s6.1 2.8 8.7.6l4.2-3.6v37.8c0 8.3 6.9 15.2 15.3 15.2h9.2 6.2v-32.1c0-1.7 2.4-5.2 6.7-5.2h7c5.1.1 6.1 3.5 6.1 5.2l.1 32h7.5 3.1 4.7c8.5 0 15.4-6.8 15.4-15.1v-37.8l4.2 3.6c1.2 1 2.6 1.5 4 1.5 1.7 0 3.4-.7 4.6-2.1 2.2-2.5 2-6.3-.6-8.5z" stroke-width="6"/><path d="m143.9 25.8c-1.1-11.9-9.5-20.5-20-20.5-7 0-13.4 3.8-17 9.8-3.6-6.1-9.7-9.8-16.6-9.8-10.5 0-18.9 8.6-20 20.5-.1.5-.4 3.3.6 7.8 1.5 6.5 5.1 12.4 10.2 17.1l25.7 23.3 26.2-23.3c5.2-4.7 8.7-10.6 10.2-17.1 1.1-4.5.8-7.3.7-7.8zm-3.4 7.1c-1.4 5.9-4.6 11.3-9.4 15.6l-24.3 21.7-23.8-21.6c-4.7-4.3-8-9.7-9.4-15.6-1-4.3-.6-6.7-.6-6.7v-.1c.9-10.4 8.1-18 17.2-18 6.7 0 12.5 4.1 15.3 10.7l1.3 3.1 1.3-3.1c2.7-6.5 8.9-10.7 15.7-10.7 9 0 16.3 7.6 17.2 18.1.1 0 .5 2.4-.5 6.6z" stroke-width="2"/></g></svg>