<svg enable-background="new 0 0 1024 1024" height="1024" viewBox="0 0 1024 1024" width="1024" xmlns="http://www.w3.org/2000/svg" xmlns:xlink="http://www.w3.org/1999/xlink"><clipPath id="a"><path d="m97.19-.001h829.621v1024.002h-829.621z"/></clipPath><g fill="#fff"><path d="m826.213 448.913c-1.666 0-3.373-.224-5.064-.688-10.113-2.79-16.049-13.249-13.259-23.363 7.281-26.4 10.975-53.806 10.975-81.454 0-168.406-137.009-305.415-305.41-305.415-168.409 0-305.418 137.009-305.418 305.415 0 26.106 3.298 52.035 9.801 77.055 2.638 10.155-3.453 20.526-13.607 23.167-10.142 2.635-20.521-3.45-23.164-13.61-7.313-28.144-11.023-57.282-11.023-86.612 0-189.355 154.053-343.409 343.412-343.409 189.355 0 343.409 154.054 343.409 343.409 0 31.063-4.152 61.867-12.347 91.558-2.328 8.424-9.971 13.947-18.305 13.947z"/><path d="m512.711 922.366c-5.823 0-11.331-2.672-14.933-7.257l-244.381-310.943c-6.482-8.249-5.051-20.191 3.198-26.677 8.244-6.485 20.193-5.049 26.673 3.2l229.154 291.568 220.691-291.896c6.328-8.36 18.241-10.013 26.612-3.69 8.364 6.326 10.025 18.242 3.692 26.607l-235.554 311.545c-3.554 4.706-9.082 7.483-14.972 7.543-.058 0-.118 0-.18 0z"/><path d="m564.429 508.843h-22.976c-9.484 0-17.174-7.689-17.174-17.173v-22.981c0-9.484 7.689-17.174 17.174-17.174h22.976c9.484 0 17.174 7.689 17.174 17.174v22.981c0 9.484-7.69 17.173-17.174 17.173"/><path d="m481.479 508.843h-22.979c-9.484 0-17.174-7.689-17.174-17.173v-22.981c0-9.484 7.689-17.174 17.174-17.174h22.978c9.484 0 17.174 7.689 17.174 17.174v22.981c0 9.484-7.689 17.173-17.173 17.173"/><path d="m481.479 585.46h-22.979c-9.484 0-17.174-7.689-17.174-17.174v-22.978c0-9.487 7.689-17.174 17.174-17.174h22.978c9.484 0 17.174 7.687 17.174 17.174v22.978c0 9.485-7.689 17.174-17.173 17.174"/><path d="m564.429 585.46h-22.976c-9.484 0-17.174-7.689-17.174-17.174v-22.978c0-9.487 7.689-17.174 17.174-17.174h22.976c9.484 0 17.174 7.687 17.174 17.174v22.978c0 9.485-7.69 17.174-17.174 17.174"/><path d="m511.997 1024.001c-19.08 0-81.328-2.7-81.328-37.4 0-34.698 62.249-37.396 81.328-37.396s81.333 2.697 81.333 37.396c0 34.7-62.254 37.4-81.333 37.4z"/><path clip-path="url(#a)" d="m558.637 995.065h.051z"/><path clip-path="url(#a)" d="m921.241 598.302-196.307-196.307 2.744-102.156c.263-9.825-7.488-17.999-17.318-18.262l-3.842-.108c-9.819-.263-17.999 7.488-18.268 17.313l-1.732 64.791-161.089-161.089c-7.127-7.127-19.742-7.122-26.864 0l-395.81 395.822c-7.418 7.417-7.418 19.441 0 26.862 7.417 7.419 19.448 7.424 26.864-.008l382.378-382.377 382.38 382.377c3.708 3.719 8.571 5.567 13.435 5.567 4.858 0 9.722-1.849 13.43-5.567 7.421-7.412 7.421-19.436-.001-26.858z"/></g></svg>