<?xml version="1.0" encoding="utf-8"?>
<!-- Generator: Adobe Illustrator 16.0.0, SVG Export Plug-In . SVG Version: 6.00 Build 0)  -->
<!DOCTYPE svg PUBLIC "-//W3C//DTD SVG 1.1//EN" "http://www.w3.org/Graphics/SVG/1.1/DTD/svg11.dtd">
<svg version="1.1" xmlns="http://www.w3.org/2000/svg" xmlns:xlink="http://www.w3.org/1999/xlink" x="0px" y="0px"
	 width="39.981px" height="20.636px" viewBox="0 0 39.981 20.636" enable-background="new 0 0 39.981 20.636" xml:space="preserve">
<g id="Layer_2" display="none">
	<rect x="-0.01" y="-9.683" display="inline" fill="#F7941E" width="40.001" height="40.001"/>
</g>
<g id="Layer_1">
	<g>
		<path fill-rule="evenodd" clip-rule="evenodd" fill="#FFFFFF" d="M14.228,9.028c-0.033,0-0.066-0.005-0.1-0.014
			c-0.2-0.057-0.316-0.267-0.261-0.47c0.144-0.531,0.216-1.082,0.216-1.639c0-3.387-2.702-6.142-6.022-6.142
			c-3.321,0-6.022,2.755-6.022,6.142c0,0.525,0.065,1.047,0.193,1.55C2.284,8.66,2.164,8.869,1.963,8.922
			C1.764,8.975,1.559,8.853,1.507,8.648C1.362,8.082,1.29,7.496,1.29,6.906C1.29,3.099,4.327,0,8.061,0
			c3.733,0,6.771,3.099,6.771,6.906c0,0.625-0.082,1.244-0.243,1.841C14.543,8.917,14.392,9.028,14.228,9.028"/>
		<path fill-rule="evenodd" clip-rule="evenodd" fill="#FFFFFF" d="M8.149,18.701c-0.116,0-0.226-0.056-0.297-0.147l-4.869-6.311
			c-0.128-0.167-0.1-0.409,0.064-0.541s0.402-0.102,0.531,0.065l4.565,5.916l4.396-5.923c0.126-0.17,0.364-0.203,0.53-0.074
			c0.167,0.127,0.2,0.369,0.074,0.539l-4.692,6.321C8.379,18.644,8.27,18.7,8.152,18.701C8.151,18.701,8.15,18.701,8.149,18.701"/>
		<path fill-rule="evenodd" clip-rule="evenodd" fill="#FFFFFF" d="M9.287,10.318H8.77c-0.214,0-0.387-0.174-0.387-0.387V9.414
			c0-0.213,0.173-0.386,0.387-0.386h0.517c0.213,0,0.386,0.173,0.386,0.386v0.518C9.673,10.145,9.5,10.318,9.287,10.318"/>
		<path fill-rule="evenodd" clip-rule="evenodd" fill="#FFFFFF" d="M7.674,10.318H7.158c-0.214,0-0.387-0.174-0.387-0.387V9.414
			c0-0.213,0.173-0.386,0.387-0.386h0.517c0.213,0,0.387,0.173,0.387,0.386v0.518C8.061,10.145,7.888,10.318,7.674,10.318"/>
		<path fill-rule="evenodd" clip-rule="evenodd" fill="#FFFFFF" d="M7.674,11.93H7.158c-0.214,0-0.387-0.173-0.387-0.386v-0.518
			c0-0.213,0.173-0.386,0.387-0.386h0.517c0.213,0,0.387,0.173,0.387,0.386v0.518C8.061,11.757,7.888,11.93,7.674,11.93"/>
		<path fill-rule="evenodd" clip-rule="evenodd" fill="#FFFFFF" d="M9.287,11.93H8.77c-0.214,0-0.387-0.173-0.387-0.386v-0.518
			c0-0.213,0.173-0.386,0.387-0.386h0.517c0.213,0,0.386,0.173,0.386,0.386v0.518C9.673,11.757,9.5,11.93,9.287,11.93"/>
		<path fill-rule="evenodd" clip-rule="evenodd" fill="#FFFFFF" d="M8.383,20.636c-0.378,0-1.613-0.048-1.613-0.646
			c0-0.597,1.235-0.645,1.613-0.645s1.612,0.048,1.612,0.645C9.995,20.588,8.761,20.636,8.383,20.636"/>
		<polyline fill-rule="evenodd" clip-rule="evenodd" fill="#FFFFFF" points="9.272,19.835 9.273,19.835 9.272,19.835 		"/>
		<path fill-rule="evenodd" clip-rule="evenodd" fill="#FFFFFF" d="M16.559,11.919l-3.944-3.917l0.055-2.039
			c0.005-0.195-0.15-0.358-0.348-0.364l-0.078-0.002c-0.197-0.005-0.361,0.149-0.366,0.346l-0.036,1.293L8.605,4.021
			c-0.143-0.142-0.396-0.142-0.54,0l-7.954,7.898c-0.149,0.148-0.149,0.388,0,0.535c0.149,0.148,0.391,0.148,0.54,0l7.684-7.629
			l7.684,7.629c0.075,0.075,0.172,0.111,0.27,0.111c0.098,0,0.195-0.036,0.27-0.111C16.708,12.307,16.708,12.067,16.559,11.919"/>
		<path fill-rule="evenodd" clip-rule="evenodd" fill="#FFFFFF" d="M37.438,10.516c-0.102-0.032-0.182-0.077-0.244-0.134
			c-0.064-0.055-0.109-0.113-0.139-0.175s-0.043-0.123-0.043-0.184c0-0.195,0.105-0.354,0.318-0.478
			c0.211-0.122,0.498-0.211,0.857-0.267l1.014-0.159v0.209c0,0.184-0.033,0.351-0.1,0.502c-0.066,0.15-0.16,0.279-0.283,0.389
			c-0.123,0.108-0.27,0.193-0.441,0.254c-0.172,0.063-0.359,0.093-0.566,0.093C37.663,10.566,37.538,10.549,37.438,10.516z
			 M36.341,10.574c0.068,0.146,0.17,0.269,0.299,0.373c0.129,0.103,0.285,0.185,0.473,0.246c0.186,0.062,0.391,0.092,0.613,0.092
			c0.131,0,0.273-0.014,0.424-0.042c0.152-0.028,0.297-0.069,0.438-0.125s0.266-0.124,0.373-0.205
			c0.109-0.081,0.189-0.175,0.242-0.279v0.342c0,0.063,0.021,0.114,0.066,0.159c0.047,0.045,0.1,0.066,0.164,0.066h0.316
			c0.064,0,0.119-0.021,0.164-0.066c0.047-0.045,0.068-0.097,0.068-0.159v-2.55c0-0.267-0.043-0.504-0.133-0.71
			c-0.088-0.206-0.211-0.379-0.369-0.518c-0.158-0.14-0.346-0.246-0.566-0.318s-0.457-0.109-0.715-0.109
			c-0.225,0-0.434,0.033-0.631,0.097c-0.197,0.064-0.373,0.146-0.523,0.247c-0.152,0.1-0.273,0.214-0.361,0.343
			c-0.09,0.128-0.139,0.254-0.15,0.376c-0.006,0.062,0.016,0.114,0.064,0.158c0.049,0.045,0.105,0.067,0.168,0.067h0.258
			c0.068,0,0.121-0.009,0.162-0.025c0.039-0.017,0.078-0.047,0.111-0.092c0.092-0.123,0.203-0.229,0.332-0.317
			c0.127-0.09,0.316-0.134,0.57-0.134c0.285,0,0.523,0.071,0.715,0.213c0.193,0.143,0.289,0.355,0.289,0.639v0.109l-1.209,0.192
			c-0.242,0.039-0.469,0.095-0.684,0.167s-0.402,0.167-0.563,0.284S36.46,9.354,36.37,9.521c-0.092,0.167-0.139,0.362-0.139,0.585
			C36.231,10.273,36.269,10.43,36.341,10.574z M34.833,10.228c-0.057,0.07-0.133,0.13-0.227,0.18
			c-0.096,0.05-0.203,0.089-0.328,0.117c-0.121,0.028-0.246,0.042-0.371,0.042c-0.258,0-0.467-0.033-0.627-0.101
			c-0.16-0.066-0.287-0.161-0.377-0.284c-0.039-0.056-0.082-0.088-0.129-0.096c-0.045-0.009-0.086-0.013-0.119-0.013h-0.311
			c-0.068,0-0.125,0.022-0.17,0.066c-0.047,0.045-0.066,0.098-0.061,0.159c0.004,0.101,0.051,0.207,0.133,0.322
			c0.082,0.113,0.201,0.22,0.355,0.316c0.154,0.098,0.34,0.181,0.557,0.247c0.219,0.066,0.469,0.101,0.748,0.101
			s0.529-0.036,0.75-0.108s0.408-0.168,0.563-0.284c0.154-0.117,0.273-0.254,0.355-0.409c0.084-0.156,0.125-0.318,0.125-0.485
			c0-0.146-0.023-0.283-0.068-0.414c-0.047-0.131-0.123-0.251-0.232-0.36c-0.107-0.107-0.252-0.205-0.428-0.292
			c-0.178-0.086-0.398-0.157-0.662-0.213c-0.25-0.056-0.461-0.104-0.631-0.143c-0.168-0.039-0.303-0.082-0.408-0.129
			C33.169,8.4,33.095,8.344,33.05,8.28c-0.047-0.064-0.07-0.149-0.07-0.256c0-0.167,0.082-0.298,0.246-0.393
			c0.162-0.094,0.375-0.142,0.639-0.142c0.258,0,0.459,0.032,0.604,0.096c0.146,0.064,0.258,0.144,0.332,0.238
			c0.039,0.05,0.084,0.083,0.131,0.097c0.051,0.013,0.092,0.021,0.125,0.021h0.283c0.064,0,0.119-0.022,0.168-0.067
			c0.049-0.044,0.07-0.097,0.064-0.158c-0.006-0.101-0.045-0.205-0.119-0.313s-0.184-0.211-0.326-0.306
			c-0.145-0.095-0.32-0.172-0.529-0.234c-0.207-0.061-0.451-0.092-0.732-0.092s-0.525,0.034-0.734,0.101
			c-0.209,0.067-0.381,0.159-0.52,0.275c-0.137,0.118-0.238,0.252-0.309,0.402C32.233,7.699,32.2,7.857,32.2,8.024
			c0,0.296,0.092,0.554,0.277,0.773c0.186,0.221,0.51,0.378,0.973,0.473c0.248,0.05,0.465,0.098,0.648,0.143
			c0.188,0.044,0.34,0.092,0.459,0.142c0.121,0.051,0.211,0.11,0.271,0.18s0.09,0.157,0.09,0.264
			C34.919,10.081,34.892,10.158,34.833,10.228z M28.927,10.516c-0.102-0.032-0.184-0.077-0.246-0.134
			c-0.063-0.055-0.107-0.113-0.137-0.175c-0.027-0.062-0.043-0.123-0.043-0.184c0-0.195,0.105-0.354,0.318-0.478
			c0.211-0.122,0.498-0.211,0.857-0.267L30.69,9.12v0.209c0,0.184-0.033,0.351-0.1,0.502c-0.066,0.15-0.16,0.279-0.283,0.389
			c-0.123,0.108-0.27,0.193-0.441,0.254c-0.172,0.063-0.361,0.093-0.566,0.093C29.151,10.566,29.026,10.549,28.927,10.516z
			 M27.827,10.574c0.072,0.146,0.172,0.269,0.301,0.373c0.129,0.103,0.287,0.185,0.473,0.246s0.389,0.092,0.613,0.092
			c0.131,0,0.273-0.014,0.424-0.042c0.152-0.028,0.297-0.069,0.439-0.125c0.139-0.056,0.264-0.124,0.373-0.205
			c0.107-0.081,0.188-0.175,0.24-0.279v0.342c0,0.063,0.021,0.114,0.068,0.159c0.045,0.045,0.098,0.066,0.162,0.066h0.318
			c0.063,0,0.115-0.021,0.162-0.066s0.068-0.097,0.068-0.159v-2.55c0-0.267-0.043-0.504-0.131-0.71
			c-0.09-0.206-0.213-0.379-0.369-0.518c-0.16-0.14-0.348-0.246-0.568-0.318s-0.457-0.109-0.715-0.109
			c-0.225,0-0.434,0.033-0.631,0.097c-0.197,0.064-0.373,0.146-0.525,0.247c-0.15,0.1-0.271,0.214-0.359,0.343
			c-0.088,0.128-0.139,0.254-0.15,0.376c-0.006,0.062,0.016,0.114,0.064,0.158c0.049,0.045,0.105,0.067,0.168,0.067h0.256
			c0.07,0,0.123-0.009,0.164-0.025s0.078-0.047,0.111-0.092c0.092-0.123,0.201-0.229,0.332-0.317c0.127-0.09,0.316-0.134,0.57-0.134
			c0.285,0,0.521,0.071,0.715,0.213c0.191,0.143,0.289,0.355,0.289,0.639v0.109l-1.211,0.192c-0.24,0.039-0.469,0.095-0.682,0.167
			c-0.215,0.072-0.402,0.167-0.563,0.284c-0.162,0.117-0.285,0.259-0.377,0.427c-0.092,0.167-0.139,0.362-0.139,0.585
			C27.72,10.273,27.757,10.43,27.827,10.574z M25.669,11.201c0.074,0,0.131-0.021,0.168-0.066s0.068-0.092,0.09-0.142l1.707-3.879
			c0.008-0.018,0.01-0.037,0.01-0.06c0-0.055-0.02-0.103-0.061-0.142c-0.039-0.039-0.088-0.059-0.146-0.059h-0.352
			c-0.068,0-0.123,0.023-0.162,0.067c-0.041,0.044-0.07,0.089-0.086,0.133l-1.33,3.035l-1.33-3.035
			c-0.016-0.044-0.047-0.089-0.09-0.133s-0.107-0.067-0.193-0.067h-0.318c-0.057,0-0.105,0.02-0.146,0.059
			C23.39,6.952,23.37,7,23.37,7.055c0,0.022,0.004,0.042,0.01,0.06l1.707,3.879c0.021,0.05,0.055,0.097,0.094,0.142
			c0.041,0.045,0.096,0.066,0.172,0.066H25.669z M20.552,10.516c-0.1-0.032-0.181-0.077-0.245-0.134
			c-0.063-0.055-0.108-0.113-0.137-0.175s-0.043-0.123-0.043-0.184c0-0.195,0.106-0.354,0.318-0.478
			c0.211-0.122,0.498-0.211,0.857-0.267l1.012-0.159v0.209c0,0.184-0.031,0.351-0.098,0.502c-0.066,0.15-0.16,0.279-0.283,0.389
			c-0.123,0.108-0.27,0.193-0.441,0.254c-0.172,0.063-0.361,0.093-0.566,0.093C20.776,10.566,20.651,10.549,20.552,10.516z
			 M19.454,10.574c0.071,0.146,0.172,0.269,0.3,0.373c0.129,0.103,0.286,0.185,0.473,0.246c0.186,0.062,0.39,0.092,0.613,0.092
			c0.133,0,0.273-0.014,0.424-0.042c0.152-0.028,0.299-0.069,0.438-0.125c0.141-0.056,0.266-0.124,0.375-0.205
			c0.107-0.081,0.189-0.175,0.238-0.279v0.342c0,0.063,0.023,0.114,0.07,0.159c0.045,0.045,0.1,0.066,0.162,0.066h0.318
			c0.063,0,0.117-0.021,0.162-0.066s0.07-0.097,0.07-0.159v-2.55c0-0.267-0.045-0.504-0.135-0.71
			c-0.088-0.206-0.211-0.379-0.369-0.518c-0.158-0.14-0.346-0.246-0.564-0.318c-0.221-0.072-0.461-0.109-0.717-0.109
			c-0.225,0-0.434,0.033-0.631,0.097c-0.197,0.064-0.372,0.146-0.523,0.247c-0.152,0.1-0.272,0.214-0.361,0.343
			c-0.089,0.128-0.139,0.254-0.15,0.376c-0.006,0.062,0.016,0.114,0.063,0.158c0.049,0.045,0.104,0.067,0.168,0.067h0.257
			c0.069,0,0.123-0.009,0.163-0.025s0.077-0.047,0.111-0.092c0.092-0.123,0.202-0.229,0.331-0.317
			c0.129-0.09,0.318-0.134,0.57-0.134c0.285,0,0.523,0.071,0.717,0.213c0.189,0.143,0.285,0.355,0.285,0.639v0.109l-1.209,0.192
			c-0.239,0.039-0.467,0.095-0.682,0.167c-0.214,0.072-0.401,0.167-0.562,0.284s-0.287,0.259-0.377,0.427
			c-0.092,0.167-0.138,0.362-0.138,0.585C19.346,10.273,19.382,10.43,19.454,10.574z"/>
	</g>
</g>
</svg>
