<?xml version="1.0" encoding="utf-8"?>
<!-- Generator: Adobe Illustrator 16.0.0, SVG Export Plug-In . SVG Version: 6.00 Build 0)  -->
<!DOCTYPE svg PUBLIC "-//W3C//DTD SVG 1.1//EN" "http://www.w3.org/Graphics/SVG/1.1/DTD/svg11.dtd">
<svg version="1.1" id="Layer_1" xmlns="http://www.w3.org/2000/svg" xmlns:xlink="http://www.w3.org/1999/xlink" x="0px" y="0px"
	 width="378.16px" height="193.9px" viewBox="0 0 378.16 193.9" enable-background="new 0 0 378.16 193.9" xml:space="preserve">
<g>
	<path fill="#2B2E31" d="M138.045,85.004c-0.317,0-0.639-0.042-0.959-0.13c-1.915-0.528-3.039-2.509-2.51-4.424
		c1.378-4.999,2.078-10.188,2.078-15.424c0-31.888-25.944-57.832-57.833-57.832c-31.889,0-57.833,25.943-57.833,57.832
		c0,4.944,0.625,9.854,1.856,14.591c0.5,1.923-0.654,3.887-2.577,4.387c-1.92,0.5-3.886-0.654-4.386-2.577
		c-1.385-5.329-2.087-10.847-2.087-16.401C13.795,29.171,42.966,0,78.822,0c35.855,0,65.026,29.171,65.026,65.026
		c0,5.882-0.787,11.716-2.338,17.337C141.07,83.958,139.623,85.004,138.045,85.004L138.045,85.004z"/>
	<path fill="#2B2E31" d="M78.682,174.655c-1.103,0-2.146-0.506-2.828-1.374l-46.275-58.879c-1.228-1.562-0.957-3.823,0.605-5.051
		c1.561-1.229,3.824-0.956,5.051,0.605l43.392,55.21l41.79-55.271c1.198-1.583,3.454-1.896,5.039-0.699
		c1.584,1.198,1.898,3.454,0.7,5.038l-44.604,58.993c-0.673,0.891-1.72,1.417-2.835,1.428
		C78.704,174.655,78.693,174.655,78.682,174.655L78.682,174.655z"/>
	<path fill="#2B2E31" d="M88.475,96.352h-4.351c-1.796,0-3.252-1.456-3.252-3.252V88.75c0-1.796,1.456-3.252,3.252-3.252h4.351
		c1.796,0,3.252,1.457,3.252,3.252V93.1C91.727,94.896,90.271,96.352,88.475,96.352"/>
	<path fill="#2B2E31" d="M72.767,96.352h-4.351c-1.796,0-3.252-1.456-3.252-3.252V88.75c0-1.796,1.456-3.252,3.252-3.252h4.351
		c1.796,0,3.252,1.457,3.252,3.252V93.1C76.019,94.896,74.563,96.352,72.767,96.352"/>
	<path fill="#2B2E31" d="M72.767,110.86h-4.351c-1.796,0-3.252-1.456-3.252-3.252v-4.351c0-1.797,1.456-3.252,3.252-3.252h4.351
		c1.796,0,3.252,1.455,3.252,3.252v4.351C76.019,109.404,74.563,110.86,72.767,110.86"/>
	<path fill="#2B2E31" d="M88.475,110.86h-4.351c-1.796,0-3.252-1.456-3.252-3.252v-4.351c0-1.797,1.456-3.252,3.252-3.252h4.351
		c1.796,0,3.252,1.455,3.252,3.252v4.351C91.727,109.404,90.271,110.86,88.475,110.86"/>
	<path fill="#2B2E31" d="M78.546,193.9c-3.613,0-15.4-0.511-15.4-7.082c0-6.57,11.787-7.081,15.4-7.081s15.401,0.511,15.401,7.081
		C93.947,193.39,82.159,193.9,78.546,193.9L78.546,193.9z"/>
	<g>
		<defs>
			<rect id="SVGID_1_" width="378.16" height="193.9"/>
		</defs>
		<clipPath id="SVGID_2_">
			<use xlink:href="#SVGID_1_"  overflow="visible"/>
		</clipPath>
		<polygon clip-path="url(#SVGID_2_)" fill="#42C4D9" points="87.377,188.422 87.388,188.422 87.377,188.422 		"/>
		<path clip-path="url(#SVGID_2_)" fill="#42C4D9" d="M156.039,113.292L118.868,76.12l0.518-19.344
			c0.049-1.859-1.418-3.408-3.278-3.458l-0.728-0.02c-1.861-0.05-3.409,1.418-3.459,3.278l-0.329,12.269L81.089,38.342
			c-1.35-1.35-3.738-1.349-5.087,0L1.054,113.293c-1.405,1.404-1.405,3.682,0,5.087c1.404,1.404,3.683,1.405,5.087-0.002
			l72.405-72.406l72.407,72.406c0.702,0.704,1.623,1.055,2.543,1.055s1.841-0.351,2.543-1.055
			C157.444,116.975,157.444,114.697,156.039,113.292L156.039,113.292z"/>
	</g>
	<g>
		<defs>
			<polygon id="SVGID_3_" points="183.852,107.738 378.16,107.738 378.16,64.11 183.852,64.11 183.852,107.738 			"/>
		</defs>
		<clipPath id="SVGID_4_">
			<use xlink:href="#SVGID_3_"  overflow="visible"/>
		</clipPath>
		<path clip-path="url(#SVGID_4_)" fill="#2B2E31" d="M184.863,100.871c0.673,1.401,1.615,2.6,2.827,3.595
			c1.213,0.998,2.693,1.792,4.444,2.385c1.75,0.592,3.676,0.888,5.777,0.888c1.238,0,2.571-0.135,3.999-0.404
			c1.427-0.27,2.8-0.672,4.121-1.211c1.319-0.538,2.49-1.198,3.514-1.979c1.023-0.78,1.778-1.684,2.264-2.706v3.312
			c0,0.593,0.213,1.105,0.646,1.535c0.43,0.432,0.941,0.646,1.535,0.646h2.988c0.593,0,1.104-0.215,1.535-0.646
			c0.432-0.43,0.647-0.942,0.647-1.535V80.107c0-2.585-0.418-4.874-1.253-6.867c-0.835-1.993-1.993-3.662-3.474-5.009
			c-1.482-1.346-3.26-2.37-5.333-3.071c-2.073-0.698-4.321-1.05-6.746-1.05c-2.101,0-4.08,0.311-5.938,0.929
			c-1.857,0.62-3.501,1.414-4.928,2.384c-1.429,0.969-2.559,2.074-3.393,3.312c-0.836,1.24-1.307,2.452-1.414,3.636
			c-0.054,0.593,0.148,1.104,0.606,1.535c0.457,0.432,0.981,0.646,1.575,0.646h2.424c0.646,0,1.158-0.081,1.535-0.242
			c0.376-0.162,0.727-0.457,1.05-0.889c0.86-1.184,1.898-2.208,3.11-3.07c1.213-0.861,3.002-1.292,5.373-1.292
			c2.692,0,4.941,0.687,6.746,2.061c1.805,1.373,2.708,3.433,2.708,6.18v1.051l-11.393,1.858c-2.263,0.377-4.404,0.916-6.423,1.616
			c-2.021,0.701-3.785,1.615-5.292,2.747c-1.51,1.131-2.694,2.504-3.556,4.121c-0.861,1.615-1.293,3.501-1.293,5.655
			C183.852,97.962,184.188,99.472,184.863,100.871 M195.205,100.306c-0.943-0.323-1.711-0.754-2.303-1.292
			c-0.594-0.538-1.024-1.105-1.294-1.697c-0.27-0.593-0.403-1.185-0.403-1.778c0-1.884,0.996-3.42,2.99-4.605
			c1.991-1.184,4.686-2.046,8.078-2.585l9.535-1.535v2.02c0,1.777-0.312,3.393-0.931,4.847c-0.619,1.455-1.508,2.708-2.666,3.757
			c-1.159,1.051-2.545,1.873-4.161,2.464c-1.615,0.594-3.393,0.889-5.332,0.889C197.318,100.79,196.146,100.629,195.205,100.306
			 M243.396,106.931c0.7,0,1.226-0.215,1.576-0.646c0.35-0.43,0.632-0.889,0.849-1.373l16.077-37.488
			c0.054-0.162,0.081-0.35,0.081-0.566c0-0.538-0.189-0.996-0.565-1.373c-0.377-0.376-0.836-0.566-1.373-0.566h-3.313
			c-0.646,0-1.158,0.216-1.534,0.646c-0.378,0.432-0.646,0.863-0.809,1.293l-12.522,29.328l-12.523-29.328
			c-0.161-0.43-0.444-0.861-0.848-1.293c-0.404-0.43-1.011-0.646-1.818-0.646h-2.989c-0.539,0-0.998,0.189-1.374,0.566
			c-0.376,0.377-0.564,0.835-0.564,1.373c0,0.216,0.025,0.404,0.081,0.566l16.077,37.488c0.215,0.484,0.512,0.943,0.889,1.373
			c0.376,0.432,0.915,0.646,1.616,0.646H243.396L243.396,106.931z M263.717,100.871c0.674,1.401,1.616,2.6,2.828,3.595
			c1.212,0.998,2.693,1.792,4.444,2.385c1.75,0.592,3.676,0.888,5.776,0.888c1.238,0,2.571-0.135,3.999-0.404
			c1.426-0.27,2.8-0.672,4.12-1.211c1.32-0.538,2.491-1.198,3.515-1.979c1.022-0.78,1.777-1.684,2.263-2.706v3.312
			c0,0.593,0.215,1.105,0.645,1.535c0.433,0.432,0.943,0.646,1.536,0.646h2.99c0.592,0,1.103-0.215,1.535-0.646
			c0.43-0.43,0.646-0.942,0.646-1.535V80.107c0-2.585-0.418-4.874-1.252-6.867c-0.836-1.993-1.993-3.662-3.474-5.009
			c-1.482-1.346-3.26-2.37-5.333-3.071c-2.074-0.698-4.322-1.05-6.746-1.05c-2.101,0-4.08,0.311-5.938,0.929
			c-1.857,0.62-3.502,1.414-4.928,2.384c-1.428,0.969-2.559,2.074-3.394,3.312c-0.835,1.24-1.307,2.452-1.414,3.636
			c-0.055,0.593,0.146,1.104,0.605,1.535c0.457,0.432,0.982,0.646,1.576,0.646h2.424c0.646,0,1.157-0.081,1.535-0.242
			c0.376-0.162,0.728-0.457,1.049-0.889c0.862-1.184,1.9-2.208,3.111-3.07c1.212-0.861,3.002-1.292,5.373-1.292
			c2.693,0,4.94,0.687,6.746,2.061c1.804,1.373,2.707,3.433,2.707,6.18v1.051l-11.393,1.858c-2.262,0.377-4.402,0.916-6.423,1.616
			c-2.02,0.701-3.785,1.615-5.292,2.747c-1.508,1.131-2.693,2.504-3.555,4.121c-0.862,1.615-1.292,3.501-1.292,5.655
			C262.708,97.962,263.043,99.472,263.717,100.871 M274.059,100.306c-0.942-0.323-1.711-0.754-2.303-1.292
			c-0.593-0.538-1.023-1.105-1.292-1.697c-0.27-0.593-0.405-1.185-0.405-1.778c0-1.884,0.997-3.42,2.99-4.605
			c1.992-1.184,4.687-2.046,8.079-2.585l9.534-1.535v2.02c0,1.777-0.313,3.393-0.93,4.847c-0.619,1.455-1.509,2.708-2.666,3.757
			c-1.158,1.051-2.545,1.873-4.16,2.464c-1.616,0.594-3.394,0.889-5.332,0.889C276.172,100.79,275.001,100.629,274.059,100.306
			 M329.684,97.518c-0.539,0.675-1.252,1.253-2.141,1.737c-0.888,0.485-1.912,0.862-3.07,1.132c-1.159,0.27-2.33,0.403-3.514,0.403
			c-2.424,0-4.391-0.323-5.898-0.969c-1.509-0.647-2.693-1.563-3.555-2.748c-0.378-0.538-0.782-0.849-1.212-0.929
			c-0.432-0.081-0.808-0.122-1.131-0.122h-2.909c-0.646,0-1.185,0.216-1.616,0.647c-0.431,0.43-0.619,0.942-0.564,1.535
			c0.053,0.969,0.471,2.006,1.252,3.11c0.779,1.104,1.899,2.129,3.353,3.069c1.454,0.944,3.204,1.738,5.252,2.385
			c2.046,0.646,4.39,0.969,7.029,0.969c2.638,0,4.995-0.351,7.069-1.05c2.071-0.699,3.838-1.616,5.292-2.747
			c1.453-1.131,2.57-2.45,3.353-3.959c0.78-1.507,1.171-3.07,1.171-4.687c0-1.4-0.215-2.733-0.646-3.999
			c-0.433-1.265-1.159-2.424-2.183-3.474c-1.022-1.05-2.37-1.992-4.039-2.828c-1.67-0.834-3.744-1.521-6.221-2.06
			c-2.371-0.538-4.35-0.996-5.938-1.374c-1.591-0.376-2.869-0.794-3.839-1.252c-0.97-0.457-1.67-0.996-2.101-1.616
			c-0.431-0.618-0.646-1.44-0.646-2.464c0-1.616,0.769-2.881,2.304-3.797c1.535-0.915,3.541-1.374,6.019-1.374
			c2.423,0,4.322,0.311,5.696,0.929c1.373,0.62,2.41,1.388,3.11,2.302c0.376,0.485,0.794,0.795,1.252,0.93
			c0.457,0.135,0.849,0.202,1.172,0.202h2.666c0.592,0,1.117-0.214,1.576-0.646c0.456-0.431,0.658-0.942,0.605-1.535
			c-0.055-0.971-0.432-1.98-1.132-3.03c-0.7-1.05-1.724-2.032-3.07-2.949c-1.347-0.915-3.003-1.669-4.968-2.262
			c-1.967-0.592-4.27-0.889-6.908-0.889c-2.64,0-4.942,0.323-6.908,0.97c-1.967,0.646-3.595,1.535-4.888,2.667
			c-1.293,1.131-2.262,2.424-2.91,3.877c-0.645,1.454-0.968,2.989-0.968,4.605c0,2.856,0.875,5.346,2.626,7.473
			c1.749,2.129,4.807,3.65,9.17,4.565c2.315,0.485,4.349,0.943,6.101,1.375c1.748,0.431,3.19,0.888,4.322,1.373
			c1.13,0.485,1.979,1.064,2.544,1.737c0.565,0.674,0.849,1.523,0.849,2.545C330.492,96.104,330.222,96.845,329.684,97.518
			 M343.863,100.871c0.673,1.401,1.615,2.6,2.827,3.595c1.213,0.998,2.693,1.792,4.444,2.385c1.749,0.592,3.676,0.888,5.776,0.888
			c1.238,0,2.571-0.135,4-0.404c1.426-0.27,2.8-0.672,4.12-1.211c1.318-0.538,2.49-1.198,3.515-1.979
			c1.022-0.78,1.777-1.684,2.261-2.706v3.312c0,0.593,0.215,1.105,0.647,1.535c0.431,0.432,0.941,0.646,1.535,0.646h2.989
			c0.593,0,1.104-0.215,1.535-0.646c0.431-0.43,0.646-0.942,0.646-1.535V80.107c0-2.585-0.418-4.874-1.252-6.867
			c-0.836-1.993-1.994-3.662-3.475-5.009c-1.481-1.346-3.26-2.37-5.333-3.071c-2.073-0.698-4.321-1.05-6.746-1.05
			c-2.101,0-4.08,0.311-5.938,0.929c-1.86,0.62-3.502,1.414-4.929,2.384c-1.428,0.969-2.56,2.074-3.394,3.312
			c-0.836,1.24-1.307,2.452-1.414,3.636c-0.054,0.593,0.148,1.104,0.606,1.535c0.457,0.432,0.981,0.646,1.576,0.646h2.423
			c0.646,0,1.158-0.081,1.535-0.242c0.377-0.162,0.728-0.457,1.051-0.889c0.86-1.184,1.897-2.208,3.109-3.07
			c1.213-0.861,3.002-1.292,5.373-1.292c2.693,0,4.941,0.687,6.746,2.061c1.805,1.373,2.706,3.433,2.706,6.18v1.051l-11.391,1.858
			c-2.262,0.377-4.403,0.916-6.423,1.616c-2.021,0.701-3.785,1.615-5.292,2.747c-1.51,1.131-2.694,2.504-3.556,4.121
			c-0.861,1.615-1.293,3.501-1.293,5.655C342.853,97.962,343.188,99.472,343.863,100.871 M354.205,100.306
			c-0.943-0.323-1.711-0.754-2.303-1.292c-0.594-0.538-1.024-1.105-1.292-1.697c-0.271-0.593-0.404-1.185-0.404-1.778
			c0-1.884,0.996-3.42,2.989-4.605c1.991-1.184,4.686-2.046,8.078-2.585l9.533-1.535v2.02c0,1.777-0.31,3.393-0.928,4.847
			c-0.62,1.455-1.509,2.708-2.666,3.757c-1.159,1.051-2.545,1.873-4.161,2.464c-1.616,0.594-3.394,0.889-5.333,0.889
			C356.318,100.79,355.146,100.629,354.205,100.306"/>
	</g>
</g>
<g display="none">
	<path display="inline" fill="#00568D" d="M138.045,85.004c-0.317,0-0.639-0.042-0.959-0.13c-1.915-0.528-3.039-2.509-2.51-4.424
		c1.378-4.999,2.078-10.188,2.078-15.424c0-31.888-25.944-57.832-57.833-57.832c-31.889,0-57.833,25.943-57.833,57.832
		c0,4.944,0.625,9.854,1.856,14.591c0.5,1.923-0.654,3.887-2.577,4.387c-1.92,0.5-3.886-0.654-4.386-2.577
		c-1.385-5.329-2.087-10.847-2.087-16.401C13.795,29.171,42.966,0,78.822,0c35.855,0,65.026,29.171,65.026,65.026
		c0,5.882-0.787,11.716-2.338,17.337C141.07,83.958,139.623,85.004,138.045,85.004L138.045,85.004z"/>
	<path display="inline" fill="#00568D" d="M78.682,174.655c-1.103,0-2.146-0.506-2.828-1.374l-46.275-58.879
		c-1.228-1.562-0.957-3.823,0.605-5.051c1.561-1.229,3.824-0.956,5.051,0.605l43.392,55.21l41.79-55.271
		c1.198-1.583,3.454-1.896,5.039-0.699c1.584,1.198,1.898,3.454,0.7,5.038l-44.604,58.993c-0.673,0.891-1.72,1.417-2.835,1.428
		C78.704,174.655,78.693,174.655,78.682,174.655L78.682,174.655z"/>
	<path display="inline" fill="#00568D" d="M88.475,96.352h-4.351c-1.796,0-3.252-1.456-3.252-3.252V88.75
		c0-1.796,1.456-3.252,3.252-3.252h4.351c1.796,0,3.252,1.457,3.252,3.252V93.1C91.727,94.896,90.271,96.352,88.475,96.352"/>
	<path display="inline" fill="#00568D" d="M72.767,96.352h-4.351c-1.796,0-3.252-1.456-3.252-3.252V88.75
		c0-1.796,1.456-3.252,3.252-3.252h4.351c1.796,0,3.252,1.457,3.252,3.252V93.1C76.019,94.896,74.563,96.352,72.767,96.352"/>
	<path display="inline" fill="#00568D" d="M72.767,110.86h-4.351c-1.796,0-3.252-1.456-3.252-3.252v-4.351
		c0-1.797,1.456-3.252,3.252-3.252h4.351c1.796,0,3.252,1.455,3.252,3.252v4.351C76.019,109.404,74.563,110.86,72.767,110.86"/>
	<path display="inline" fill="#00568D" d="M88.475,110.86h-4.351c-1.796,0-3.252-1.456-3.252-3.252v-4.351
		c0-1.797,1.456-3.252,3.252-3.252h4.351c1.796,0,3.252,1.455,3.252,3.252v4.351C91.727,109.404,90.271,110.86,88.475,110.86"/>
	<path display="inline" fill="#00568D" d="M78.546,193.9c-3.613,0-15.4-0.511-15.4-7.082c0-6.57,11.787-7.081,15.4-7.081
		s15.401,0.511,15.401,7.081C93.947,193.39,82.159,193.9,78.546,193.9L78.546,193.9z"/>
	<g display="inline">
		<defs>
			<rect id="SVGID_5_" width="378.16" height="193.9"/>
		</defs>
		<clipPath id="SVGID_6_">
			<use xlink:href="#SVGID_5_"  overflow="visible"/>
		</clipPath>
		<polygon clip-path="url(#SVGID_6_)" fill="#00568D" points="87.377,188.422 87.388,188.422 87.377,188.422 		"/>
		<path clip-path="url(#SVGID_6_)" fill="#00568D" d="M156.039,113.292L118.868,76.12l0.518-19.344
			c0.049-1.859-1.418-3.408-3.278-3.458l-0.728-0.02c-1.861-0.05-3.409,1.418-3.459,3.278l-0.329,12.269L81.089,38.342
			c-1.35-1.35-3.738-1.349-5.087,0L1.054,113.293c-1.405,1.404-1.405,3.682,0,5.087c1.404,1.404,3.683,1.405,5.087-0.002
			l72.405-72.406l72.407,72.406c0.702,0.704,1.623,1.055,2.543,1.055s1.841-0.351,2.543-1.055
			C157.444,116.975,157.444,114.697,156.039,113.292L156.039,113.292z"/>
	</g>
	<path display="inline" fill="#00568D" d="M184.863,100.871c0.673,1.401,1.615,2.6,2.827,3.595c1.213,0.998,2.693,1.792,4.444,2.385
		c1.75,0.592,3.676,0.888,5.777,0.888c1.238,0,2.571-0.135,3.999-0.404c1.427-0.27,2.8-0.672,4.121-1.211
		c1.319-0.538,2.49-1.198,3.514-1.979c1.023-0.78,1.778-1.684,2.264-2.706v3.312c0,0.593,0.213,1.105,0.646,1.535
		c0.43,0.432,0.941,0.646,1.535,0.646h2.988c0.593,0,1.104-0.215,1.536-0.646c0.431-0.43,0.646-0.942,0.646-1.535V80.107
		c0-2.585-0.418-4.874-1.253-6.867c-0.835-1.993-1.993-3.662-3.474-5.009c-1.482-1.346-3.26-2.37-5.333-3.071
		c-2.073-0.698-4.321-1.05-6.746-1.05c-2.101,0-4.08,0.311-5.938,0.929c-1.857,0.62-3.501,1.414-4.928,2.384
		c-1.429,0.969-2.559,2.074-3.393,3.312c-0.836,1.24-1.307,2.452-1.414,3.636c-0.054,0.593,0.148,1.104,0.606,1.535
		c0.457,0.432,0.981,0.646,1.575,0.646h2.424c0.646,0,1.158-0.081,1.535-0.242c0.376-0.162,0.727-0.457,1.05-0.889
		c0.86-1.184,1.898-2.208,3.11-3.07c1.213-0.861,3.002-1.292,5.373-1.292c2.692,0,4.941,0.687,6.746,2.061
		c1.805,1.373,2.708,3.433,2.708,6.18v1.051l-11.393,1.858c-2.263,0.377-4.404,0.916-6.423,1.616
		c-2.02,0.701-3.785,1.615-5.292,2.747c-1.51,1.131-2.694,2.504-3.556,4.121c-0.861,1.615-1.293,3.501-1.293,5.655
		C183.852,97.962,184.188,99.472,184.863,100.871 M195.205,100.306c-0.943-0.323-1.711-0.754-2.303-1.292
		c-0.594-0.538-1.024-1.105-1.294-1.697c-0.27-0.593-0.403-1.185-0.403-1.778c0-1.884,0.996-3.42,2.99-4.605
		c1.991-1.184,4.686-2.046,8.078-2.585l9.535-1.535v2.02c0,1.777-0.312,3.393-0.931,4.847c-0.619,1.455-1.508,2.708-2.666,3.757
		c-1.159,1.051-2.545,1.873-4.161,2.464c-1.615,0.594-3.393,0.889-5.332,0.889C197.318,100.79,196.146,100.629,195.205,100.306
		 M243.396,106.931c0.701,0,1.226-0.215,1.577-0.646c0.349-0.43,0.631-0.889,0.848-1.373l16.077-37.488
		c0.054-0.162,0.081-0.35,0.081-0.566c0-0.538-0.189-0.996-0.565-1.373c-0.377-0.376-0.836-0.566-1.373-0.566h-3.313
		c-0.646,0-1.158,0.216-1.534,0.646c-0.378,0.432-0.646,0.863-0.809,1.293l-12.522,29.328l-12.523-29.328
		c-0.161-0.43-0.444-0.861-0.848-1.293c-0.404-0.43-1.011-0.646-1.818-0.646h-2.989c-0.539,0-0.998,0.189-1.374,0.566
		c-0.376,0.377-0.564,0.835-0.564,1.373c0,0.216,0.025,0.404,0.081,0.566l16.077,37.488c0.215,0.484,0.512,0.943,0.889,1.373
		c0.376,0.432,0.915,0.646,1.616,0.646H243.396L243.396,106.931z M263.717,100.871c0.674,1.401,1.616,2.6,2.828,3.595
		c1.212,0.998,2.693,1.792,4.444,2.385c1.75,0.592,3.676,0.888,5.777,0.888c1.237,0,2.57-0.135,3.999-0.404
		c1.425-0.27,2.799-0.672,4.119-1.211c1.32-0.538,2.491-1.198,3.515-1.979c1.022-0.78,1.777-1.684,2.263-2.706v3.312
		c0,0.593,0.215,1.105,0.646,1.535c0.432,0.432,0.942,0.646,1.535,0.646h2.99c0.592,0,1.103-0.215,1.535-0.646
		c0.43-0.43,0.646-0.942,0.646-1.535V80.107c0-2.585-0.419-4.874-1.253-6.867c-0.836-1.993-1.993-3.662-3.474-5.009
		c-1.481-1.346-3.26-2.37-5.333-3.071c-2.074-0.698-4.322-1.05-6.746-1.05c-2.101,0-4.08,0.311-5.938,0.929
		c-1.857,0.62-3.502,1.414-4.928,2.384c-1.428,0.969-2.559,2.074-3.394,3.312c-0.835,1.24-1.307,2.452-1.414,3.636
		c-0.055,0.593,0.147,1.104,0.606,1.535c0.457,0.432,0.981,0.646,1.575,0.646h2.425c0.646,0,1.156-0.081,1.534-0.242
		c0.376-0.162,0.728-0.457,1.05-0.889c0.861-1.184,1.899-2.208,3.11-3.07c1.212-0.861,3.002-1.292,5.373-1.292
		c2.693,0,4.94,0.687,6.746,2.061c1.804,1.373,2.707,3.433,2.707,6.18v1.051l-11.393,1.858c-2.262,0.377-4.402,0.916-6.422,1.616
		c-2.021,0.701-3.786,1.615-5.293,2.747c-1.508,1.131-2.693,2.504-3.555,4.121c-0.861,1.615-1.292,3.501-1.292,5.655
		C262.708,97.962,263.043,99.472,263.717,100.871 M274.059,100.306c-0.942-0.323-1.711-0.754-2.303-1.292
		c-0.593-0.538-1.023-1.105-1.292-1.697c-0.27-0.593-0.404-1.185-0.404-1.778c0-1.884,0.997-3.42,2.989-4.605
		c1.992-1.184,4.687-2.046,8.079-2.585l9.534-1.535v2.02c0,1.777-0.312,3.393-0.93,4.847c-0.619,1.455-1.508,2.708-2.666,3.757
		c-1.158,1.051-2.545,1.873-4.16,2.464c-1.616,0.594-3.393,0.889-5.332,0.889C276.172,100.79,275.001,100.629,274.059,100.306
		 M329.684,97.518c-0.539,0.675-1.251,1.253-2.141,1.737c-0.888,0.485-1.912,0.862-3.07,1.132c-1.159,0.27-2.33,0.403-3.514,0.403
		c-2.424,0-4.391-0.323-5.898-0.969c-1.509-0.647-2.693-1.563-3.555-2.748c-0.378-0.538-0.781-0.849-1.212-0.929
		c-0.432-0.081-0.808-0.122-1.131-0.122h-2.909c-0.646,0-1.185,0.216-1.615,0.647c-0.432,0.43-0.62,0.942-0.565,1.535
		c0.053,0.969,0.471,2.006,1.252,3.11c0.779,1.104,1.899,2.129,3.353,3.069c1.454,0.944,3.204,1.738,5.252,2.385
		c2.046,0.646,4.39,0.969,7.029,0.969c2.638,0,4.995-0.351,7.069-1.05c2.072-0.699,3.838-1.616,5.292-2.747
		c1.453-1.131,2.571-2.45,3.353-3.959c0.78-1.507,1.171-3.07,1.171-4.687c0-1.4-0.215-2.733-0.646-3.999
		c-0.432-1.265-1.159-2.424-2.182-3.474c-1.023-1.05-2.371-1.992-4.04-2.828c-1.669-0.834-3.744-1.521-6.221-2.06
		c-2.371-0.538-4.35-0.996-5.938-1.374c-1.591-0.376-2.869-0.794-3.839-1.252c-0.97-0.457-1.67-0.996-2.101-1.616
		c-0.431-0.618-0.646-1.44-0.646-2.464c0-1.616,0.769-2.881,2.304-3.797c1.535-0.915,3.541-1.374,6.019-1.374
		c2.423,0,4.322,0.311,5.696,0.929c1.373,0.62,2.41,1.388,3.11,2.302c0.376,0.485,0.794,0.795,1.252,0.93
		c0.457,0.135,0.849,0.202,1.172,0.202h2.666c0.592,0,1.117-0.214,1.576-0.646c0.456-0.431,0.658-0.942,0.605-1.535
		c-0.055-0.971-0.432-1.98-1.132-3.03c-0.7-1.05-1.724-2.032-3.069-2.949c-1.348-0.915-3.004-1.669-4.969-2.262
		c-1.967-0.592-4.27-0.889-6.908-0.889c-2.64,0-4.942,0.323-6.908,0.97c-1.967,0.646-3.595,1.535-4.888,2.667
		c-1.293,1.131-2.262,2.424-2.909,3.877c-0.646,1.454-0.969,2.989-0.969,4.605c0,2.856,0.875,5.346,2.626,7.473
		c1.749,2.129,4.807,3.65,9.17,4.565c2.315,0.485,4.349,0.943,6.101,1.375c1.748,0.431,3.19,0.888,4.322,1.373
		c1.13,0.485,1.979,1.064,2.544,1.737c0.565,0.674,0.849,1.523,0.849,2.545C330.492,96.104,330.223,96.845,329.684,97.518
		 M343.863,100.871c0.673,1.401,1.615,2.6,2.827,3.595c1.213,0.998,2.693,1.792,4.444,2.385c1.749,0.592,3.676,0.888,5.776,0.888
		c1.238,0,2.571-0.135,4-0.404c1.426-0.27,2.8-0.672,4.12-1.211c1.318-0.538,2.49-1.198,3.515-1.979
		c1.022-0.78,1.777-1.684,2.262-2.706v3.312c0,0.593,0.214,1.105,0.646,1.535c0.431,0.432,0.941,0.646,1.535,0.646h2.989
		c0.593,0,1.104-0.215,1.536-0.646c0.43-0.43,0.646-0.942,0.646-1.535V80.107c0-2.585-0.418-4.874-1.252-6.867
		c-0.836-1.993-1.994-3.662-3.475-5.009c-1.481-1.346-3.26-2.37-5.333-3.071c-2.073-0.698-4.321-1.05-6.746-1.05
		c-2.101,0-4.08,0.311-5.938,0.929c-1.859,0.62-3.502,1.414-4.929,2.384c-1.428,0.969-2.56,2.074-3.394,3.312
		c-0.836,1.24-1.307,2.452-1.413,3.636c-0.055,0.593,0.147,1.104,0.605,1.535c0.457,0.432,0.981,0.646,1.576,0.646h2.423
		c0.646,0,1.158-0.081,1.535-0.242c0.377-0.162,0.728-0.457,1.051-0.889c0.86-1.184,1.897-2.208,3.109-3.07
		c1.213-0.861,3.002-1.292,5.373-1.292c2.693,0,4.941,0.687,6.746,2.061c1.805,1.373,2.707,3.433,2.707,6.18v1.051l-11.392,1.858
		c-2.262,0.377-4.402,0.916-6.423,1.616c-2.02,0.701-3.785,1.615-5.292,2.747c-1.51,1.131-2.694,2.504-3.556,4.121
		c-0.861,1.615-1.293,3.501-1.293,5.655C342.853,97.962,343.188,99.472,343.863,100.871 M354.205,100.306
		c-0.943-0.323-1.711-0.754-2.303-1.292c-0.594-0.538-1.024-1.105-1.292-1.697c-0.271-0.593-0.404-1.185-0.404-1.778
		c0-1.884,0.996-3.42,2.989-4.605c1.991-1.184,4.686-2.046,8.078-2.585l9.534-1.535v2.02c0,1.777-0.311,3.393-0.929,4.847
		c-0.62,1.455-1.509,2.708-2.666,3.757c-1.159,1.051-2.545,1.873-4.161,2.464c-1.616,0.594-3.394,0.889-5.333,0.889
		C356.318,100.79,355.146,100.629,354.205,100.306"/>
</g>
<g display="none">
	<path display="inline" fill="#FFFFFF" d="M138.045,85.004c-0.317,0-0.639-0.042-0.959-0.13c-1.915-0.528-3.039-2.509-2.51-4.424
		c1.378-4.999,2.078-10.188,2.078-15.424c0-31.888-25.944-57.832-57.833-57.832c-31.889,0-57.833,25.943-57.833,57.832
		c0,4.944,0.625,9.854,1.856,14.591c0.5,1.923-0.654,3.887-2.577,4.387c-1.92,0.5-3.886-0.654-4.386-2.577
		c-1.385-5.329-2.087-10.847-2.087-16.401C13.795,29.171,42.966,0,78.822,0c35.855,0,65.026,29.171,65.026,65.026
		c0,5.882-0.787,11.716-2.338,17.337C141.07,83.958,139.623,85.004,138.045,85.004L138.045,85.004z"/>
	<path display="inline" fill="#FFFFFF" d="M78.682,174.655c-1.103,0-2.146-0.506-2.828-1.374l-46.275-58.879
		c-1.228-1.562-0.957-3.823,0.605-5.051c1.561-1.229,3.824-0.956,5.051,0.605l43.392,55.21l41.79-55.271
		c1.198-1.583,3.454-1.896,5.039-0.699c1.584,1.198,1.898,3.454,0.7,5.038l-44.604,58.993c-0.673,0.891-1.72,1.417-2.835,1.428
		C78.704,174.655,78.693,174.655,78.682,174.655L78.682,174.655z"/>
	<path display="inline" fill="#FFFFFF" d="M88.475,96.352h-4.351c-1.796,0-3.252-1.456-3.252-3.252V88.75
		c0-1.796,1.456-3.252,3.252-3.252h4.351c1.796,0,3.252,1.457,3.252,3.252V93.1C91.727,94.896,90.271,96.352,88.475,96.352"/>
	<path display="inline" fill="#FFFFFF" d="M72.767,96.352h-4.351c-1.796,0-3.252-1.456-3.252-3.252V88.75
		c0-1.796,1.456-3.252,3.252-3.252h4.351c1.796,0,3.252,1.457,3.252,3.252V93.1C76.019,94.896,74.563,96.352,72.767,96.352"/>
	<path display="inline" fill="#FFFFFF" d="M72.767,110.86h-4.351c-1.796,0-3.252-1.456-3.252-3.252v-4.351
		c0-1.797,1.456-3.252,3.252-3.252h4.351c1.796,0,3.252,1.455,3.252,3.252v4.351C76.019,109.404,74.563,110.86,72.767,110.86"/>
	<path display="inline" fill="#FFFFFF" d="M88.475,110.86h-4.351c-1.796,0-3.252-1.456-3.252-3.252v-4.351
		c0-1.797,1.456-3.252,3.252-3.252h4.351c1.796,0,3.252,1.455,3.252,3.252v4.351C91.727,109.404,90.271,110.86,88.475,110.86"/>
	<path display="inline" fill="#FFFFFF" d="M78.546,193.9c-3.613,0-15.4-0.511-15.4-7.082c0-6.57,11.787-7.081,15.4-7.081
		s15.401,0.511,15.401,7.081C93.947,193.39,82.159,193.9,78.546,193.9L78.546,193.9z"/>
	<g display="inline">
		<defs>
			<rect id="SVGID_7_" width="378.16" height="193.9"/>
		</defs>
		<clipPath id="SVGID_8_">
			<use xlink:href="#SVGID_7_"  overflow="visible"/>
		</clipPath>
		<polygon clip-path="url(#SVGID_8_)" fill="#FFFFFF" points="87.377,188.422 87.388,188.422 87.377,188.422 		"/>
		<path clip-path="url(#SVGID_8_)" fill="#FFFFFF" d="M156.039,113.292L118.868,76.12l0.518-19.344
			c0.049-1.859-1.418-3.408-3.278-3.458l-0.728-0.02c-1.861-0.05-3.409,1.418-3.459,3.278l-0.329,12.269L81.089,38.342
			c-1.35-1.35-3.738-1.349-5.087,0L1.054,113.293c-1.405,1.404-1.405,3.682,0,5.087c1.404,1.404,3.683,1.405,5.087-0.002
			l72.405-72.406l72.407,72.406c0.702,0.704,1.623,1.055,2.543,1.055s1.841-0.351,2.543-1.055
			C157.444,116.975,157.444,114.697,156.039,113.292L156.039,113.292z"/>
	</g>
	<path display="inline" fill="#FFFFFF" d="M184.863,100.871c0.673,1.401,1.615,2.6,2.827,3.595c1.213,0.998,2.693,1.792,4.444,2.385
		c1.75,0.592,3.676,0.888,5.777,0.888c1.238,0,2.571-0.135,3.999-0.404c1.427-0.27,2.8-0.672,4.121-1.211
		c1.319-0.538,2.49-1.198,3.514-1.979c1.023-0.78,1.778-1.684,2.264-2.706v3.312c0,0.593,0.213,1.105,0.646,1.535
		c0.43,0.432,0.941,0.646,1.535,0.646h2.988c0.593,0,1.104-0.215,1.536-0.646c0.431-0.43,0.646-0.942,0.646-1.535V80.107
		c0-2.585-0.418-4.874-1.253-6.867c-0.835-1.993-1.993-3.662-3.474-5.009c-1.482-1.346-3.26-2.37-5.333-3.071
		c-2.073-0.698-4.321-1.05-6.746-1.05c-2.101,0-4.08,0.311-5.938,0.929c-1.857,0.62-3.501,1.414-4.928,2.384
		c-1.429,0.969-2.559,2.074-3.393,3.312c-0.836,1.24-1.307,2.452-1.414,3.636c-0.054,0.593,0.148,1.104,0.606,1.535
		c0.457,0.432,0.981,0.646,1.575,0.646h2.424c0.646,0,1.158-0.081,1.535-0.242c0.376-0.162,0.727-0.457,1.05-0.889
		c0.86-1.184,1.898-2.208,3.11-3.07c1.213-0.861,3.002-1.292,5.373-1.292c2.692,0,4.941,0.687,6.746,2.061
		c1.805,1.373,2.708,3.433,2.708,6.18v1.051l-11.393,1.858c-2.263,0.377-4.404,0.916-6.423,1.616
		c-2.02,0.701-3.785,1.615-5.292,2.747c-1.51,1.131-2.694,2.504-3.556,4.121c-0.861,1.615-1.293,3.501-1.293,5.655
		C183.852,97.962,184.188,99.472,184.863,100.871 M195.205,100.306c-0.943-0.323-1.711-0.754-2.303-1.292
		c-0.594-0.538-1.024-1.105-1.294-1.697c-0.27-0.593-0.403-1.185-0.403-1.778c0-1.884,0.996-3.42,2.99-4.605
		c1.991-1.184,4.686-2.046,8.078-2.585l9.535-1.535v2.02c0,1.777-0.312,3.393-0.931,4.847c-0.619,1.455-1.508,2.708-2.666,3.757
		c-1.159,1.051-2.545,1.873-4.161,2.464c-1.615,0.594-3.393,0.889-5.332,0.889C197.318,100.79,196.146,100.629,195.205,100.306
		 M243.396,106.931c0.701,0,1.226-0.215,1.577-0.646c0.349-0.43,0.631-0.889,0.848-1.373l16.077-37.488
		c0.054-0.162,0.081-0.35,0.081-0.566c0-0.538-0.189-0.996-0.565-1.373c-0.377-0.376-0.836-0.566-1.373-0.566h-3.313
		c-0.646,0-1.158,0.216-1.534,0.646c-0.378,0.432-0.646,0.863-0.809,1.293l-12.522,29.328l-12.523-29.328
		c-0.161-0.43-0.444-0.861-0.848-1.293c-0.404-0.43-1.011-0.646-1.818-0.646h-2.989c-0.539,0-0.998,0.189-1.374,0.566
		c-0.376,0.377-0.564,0.835-0.564,1.373c0,0.216,0.025,0.404,0.081,0.566l16.077,37.488c0.215,0.484,0.512,0.943,0.889,1.373
		c0.376,0.432,0.915,0.646,1.616,0.646H243.396L243.396,106.931z M263.717,100.871c0.674,1.401,1.616,2.6,2.828,3.595
		c1.212,0.998,2.693,1.792,4.444,2.385c1.75,0.592,3.676,0.888,5.777,0.888c1.237,0,2.57-0.135,3.999-0.404
		c1.425-0.27,2.799-0.672,4.119-1.211c1.32-0.538,2.491-1.198,3.515-1.979c1.022-0.78,1.777-1.684,2.263-2.706v3.312
		c0,0.593,0.215,1.105,0.646,1.535c0.432,0.432,0.942,0.646,1.535,0.646h2.99c0.592,0,1.103-0.215,1.535-0.646
		c0.43-0.43,0.646-0.942,0.646-1.535V80.107c0-2.585-0.419-4.874-1.253-6.867c-0.836-1.993-1.993-3.662-3.474-5.009
		c-1.481-1.346-3.26-2.37-5.333-3.071c-2.074-0.698-4.322-1.05-6.746-1.05c-2.101,0-4.08,0.311-5.938,0.929
		c-1.857,0.62-3.502,1.414-4.928,2.384c-1.428,0.969-2.559,2.074-3.394,3.312c-0.835,1.24-1.307,2.452-1.414,3.636
		c-0.055,0.593,0.147,1.104,0.606,1.535c0.457,0.432,0.981,0.646,1.575,0.646h2.425c0.646,0,1.156-0.081,1.534-0.242
		c0.376-0.162,0.728-0.457,1.05-0.889c0.861-1.184,1.899-2.208,3.11-3.07c1.212-0.861,3.002-1.292,5.373-1.292
		c2.693,0,4.94,0.687,6.746,2.061c1.804,1.373,2.707,3.433,2.707,6.18v1.051l-11.393,1.858c-2.262,0.377-4.402,0.916-6.422,1.616
		c-2.021,0.701-3.786,1.615-5.293,2.747c-1.508,1.131-2.693,2.504-3.555,4.121c-0.861,1.615-1.292,3.501-1.292,5.655
		C262.708,97.962,263.043,99.472,263.717,100.871 M274.059,100.306c-0.942-0.323-1.711-0.754-2.303-1.292
		c-0.593-0.538-1.023-1.105-1.292-1.697c-0.27-0.593-0.404-1.185-0.404-1.778c0-1.884,0.997-3.42,2.989-4.605
		c1.992-1.184,4.687-2.046,8.079-2.585l9.534-1.535v2.02c0,1.777-0.312,3.393-0.93,4.847c-0.619,1.455-1.508,2.708-2.666,3.757
		c-1.158,1.051-2.545,1.873-4.16,2.464c-1.616,0.594-3.393,0.889-5.332,0.889C276.172,100.79,275.001,100.629,274.059,100.306
		 M329.684,97.518c-0.539,0.675-1.251,1.253-2.141,1.737c-0.888,0.485-1.912,0.862-3.07,1.132c-1.159,0.27-2.33,0.403-3.514,0.403
		c-2.424,0-4.391-0.323-5.898-0.969c-1.509-0.647-2.693-1.563-3.555-2.748c-0.378-0.538-0.781-0.849-1.212-0.929
		c-0.432-0.081-0.808-0.122-1.131-0.122h-2.909c-0.646,0-1.185,0.216-1.615,0.647c-0.432,0.43-0.62,0.942-0.565,1.535
		c0.053,0.969,0.471,2.006,1.252,3.11c0.779,1.104,1.899,2.129,3.353,3.069c1.454,0.944,3.204,1.738,5.252,2.385
		c2.046,0.646,4.39,0.969,7.029,0.969c2.638,0,4.995-0.351,7.069-1.05c2.072-0.699,3.838-1.616,5.292-2.747
		c1.453-1.131,2.571-2.45,3.353-3.959c0.78-1.507,1.171-3.07,1.171-4.687c0-1.4-0.215-2.733-0.646-3.999
		c-0.432-1.265-1.159-2.424-2.182-3.474c-1.023-1.05-2.371-1.992-4.04-2.828c-1.669-0.834-3.744-1.521-6.221-2.06
		c-2.371-0.538-4.35-0.996-5.938-1.374c-1.591-0.376-2.869-0.794-3.839-1.252c-0.97-0.457-1.67-0.996-2.101-1.616
		c-0.431-0.618-0.646-1.44-0.646-2.464c0-1.616,0.769-2.881,2.304-3.797c1.535-0.915,3.541-1.374,6.019-1.374
		c2.423,0,4.322,0.311,5.696,0.929c1.373,0.62,2.41,1.388,3.11,2.302c0.376,0.485,0.794,0.795,1.252,0.93
		c0.457,0.135,0.849,0.202,1.172,0.202h2.666c0.592,0,1.117-0.214,1.576-0.646c0.456-0.431,0.658-0.942,0.605-1.535
		c-0.055-0.971-0.432-1.98-1.132-3.03c-0.7-1.05-1.724-2.032-3.069-2.949c-1.348-0.915-3.004-1.669-4.969-2.262
		c-1.967-0.592-4.27-0.889-6.908-0.889c-2.64,0-4.942,0.323-6.908,0.97c-1.967,0.646-3.595,1.535-4.888,2.667
		c-1.293,1.131-2.262,2.424-2.909,3.877c-0.646,1.454-0.969,2.989-0.969,4.605c0,2.856,0.875,5.346,2.626,7.473
		c1.749,2.129,4.807,3.65,9.17,4.565c2.315,0.485,4.349,0.943,6.101,1.375c1.748,0.431,3.19,0.888,4.322,1.373
		c1.13,0.485,1.979,1.064,2.544,1.737c0.565,0.674,0.849,1.523,0.849,2.545C330.492,96.104,330.223,96.845,329.684,97.518
		 M343.863,100.871c0.673,1.401,1.615,2.6,2.827,3.595c1.213,0.998,2.693,1.792,4.444,2.385c1.749,0.592,3.676,0.888,5.776,0.888
		c1.238,0,2.571-0.135,4-0.404c1.426-0.27,2.8-0.672,4.12-1.211c1.318-0.538,2.49-1.198,3.515-1.979
		c1.022-0.78,1.777-1.684,2.262-2.706v3.312c0,0.593,0.214,1.105,0.646,1.535c0.431,0.432,0.941,0.646,1.535,0.646h2.989
		c0.593,0,1.104-0.215,1.536-0.646c0.43-0.43,0.646-0.942,0.646-1.535V80.107c0-2.585-0.418-4.874-1.252-6.867
		c-0.836-1.993-1.994-3.662-3.475-5.009c-1.481-1.346-3.26-2.37-5.333-3.071c-2.073-0.698-4.321-1.05-6.746-1.05
		c-2.101,0-4.08,0.311-5.938,0.929c-1.859,0.62-3.502,1.414-4.929,2.384c-1.428,0.969-2.56,2.074-3.394,3.312
		c-0.836,1.24-1.307,2.452-1.413,3.636c-0.055,0.593,0.147,1.104,0.605,1.535c0.457,0.432,0.981,0.646,1.576,0.646h2.423
		c0.646,0,1.158-0.081,1.535-0.242c0.377-0.162,0.728-0.457,1.051-0.889c0.86-1.184,1.897-2.208,3.109-3.07
		c1.213-0.861,3.002-1.292,5.373-1.292c2.693,0,4.941,0.687,6.746,2.061c1.805,1.373,2.707,3.433,2.707,6.18v1.051l-11.392,1.858
		c-2.262,0.377-4.402,0.916-6.423,1.616c-2.02,0.701-3.785,1.615-5.292,2.747c-1.51,1.131-2.694,2.504-3.556,4.121
		c-0.861,1.615-1.293,3.501-1.293,5.655C342.853,97.962,343.188,99.472,343.863,100.871 M354.205,100.306
		c-0.943-0.323-1.711-0.754-2.303-1.292c-0.594-0.538-1.024-1.105-1.292-1.697c-0.271-0.593-0.404-1.185-0.404-1.778
		c0-1.884,0.996-3.42,2.989-4.605c1.991-1.184,4.686-2.046,8.078-2.585l9.534-1.535v2.02c0,1.777-0.311,3.393-0.929,4.847
		c-0.62,1.455-1.509,2.708-2.666,3.757c-1.159,1.051-2.545,1.873-4.161,2.464c-1.616,0.594-3.394,0.889-5.333,0.889
		C356.318,100.79,355.146,100.629,354.205,100.306"/>
</g>
</svg>
