<svg enable-background="new 0 0 39.981 20.636" height="20.636" viewBox="0 0 39.981 20.636" width="39.981" xmlns="http://www.w3.org/2000/svg"><g clip-rule="evenodd" fill="#fff" fill-rule="evenodd"><path d="m14.228 9.028c-.033 0-.066-.005-.1-.014-.2-.057-.316-.267-.261-.47.144-.531.216-1.082.216-1.639 0-3.387-2.702-6.142-6.022-6.142-3.321 0-6.022 2.755-6.022 6.142 0 .525.065 1.047.193 1.55.052.205-.068.414-.269.467-.199.053-.404-.069-.456-.274-.145-.566-.217-1.152-.217-1.742 0-3.807 3.037-6.906 6.771-6.906 3.733 0 6.771 3.099 6.771 6.906 0 .625-.082 1.244-.243 1.841-.046.17-.197.281-.361.281"/><path d="m8.149 18.701c-.116 0-.226-.056-.297-.147l-4.869-6.311c-.128-.167-.1-.409.064-.541s.402-.102.531.065l4.565 5.916 4.396-5.923c.126-.17.364-.203.53-.074.167.127.2.369.074.539l-4.692 6.321c-.072.098-.181.154-.299.155-.001 0-.002 0-.003 0"/><path d="m9.287 10.318h-.517c-.214 0-.387-.174-.387-.387v-.517c0-.213.173-.386.387-.386h.517c.213 0 .386.173.386.386v.518c0 .213-.173.386-.386.386"/><path d="m7.674 10.318h-.516c-.214 0-.387-.174-.387-.387v-.517c0-.213.173-.386.387-.386h.517c.213 0 .387.173.387.386v.518c-.001.213-.174.386-.388.386"/><path d="m7.674 11.93h-.516c-.214 0-.387-.173-.387-.386v-.518c0-.213.173-.386.387-.386h.517c.213 0 .387.173.387.386v.518c-.001.213-.174.386-.388.386"/><path d="m9.287 11.93h-.517c-.214 0-.387-.173-.387-.386v-.518c0-.213.173-.386.387-.386h.517c.213 0 .386.173.386.386v.518c0 .213-.173.386-.386.386"/><path d="m8.383 20.636c-.378 0-1.613-.048-1.613-.646 0-.597 1.235-.645 1.613-.645s1.612.048 1.612.645c0 .598-1.234.646-1.612.646"/><path d="m9.272 19.835h.001z"/><path d="m16.559 11.919-3.944-3.917.055-2.039c.005-.195-.15-.358-.348-.364l-.078-.002c-.197-.005-.361.149-.366.346l-.036 1.293-3.237-3.215c-.143-.142-.396-.142-.54 0l-7.954 7.898c-.149.148-.149.388 0 .535.149.148.391.148.54 0l7.684-7.629 7.684 7.629c.075.075.172.111.27.111s.195-.036.27-.111c.149-.147.149-.387 0-.535"/><path d="m37.438 10.516c-.102-.032-.182-.077-.244-.134-.064-.055-.109-.113-.139-.175s-.043-.123-.043-.184c0-.195.105-.354.318-.478.211-.122.498-.211.857-.267l1.014-.159v.209c0 .184-.033.351-.1.502-.066.15-.16.279-.283.389-.123.108-.27.193-.441.254-.172.063-.359.093-.566.093-.148 0-.273-.017-.373-.05zm-1.097.058c.068.146.17.269.299.373.129.103.285.185.473.246.186.062.391.092.613.092.131 0 .273-.014.424-.042.152-.028.297-.069.438-.125s.266-.124.373-.205c.109-.081.189-.175.242-.279v.342c0 .063.021.114.066.159.047.045.1.066.164.066h.316c.064 0 .119-.021.164-.066.047-.045.068-.097.068-.159v-2.55c0-.267-.043-.504-.133-.71-.088-.206-.211-.379-.369-.518-.158-.14-.346-.246-.566-.318s-.457-.109-.715-.109c-.225 0-.434.033-.631.097s-.373.146-.523.247c-.152.1-.273.214-.361.343-.09.128-.139.254-.15.376-.006.062.016.114.064.158.049.045.105.067.168.067h.258c.068 0 .121-.009.162-.025.039-.017.078-.047.111-.092.092-.123.203-.229.332-.317.127-.09.316-.134.57-.134.285 0 .523.071.715.213.193.143.289.355.289.639v.109l-1.209.192c-.242.039-.469.095-.684.167s-.402.167-.563.284-.286.259-.376.426c-.092.167-.139.362-.139.585 0 .167.038.324.11.468zm-1.508-.346c-.057.07-.133.13-.227.18-.096.05-.203.089-.328.117-.121.028-.246.042-.371.042-.258 0-.467-.033-.627-.101-.16-.066-.287-.161-.377-.284-.039-.056-.082-.088-.129-.096-.045-.009-.086-.013-.119-.013h-.311c-.068 0-.125.022-.17.066-.047.045-.066.098-.061.159.004.101.051.207.133.322.082.113.201.22.355.316.154.098.34.181.557.247.219.066.469.101.748.101s.529-.036.75-.108.408-.168.563-.284c.154-.117.273-.254.355-.409.084-.156.125-.318.125-.485 0-.146-.023-.283-.068-.414-.047-.131-.123-.251-.232-.36-.107-.107-.252-.205-.428-.292-.178-.086-.398-.157-.662-.213-.25-.056-.461-.104-.631-.143-.168-.039-.303-.082-.408-.129-.101-.047-.175-.103-.22-.167-.047-.064-.07-.149-.07-.256 0-.167.082-.298.246-.393.162-.094.375-.142.639-.142.258 0 .459.032.604.096.146.064.258.144.332.238.039.05.084.083.131.097.051.013.092.021.125.021h.283c.064 0 .119-.022.168-.067.049-.044.07-.097.064-.158-.006-.101-.045-.205-.119-.313s-.184-.211-.326-.306c-.145-.095-.32-.172-.529-.234-.207-.061-.451-.092-.732-.092s-.525.034-.734.101-.381.159-.52.275c-.137.118-.238.252-.309.402-.07.15-.103.308-.103.475 0 .296.092.554.277.773.186.221.51.378.973.473.248.05.465.098.648.143.188.044.34.092.459.142.121.051.211.11.271.18s.09.157.09.264c.001.082-.026.159-.085.229zm-5.906.288c-.102-.032-.184-.077-.246-.134-.063-.055-.107-.113-.137-.175-.027-.062-.043-.123-.043-.184 0-.195.105-.354.318-.478.211-.122.498-.211.857-.267l1.014-.158v.209c0 .184-.033.351-.1.502-.066.15-.16.279-.283.389-.123.108-.27.193-.441.254-.172.063-.361.093-.566.093-.149-.001-.274-.018-.373-.051zm-1.1.058c.072.146.172.269.301.373.129.103.287.185.473.246s.389.092.613.092c.131 0 .273-.014.424-.042.152-.028.297-.069.439-.125.139-.056.264-.124.373-.205.107-.081.188-.175.24-.279v.342c0 .063.021.114.068.159.045.045.098.066.162.066h.318c.063 0 .115-.021.162-.066s.068-.097.068-.159v-2.55c0-.267-.043-.504-.131-.71-.09-.206-.213-.379-.369-.518-.16-.14-.348-.246-.568-.318s-.457-.109-.715-.109c-.225 0-.434.033-.631.097s-.373.146-.525.247c-.15.1-.271.214-.359.343-.088.128-.139.254-.15.376-.006.062.016.114.064.158.049.045.105.067.168.067h.256c.07 0 .123-.009.164-.025s.078-.047.111-.092c.092-.123.201-.229.332-.317.127-.09.316-.134.57-.134.285 0 .521.071.715.213.191.143.289.355.289.639v.109l-1.211.192c-.24.039-.469.095-.682.167-.215.072-.402.167-.563.284-.162.117-.285.259-.377.427-.092.167-.139.362-.139.585.003.166.04.323.11.467zm-2.158.627c.074 0 .131-.021.168-.066s.068-.092.09-.142l1.707-3.879c.008-.018.01-.037.01-.06 0-.055-.02-.103-.061-.142-.039-.039-.088-.059-.146-.059h-.352c-.068 0-.123.023-.162.067-.041.044-.07.089-.086.133l-1.33 3.035-1.33-3.035c-.016-.044-.047-.089-.09-.133s-.107-.067-.193-.067h-.318c-.057 0-.105.02-.146.059-.04.04-.06.088-.06.143 0 .022.004.042.01.06l1.707 3.879c.021.05.055.097.094.142.041.045.096.066.172.066h.316zm-5.117-.685c-.1-.032-.181-.077-.245-.134-.063-.055-.108-.113-.137-.175s-.043-.123-.043-.184c0-.195.106-.354.318-.478.211-.122.498-.211.857-.267l1.012-.159v.209c0 .184-.031.351-.098.502-.066.15-.16.279-.283.389-.123.108-.27.193-.441.254-.172.063-.361.093-.566.093-.15 0-.275-.017-.374-.05zm-1.098.058c.071.146.172.269.3.373.129.103.286.185.473.246.186.062.39.092.613.092.133 0 .273-.014.424-.042.152-.028.299-.069.438-.125.141-.056.266-.124.375-.205.107-.081.189-.175.238-.279v.342c0 .063.023.114.07.159.045.045.1.066.162.066h.318c.063 0 .117-.021.162-.066s.07-.097.07-.159v-2.55c0-.267-.045-.504-.135-.71-.088-.206-.211-.379-.369-.518-.158-.14-.346-.246-.564-.318-.221-.072-.461-.109-.717-.109-.225 0-.434.033-.631.097s-.372.146-.523.247c-.152.1-.272.214-.361.343-.089.128-.139.254-.15.376-.006.062.016.114.063.158.049.045.104.067.168.067h.257c.069 0 .123-.009.163-.025s.077-.047.111-.092c.092-.123.202-.229.331-.317.129-.09.318-.134.57-.134.285 0 .523.071.717.213.189.143.285.355.285.639v.109l-1.209.192c-.239.039-.467.095-.682.167-.214.072-.401.167-.562.284s-.287.259-.377.427c-.092.167-.138.362-.138.585.002.166.038.323.11.467z"/></g></svg>