<?xml version="1.0" encoding="utf-8"?>
<!-- Generator: Adobe Illustrator 16.0.0, SVG Export Plug-In . SVG Version: 6.00 Build 0)  -->
<!DOCTYPE svg PUBLIC "-//W3C//DTD SVG 1.1//EN" "http://www.w3.org/Graphics/SVG/1.1/DTD/svg11.dtd">
<svg version="1.1" xmlns="http://www.w3.org/2000/svg" xmlns:xlink="http://www.w3.org/1999/xlink" x="0px" y="0px" width="1024px"
	 height="1024px" viewBox="0 0 1024 1024" enable-background="new 0 0 1024 1024" xml:space="preserve">
<g id="Layer_2" display="none">
	<rect display="inline" fill="#F7941E" width="1024" height="1024"/>
</g>
<g id="Layer_1">
	<g display="none">
		<path display="inline" fill="#2B2E31" d="M826.213,448.913c-1.666,0-3.373-0.224-5.064-0.688
			c-10.113-2.79-16.049-13.249-13.259-23.363c7.281-26.4,10.975-53.806,10.975-81.454c0-168.406-137.009-305.415-305.41-305.415
			c-168.409,0-305.418,137.009-305.418,305.415c0,26.106,3.298,52.035,9.801,77.055c2.638,10.155-3.453,20.526-13.607,23.167
			c-10.142,2.635-20.521-3.45-23.164-13.61c-7.313-28.144-11.023-57.282-11.023-86.612c0-189.355,154.053-343.409,343.412-343.409
			c189.355,0,343.409,154.054,343.409,343.409c0,31.063-4.152,61.867-12.347,91.558C842.19,443.39,834.547,448.913,826.213,448.913
			L826.213,448.913z"/>
		<path display="inline" fill="#2B2E31" d="M512.711,922.366c-5.823,0-11.331-2.672-14.933-7.257L253.397,604.166
			c-6.482-8.249-5.051-20.191,3.198-26.677c8.244-6.485,20.193-5.049,26.673,3.2l229.154,291.568l220.691-291.896
			c6.328-8.36,18.241-10.013,26.612-3.69c8.364,6.326,10.025,18.242,3.692,26.607L527.863,914.823
			c-3.554,4.706-9.082,7.483-14.972,7.543C512.833,922.366,512.773,922.366,512.711,922.366L512.711,922.366z"/>
		<path display="inline" fill="#2B2E31" d="M564.429,508.843h-22.976c-9.484,0-17.174-7.689-17.174-17.173v-22.981
			c0-9.484,7.689-17.174,17.174-17.174h22.976c9.484,0,17.174,7.689,17.174,17.174v22.981
			C581.603,501.154,573.913,508.843,564.429,508.843"/>
		<path display="inline" fill="#2B2E31" d="M481.479,508.843H458.5c-9.484,0-17.174-7.689-17.174-17.173v-22.981
			c0-9.484,7.689-17.174,17.174-17.174h22.978c9.484,0,17.174,7.689,17.174,17.174v22.981
			C498.652,501.154,490.963,508.843,481.479,508.843"/>
		<path display="inline" fill="#2B2E31" d="M481.479,585.46H458.5c-9.484,0-17.174-7.689-17.174-17.174v-22.978
			c0-9.487,7.689-17.174,17.174-17.174h22.978c9.484,0,17.174,7.687,17.174,17.174v22.978
			C498.652,577.771,490.963,585.46,481.479,585.46"/>
		<path display="inline" fill="#2B2E31" d="M564.429,585.46h-22.976c-9.484,0-17.174-7.689-17.174-17.174v-22.978
			c0-9.487,7.689-17.174,17.174-17.174h22.976c9.484,0,17.174,7.687,17.174,17.174v22.978
			C581.603,577.771,573.913,585.46,564.429,585.46"/>
		<path display="inline" fill="#2B2E31" d="M511.997,1024.001c-19.08,0-81.328-2.7-81.328-37.4
			c0-34.698,62.249-37.396,81.328-37.396c19.079,0,81.333,2.697,81.333,37.396C593.33,1021.301,531.076,1024.001,511.997,1024.001
			L511.997,1024.001z"/>
		<g display="inline">
			<defs>
				<rect id="SVGID_1_" x="97.19" y="-0.001" width="829.621" height="1024.002"/>
			</defs>
			<clipPath id="SVGID_2_">
				<use xlink:href="#SVGID_1_"  overflow="visible"/>
			</clipPath>
			<polygon clip-path="url(#SVGID_2_)" fill="#42C4D9" points="558.637,995.065 558.688,995.065 558.637,995.065 			"/>
			<path clip-path="url(#SVGID_2_)" fill="#42C4D9" d="M921.241,598.302L724.934,401.995l2.744-102.156
				c0.263-9.825-7.488-17.999-17.318-18.262l-3.842-0.108c-9.819-0.263-17.999,7.488-18.268,17.313l-1.732,64.791L525.429,202.484
				c-7.127-7.127-19.742-7.122-26.864,0l-395.81,395.822c-7.418,7.417-7.418,19.441,0,26.862c7.417,7.419,19.448,7.424,26.864-0.008
				l382.378-382.377l382.38,382.377c3.708,3.719,8.571,5.567,13.435,5.567c4.858,0,9.722-1.849,13.43-5.567
				C928.663,617.748,928.663,605.724,921.241,598.302L921.241,598.302z"/>
		</g>
	</g>
	<g display="none">
		<path display="inline" fill="#00568D" d="M826.213,448.913c-1.671,0-3.373-0.224-5.064-0.688
			c-10.113-2.79-16.049-13.249-13.259-23.363c7.281-26.4,10.975-53.806,10.975-81.454c0-168.406-137.009-305.415-305.41-305.415
			c-168.409,0-305.42,137.009-305.42,305.415c0,26.106,3.3,52.035,9.804,77.055c2.638,10.155-3.453,20.526-13.61,23.167
			c-10.139,2.635-20.519-3.45-23.162-13.61c-7.313-28.144-11.023-57.282-11.023-86.612c0-189.355,154.053-343.409,343.412-343.409
			c189.355,0,343.409,154.054,343.409,343.409c0,31.063-4.157,61.867-12.347,91.558C842.19,443.39,834.547,448.913,826.213,448.913
			L826.213,448.913z"/>
		<path display="inline" fill="#00568D" d="M706.656,419.87l-3.842-0.103c-9.83-0.258-17.571-8.438-17.318-18.262l2.754-102.723
			c0.269-9.825,8.448-17.576,18.268-17.313l3.842,0.108c9.83,0.263,17.581,8.438,17.318,18.262l-2.759,102.723
			C724.655,412.381,716.486,420.138,706.656,419.87"/>
		<path display="inline" fill="#00568D" d="M512.711,922.366c-5.823,0-11.331-2.672-14.933-7.257L253.397,604.166
			c-6.482-8.249-5.054-20.191,3.198-26.677c8.244-6.485,20.193-5.049,26.673,3.2l229.154,291.568l220.691-291.896
			c6.328-8.36,18.241-10.013,26.612-3.69c8.364,6.326,10.025,18.242,3.692,26.607L527.863,914.823
			c-3.554,4.706-9.082,7.483-14.972,7.543C512.833,922.366,512.773,922.366,512.711,922.366L512.711,922.366z"/>
		<path display="inline" fill="#00568D" d="M564.429,508.843h-22.976c-9.484,0-17.174-7.689-17.174-17.173v-22.981
			c0-9.484,7.689-17.174,17.174-17.174h22.976c9.484,0,17.174,7.689,17.174,17.174v22.981
			C581.603,501.154,573.913,508.843,564.429,508.843"/>
		<path display="inline" fill="#00568D" d="M481.479,508.843H458.5c-9.484,0-17.177-7.689-17.177-17.173v-22.981
			c0-9.484,7.692-17.174,17.177-17.174h22.978c9.484,0,17.174,7.689,17.174,17.174v22.981
			C498.652,501.154,490.963,508.843,481.479,508.843"/>
		<path display="inline" fill="#00568D" d="M481.479,585.46H458.5c-9.484,0-17.177-7.689-17.177-17.174v-22.978
			c0-9.487,7.692-17.174,17.177-17.174h22.978c9.484,0,17.174,7.687,17.174,17.174v22.978
			C498.652,577.771,490.963,585.46,481.479,585.46"/>
		<g display="inline">
			<defs>
				<rect id="SVGID_3_" x="97.19" y="-0.001" width="829.621" height="1024.002"/>
			</defs>
			<clipPath id="SVGID_4_">
				<use xlink:href="#SVGID_3_"  overflow="visible"/>
			</clipPath>
			<path clip-path="url(#SVGID_4_)" fill="#00568D" d="M564.429,585.46h-22.976c-9.484,0-17.174-7.689-17.174-17.174v-22.978
				c0-9.487,7.689-17.174,17.174-17.174h22.976c9.484,0,17.174,7.687,17.174,17.174v22.978
				C581.603,577.771,573.913,585.46,564.429,585.46"/>
			<path clip-path="url(#SVGID_4_)" fill="#00568D" d="M907.812,630.729c-4.863,0-9.727-1.849-13.435-5.567l-382.38-382.377
				L129.619,625.161c-7.416,7.432-19.448,7.427-26.864,0.008c-7.418-7.421-7.418-19.445,0-26.862l395.81-395.822
				c7.122-7.122,19.737-7.127,26.864,0l395.813,395.817c7.422,7.422,7.422,19.446,0,26.859
				C917.533,628.88,912.67,630.729,907.812,630.729L907.812,630.729z M558.637,995.065h0.052H558.637L558.637,995.065z
				 M511.997,1024.001c-19.08,0-81.328-2.7-81.328-37.4c0-34.698,62.249-37.396,81.328-37.396c19.079,0,81.333,2.697,81.333,37.396
				C593.33,1021.301,531.076,1024.001,511.997,1024.001L511.997,1024.001z"/>
		</g>
	</g>
	<g>
		<path fill="#FFFFFF" d="M826.213,448.913c-1.666,0-3.373-0.224-5.064-0.688c-10.113-2.79-16.049-13.249-13.259-23.363
			c7.281-26.4,10.975-53.806,10.975-81.454c0-168.406-137.009-305.415-305.41-305.415c-168.409,0-305.418,137.009-305.418,305.415
			c0,26.106,3.298,52.035,9.801,77.055c2.638,10.155-3.453,20.526-13.607,23.167c-10.142,2.635-20.521-3.45-23.164-13.61
			c-7.313-28.144-11.023-57.282-11.023-86.612c0-189.355,154.053-343.409,343.412-343.409
			c189.355,0,343.409,154.054,343.409,343.409c0,31.063-4.152,61.867-12.347,91.558C842.19,443.39,834.547,448.913,826.213,448.913
			L826.213,448.913z"/>
		<path fill="#FFFFFF" d="M512.711,922.366c-5.823,0-11.331-2.672-14.933-7.257L253.397,604.166
			c-6.482-8.249-5.051-20.191,3.198-26.677c8.244-6.485,20.193-5.049,26.673,3.2l229.154,291.568l220.691-291.896
			c6.328-8.36,18.241-10.013,26.612-3.69c8.364,6.326,10.025,18.242,3.692,26.607L527.863,914.823
			c-3.554,4.706-9.082,7.483-14.972,7.543C512.833,922.366,512.773,922.366,512.711,922.366L512.711,922.366z"/>
		<path fill="#FFFFFF" d="M564.429,508.843h-22.976c-9.484,0-17.174-7.689-17.174-17.173v-22.981
			c0-9.484,7.689-17.174,17.174-17.174h22.976c9.484,0,17.174,7.689,17.174,17.174v22.981
			C581.603,501.154,573.913,508.843,564.429,508.843"/>
		<path fill="#FFFFFF" d="M481.479,508.843H458.5c-9.484,0-17.174-7.689-17.174-17.173v-22.981c0-9.484,7.689-17.174,17.174-17.174
			h22.978c9.484,0,17.174,7.689,17.174,17.174v22.981C498.652,501.154,490.963,508.843,481.479,508.843"/>
		<path fill="#FFFFFF" d="M481.479,585.46H458.5c-9.484,0-17.174-7.689-17.174-17.174v-22.978c0-9.487,7.689-17.174,17.174-17.174
			h22.978c9.484,0,17.174,7.687,17.174,17.174v22.978C498.652,577.771,490.963,585.46,481.479,585.46"/>
		<path fill="#FFFFFF" d="M564.429,585.46h-22.976c-9.484,0-17.174-7.689-17.174-17.174v-22.978c0-9.487,7.689-17.174,17.174-17.174
			h22.976c9.484,0,17.174,7.687,17.174,17.174v22.978C581.603,577.771,573.913,585.46,564.429,585.46"/>
		<path fill="#FFFFFF" d="M511.997,1024.001c-19.08,0-81.328-2.7-81.328-37.4c0-34.698,62.249-37.396,81.328-37.396
			c19.079,0,81.333,2.697,81.333,37.396C593.33,1021.301,531.076,1024.001,511.997,1024.001L511.997,1024.001z"/>
		<g>
			<defs>
				<rect id="SVGID_5_" x="97.19" y="-0.001" width="829.621" height="1024.002"/>
			</defs>
			<clipPath id="SVGID_6_">
				<use xlink:href="#SVGID_5_"  overflow="visible"/>
			</clipPath>
			<polygon clip-path="url(#SVGID_6_)" fill="#FFFFFF" points="558.637,995.065 558.688,995.065 558.637,995.065 			"/>
			<path clip-path="url(#SVGID_6_)" fill="#FFFFFF" d="M921.241,598.302L724.934,401.995l2.744-102.156
				c0.263-9.825-7.488-17.999-17.318-18.262l-3.842-0.108c-9.819-0.263-17.999,7.488-18.268,17.313l-1.732,64.791L525.429,202.484
				c-7.127-7.127-19.742-7.122-26.864,0l-395.81,395.822c-7.418,7.417-7.418,19.441,0,26.862c7.417,7.419,19.448,7.424,26.864-0.008
				l382.378-382.377l382.38,382.377c3.708,3.719,8.571,5.567,13.435,5.567c4.858,0,9.722-1.849,13.43-5.567
				C928.663,617.748,928.663,605.724,921.241,598.302L921.241,598.302z"/>
		</g>
	</g>
</g>
</svg>
