<?xml version="1.0" encoding="utf-8"?>
<!-- Generator: Adobe Illustrator 19.0.0, SVG Export Plug-In . SVG Version: 6.00 Build 0)  -->
<svg version="1.1" id="Layer_1" xmlns="http://www.w3.org/2000/svg" xmlns:xlink="http://www.w3.org/1999/xlink" x="0px" y="0px"
	 viewBox="0 0 27 35.9" style="enable-background:new 0 0 27 35.9;" xml:space="preserve">
<style type="text/css">
	.st0{fill:#65CADE;}
	.st1{fill:#FFFFFF;}
</style>
<g id="XMLID_12_">
	<path id="XMLID_24_" class="st0" d="M0.2,13.4c0,7.1,9.3,18.5,12.4,22.1c0.5,0.6,1.4,0.6,1.9,0c3.1-3.7,12.4-15.4,12.4-22
		C26.9,6,20.9,0,13.5,0C6.1,0,0.2,6,0.2,13.4z"/>
	<g id="XMLID_13_">
		<path id="XMLID_9_" class="st1" d="M21.6,16.3c0,0-0.1,0-0.1,0c-0.3-0.1-0.4-0.3-0.3-0.6c0.2-0.7,0.3-1.4,0.3-2.1
			c0-4.3-3.5-7.8-7.8-7.8c-4.3,0-7.8,3.5-7.8,7.8c0,0.7,0.1,1.3,0.3,2c0.1,0.3-0.1,0.5-0.3,0.6c-0.3,0.1-0.5-0.1-0.6-0.3
			c-0.2-0.7-0.3-1.5-0.3-2.2c0-4.8,3.9-8.8,8.8-8.8c4.8,0,8.8,3.9,8.8,8.8c0,0.8-0.1,1.6-0.3,2.3C22,16.2,21.8,16.3,21.6,16.3z"/>
		<path id="XMLID_8_" class="st1" d="M13.6,28.4c-0.1,0-0.3-0.1-0.4-0.2l-6.2-7.9c-0.2-0.2-0.1-0.5,0.1-0.7c0.2-0.2,0.5-0.1,0.7,0.1
			l5.9,7.5l5.6-7.5c0.2-0.2,0.5-0.3,0.7-0.1c0.2,0.2,0.3,0.5,0.1,0.7l-6,8C13.9,28.4,13.7,28.4,13.6,28.4
			C13.6,28.4,13.6,28.4,13.6,28.4z"/>
		<g id="XMLID_14_">
			<path id="XMLID_7_" class="st1" d="M14.9,17.9h-0.6c-0.2,0-0.4-0.2-0.4-0.4v-0.6c0-0.2,0.2-0.4,0.4-0.4h0.6
				c0.2,0,0.4,0.2,0.4,0.4v0.6C15.3,17.7,15.1,17.9,14.9,17.9"/>
			<path id="XMLID_6_" class="st1" d="M12.8,17.9h-0.6c-0.2,0-0.4-0.2-0.4-0.4v-0.6c0-0.2,0.2-0.4,0.4-0.4h0.6
				c0.2,0,0.4,0.2,0.4,0.4v0.6C13.2,17.7,13,17.9,12.8,17.9"/>
			<path id="XMLID_5_" class="st1" d="M12.8,19.8h-0.6c-0.2,0-0.4-0.2-0.4-0.4v-0.6c0-0.2,0.2-0.4,0.4-0.4h0.6
				c0.2,0,0.4,0.2,0.4,0.4v0.6C13.2,19.6,13,19.8,12.8,19.8"/>
			<path id="XMLID_4_" class="st1" d="M14.9,19.8h-0.6c-0.2,0-0.4-0.2-0.4-0.4v-0.6c0-0.2,0.2-0.4,0.4-0.4h0.6
				c0.2,0,0.4,0.2,0.4,0.4v0.6C15.3,19.6,15.1,19.8,14.9,19.8"/>
			<path id="XMLID_3_" class="st1" d="M13.5,31c-0.5,0-2.1-0.1-2.1-1c0-0.9,1.6-1,2.1-1c0.5,0,2.1,0.1,2.1,1C15.6,31,14,31,13.5,31z
				"/>
			<path id="XMLID_2_" class="st1" d="M14.7,30.3L14.7,30.3L14.7,30.3z"/>
			<path id="XMLID_1_" class="st1" d="M24,20.1l-5-5l0.1-2.6c0-0.3-0.2-0.5-0.4-0.5l-0.1,0c-0.3,0-0.5,0.2-0.5,0.4l0,1.7L13.9,10
				c-0.2-0.2-0.5-0.2-0.7,0L3.1,20.1c-0.2,0.2-0.2,0.5,0,0.7c0.2,0.2,0.5,0.2,0.7,0l9.8-9.8l9.8,9.8c0.1,0.1,0.2,0.1,0.3,0.1
				s0.2,0,0.3-0.1C24.2,20.6,24.2,20.3,24,20.1z"/>
		</g>
	</g>
</g>
</svg>
