<?xml version="1.0" encoding="UTF-8"?>
<svg xmlns="http://www.w3.org/2000/svg" xmlns:xlink="http://www.w3.org/1999/xlink" width="30pt" height="29pt" viewBox="0 0 30 29" version="1.1">
<g id="surface1">
<path style=" stroke:none;fill-rule:nonzero;fill:rgb(58.039216%,74.509804%,31.372549%);fill-opacity:1;" d="M 29.726562 14.417969 C 29.726562 22.324219 23.09375 28.734375 14.914062 28.734375 C 6.734375 28.734375 0.101562 22.324219 0.101562 14.417969 C 0.101562 6.511719 6.734375 0.101562 14.914062 0.101562 C 23.09375 0.101562 29.726562 6.511719 29.726562 14.417969 Z M 29.726562 14.417969 "/>
<path style=" stroke:none;fill-rule:nonzero;fill:rgb(55.686275%,55.294118%,55.686275%);fill-opacity:1;" d="M 14.914062 0.199219 C 23.015625 0.199219 29.625 6.585938 29.625 14.417969 C 29.625 22.246094 23.015625 28.636719 14.914062 28.636719 C 6.816406 28.636719 0.207031 22.246094 0.207031 14.417969 C 0.207031 6.585938 6.816406 0.199219 14.914062 0.199219 M 14.914062 0 C 6.671875 0 0 6.449219 0 14.417969 C 0 22.386719 6.671875 28.835938 14.914062 28.835938 C 23.15625 28.835938 29.828125 22.386719 29.828125 14.417969 C 29.828125 6.449219 23.15625 0 14.914062 0 Z M 14.914062 0 "/>
</g>
</svg>
