<svg id="checkbox" xmlns="http://www.w3.org/2000/svg" xmlns:xlink="http://www.w3.org/1999/xlink" width="27.651" height="27.651" viewBox="0 0 27.651 27.651">
  <defs>
    <clipPath id="clip-path">
      <path id="path" d="M21.434,3H5.3A2.311,2.311,0,0,0,3,5.3v16.13a2.311,2.311,0,0,0,2.3,2.3h16.13a2.311,2.311,0,0,0,2.3-2.3V5.3a2.311,2.311,0,0,0-2.3-2.3ZM11.065,19.13,5.3,13.591,6.917,12.04l4.148,3.988,8.756-8.419,1.613,1.551L11.065,19.13Z" transform="translate(-3 -3)" fill="#014c85" clip-rule="evenodd"/>
    </clipPath>
  </defs>
  <rect id="check_box_off" width="27.651" height="27.651" fill="none"/>
  <g id="check_box_on_light" transform="translate(3.456 3.456)" clip-path="url(#clip-path)">
    <g id="Group_29" data-name="Group 29" transform="translate(0 0)">
      <g id="Group_301" data-name="Group 301">
        <g id="Group_300" data-name="Group 300">
          <g id="Group_299" data-name="Group 299">
            <g id="Group_298" data-name="Group 298">
              <g id="Group_297" data-name="Group 297">
                <g id="Group_296" data-name="Group 296">
                  <g id="Group_295" data-name="Group 295">
                    <path id="Path_86" data-name="Path 86" d="M21.434,3H5.3A2.311,2.311,0,0,0,3,5.3v16.13a2.311,2.311,0,0,0,2.3,2.3h16.13a2.311,2.311,0,0,0,2.3-2.3V5.3a2.311,2.311,0,0,0-2.3-2.3ZM11.065,19.13,5.3,13.591,6.917,12.04l4.148,3.988,8.756-8.419,1.613,1.551L11.065,19.13Z" transform="translate(-3 -3)" fill="#014c85" fill-rule="evenodd"/>
                  </g>
                </g>
              </g>
            </g>
          </g>
        </g>
      </g>
    </g>
  </g>
</svg>
